<?xml version="1.0" encoding="UTF-8"?>
<svg id="Layer_2" data-name="Layer 2" xmlns="http://www.w3.org/2000/svg" viewBox="0 0 138 164.67">
  <defs>
    <style>
      .cls-1 {
        fill: #3b3426;
      }

      .cls-2 {
        fill: #938f80;
      }
    </style>
  </defs>
  <g id="Layer_1-2" data-name="Layer 1">
    <g>
      <path class="cls-2" d="M17.91,29.22c-.29-.14-.93.34-1.39-.39-2.57-4.11,1.62-10.82,2.55-14.72s-.18-8.85,3.14-11.46c5.26-4.13,11.61,6.16,15.93,8.64,1.36.78,2.74.7,3.85,1.33,1.21.69,2.69,3.72,4.28,4.48,5.66,2.73,13.46-7.21,17.43-4.83,2.17,1.31,1.17,17.71,7.29,9.97,1.56-1.98,2.26-5.93,5.99-4,1.33.69,1.22,2.81,1.95,4.03,1.91,3.22,4.37,6.64,6.67,9.6-1.68,2,1.65,4.63,2.48,6.48.95,2.12,2.47,6.03.84,8.12-3.21-12.27-3.5-9.53-10.96-17.91-1.32-1.48-1.68-4.43-3.94-4.03-.42.07-1.01,2.33-2.37,2.99-1.13.55-3.97.44-4.49,1.16-.36.5-.33,2.77-.95,4.03-1.45,2.98-18.42,22.28-21.29,24.16-1.1.73-7.94,4.21-9.05,4.56-3.37,1.06-9.01.59-11.93,2.01-4.81,2.33-3.08,11.11-10.65,8.6,2.97-1.84,2.66-4.72,3.95-7.37s3.01-1.09,2.02-5.58c2.27-.03,2.04,3.03,3.02,3.32,1.26.37,3.54-1.55,4.28-2.65.18.08.46-.07.66,0s.64.89,1.27,1.06c3.59.97,11.62-3.09,14.86-5.16,8.44-5.39,14.3-16.59,21.06-24.08,1.34-3.04,2.57-10.4-2.03-10.34.12,3.5-.05,7.53-1.35,10.81-.27.68-1.28.42-1.31.48l1.32-15.93c-.57-.57-8.26,3.28-8.99,3.95-1.41,1.29-.63,3.58-2.29,4.68.02-.07-.5-.4-.41-1.3.35-3.26,2.85-4.21-2.55-5.32-1.92,1.25.19,3.51-.32,5.55-.19.76-1.29.33-1.36.42v-3.99c-3.59-.67-5.19,2.57-8.18,4.11-1.17.6-2,.79-3.1,1.21,1.19-3.42,4.56-2,5.97-5.98,1.28-.49,2.66-.94,3.98-1.34.43-.57-2.29-4.32-2.99-4.63-1.84-.81-.27,2.27-.31,2.99-.06.99-.35,2.05-.67,2.98-1.28.49-2.68.87-3.98,1.33-.55-2.06,2.21-1.49,2.57-2.08.45-.74-.09-2.85.09-3.9-2.11-.27-4.05.61-5.97,1.33l3.97-4.28c-.04-.21-2.69-2.89-2.98-3.01-1.67-.71-.61,1.96-1.08,2.58-.24.31-1.11-.03-1.24.07.33-2.02-3.75-6.04-5.31-4.65-.41-1.8,3-1.68,1.68-3.34-3.12-3.91-8.35,2.82-5.65,6.65,2.74.33,1.85-3.52,3.97-3.32-.25.23-1.58,5.8-1.02,6.66,1.23,1.89,3.89-1.98,5.66-1.35-.08.08.13.73-.19,1.13-1.03,1.32-4.13,2.12.85,2.85-.07.06.28,1.17-.43,1.34-1.85.47-5.3-.33-7.53.65.02-2.7.54-4.87-2.69-2.36-4.39,3.42-2.89,8.45-2.62,12.98,2.79,1.35,2.59,3.29,5.31,3.32-2.38,2.64-.28,7.82,2.36,8.01.25.02,4.6-1.36,4.79-1.52.32-.28.18-1.51.83-2.13.87-.83,2.34-1.5,3.3-2.37-.87,4.58,4.63-1.13,5.77-1.87,2-1.29,4.47-3.13,6.84-3.45-2.52,2.53-7.16,5.84-10.27,7.98-.99.68-2.33.52-2.99.99s-.7,1.91-1.74,2.91c-2.34,2.24-10.62,4.23-13.78,4.03-3.83-.24-5.88-4.55-9.7-2.63,3.64,4.16,9.29,4.66,11.94,9.95-1.89.03-2.31-2.24-3.98-1.99.45,1.05-.62,2.21-.67,2.66-1.5-1.46-2.65-4.08-4.46-5.31-1.61-1.09-5.3-2.08-7.04-3.31-.62-.44-.37-1.27-.45-1.35h3.98c-.42-5.05-5.12-6.21-3.98,0-.07-.07-.93.16-1.35-.43-1.8-2.49.32-5.36,3.06-5.54,2.06-.13,2.72,1.43,4.09,1.83,1.29.38,2.76.02,4.19.46,1.78.54,3.35,3.13,5.93,2.36.39-2.14-1.87-3.82-1.96-5.67-.11-2.08.13-4.29-.02-6.94Z"/>
      <path class="cls-2" d="M87.58,32.53c3.37,1.59,6.94,6.64,7.3,10.36.2,2.07-1.36,3.5-1.19,4.46.27,1.53,3.76,4.82,3.89,6.13.46,4.74-7.8,4.38-8.01,8.66-.24,4.82,13.23,7.48,8,13.07-.86.92-1.95.75-2.52,1.31-1.42,1.39-2.92,5.82-1.84,7.83,2.98,7.66,11.14,16.75,13.77,24.06,1.97,5.47,1.24,4.86,4.38,10.23,6.92,11.85,14.45,22.56,21.89,33.87,3.48,5.28,6.7,14.78-3.37,10.01-3.71-1.76-5.93-3.7-8.45-6.48-.12-.14-1.83.37-1.33-1.33.86.71,1.23,1.26,1.33,1.33,2.28,1.6,6.19,2.94,8.77,4.19.93.45,1.21,1.69,1.64,1.78,1.29.27,3.52.16,3.53-1.63,0-.35-2.48-6.1-2.71-6.48-.66-1.1-3.14-2.93-3.94-4.17-2.3-3.61-4.24-8.39-7.02-11.57-1.86-2.13-2.35-2.15-2.27.61-1.65.37-1.35-.87-1.86-1.75-3.83-6.61-11.76-16.3-14.57-22.63-3.87-8.72-6.8-15.53-11.41-23.92-4.21-7.66-5.27-10.92,1.97-17.43.31,1.43,2.08,1.55,3.31,1.33,1.18-2.76-2.79-7.12-3.31-2.66-2.04-.49-2.14-2.93-2.87-3.76-1.49-1.67-4.88-2.88-5.08-5.91-.22-3.26,5.43-6.94,8.61-6.27-.21-2.26-2.56-2.62-3.98-4.64,4.07.13,1.86-2.13,1.96-4.28.05-1.12.7-2.16.66-3.31-.14-3.96-3.42-7.79-5.27-11Z"/>
      <path class="cls-2" d="M116.77,152.05c-7.12-4.97-17.43-12.62-23.83-18.33-3.48-3.11-6.76-9.26-10.4-12.81-1.02-.99-6.03-5.32-6.92-5.69-3.2-1.31-3.81,1.28-6.6,1.64.49-1.44-.05-6.15.58-7,1.13-1.52,5.16-2.41,7.02-2.32,5.88.29,3.32,2.79,4.96,5.71.74,1.32,8.3,7.54,10.23,9.65,6.07,6.66,9.3,10.01,16.22,15.86,6.67,5.64,13.93,10.63,19.71,17.26l1.31.02-.33-2.66c.13.11.92-.31,1.39.39.22.33,1.45,4.74,1.26,4.91l-3.56-.75c-9.05-8.91-20.37-16.28-29.62-24.8-5.36-4.94-9.39-11.14-14.9-16.29-2.76-2.58-6.11-2.69-5-7.28-1.99.28-4.53.8-3.98,3.31,3.49-.73,2.69,1.57,3.53,2.44.68.71,1.92.94,2.7,1.65,7.17,6.46,11.26,12.51,18.93,18.88,6.22,5.16,11.65,11.04,17.31,16.21.18.16,1.12.56,1.99,1.33-2.38.71-1.87-1.24-1.99-1.33Z"/>
      <path class="cls-2" d="M23.22,101.59c-.07-.01-.33.84-1.27.38-4.36-2.12-1.75-6.66-2.05-9.28-.26-2.28-2.76-3.97-3.03-4.97-.5-1.92.12-5.78-.57-6.76-.32-.45-6.29-1.33-7.34-1.34-1.58-.01-6.94,1.93-7.63-.28-.78-2.51,5.8-4.5,7.64-4.37,1.5.11,2.25,1.21,3.36,1.39,2.67.42,5.41-1.36,8.53,1.36s.72,7.63,2.38,10.73c.51.96,2.18,1.03,2.54,3,.29,1.61-2,6.11,1.44,5.19,1.81-.49,1.99-1.57,4.65-.74,3.88,1.22,4.83,5.59,7.01,6.94,1.56.97,7.16,1.25,8.08,2.86.41.72.32,18,4.11,15.13.24-.18,1.97-7.28,3.29-2.94.86,2.84-2.1,2.75-2.52,4.04-.34,1.06.21,2.87-.19,3.46-.24.37-4.38,1.66-5.23,1.13-.54-.34-4.61-10.32-4.99-11.64-.61-2.08.2-5.14-1.31-6.66-.84-.85-4.11-1.89-5.85-3.44-1.4-1.24-3.38-5.16-5.38-4.52-.77.25-.76,1.82-1.5,2.01-1.52.39-2.46-.67-2.86-.7,8.23-6.3,6.72.21,10.86,3.06,2.93,2.01,5.96.99,6.9,5.39,1.09,5.13,1.03,4.8,3.13,9.48.87,1.93.48,4.6,2.67,5.97,3.87-1.06-1.12-5.02-1.92-7.44-.97-2.95.54-9.54-1.41-11.81-1-1.16-5.07-.97-6.96-2.33-2.23-1.61-5.12-7.36-8.26-6.96-1.07.14-1.85,1.26-3.35,1.38-5.19.43-1.99-3.94-2.31-6.34-.18-1.33-2.53-3.14-3.04-5.64-.71-3.46,1.23-8.11-3.61-7.34,1.11,3.13.18,6.98,1.7,9.91.59,1.12,1.94,1.37,2.27,3.05.7,3.62-2.16,6.31,2,9.61Z"/>
      <path class="cls-1" d="M116.77,152.05c-5.65-5.17-11.09-11.05-17.31-16.21-7.68-6.37-11.76-12.42-18.93-18.88-.78-.7-2.02-.94-2.7-1.65-.83-.88-.04-3.18-3.53-2.44-.55-2.52,1.99-3.04,3.98-3.31-1.11,4.59,2.24,4.7,5,7.28,5.51,5.15,9.54,11.35,14.9,16.29,9.25,8.52,20.56,15.89,29.62,24.8l3.56.75c.19-.17-1.04-4.58-1.26-4.91-.47-.71-1.25-.29-1.39-.39-1.03-.82-1.21-1.16-1.99-1.99.18-1.58-.55-2.71-1.99-3.32-.07-.2.08-.48,0-.66-.8-1.9-1.82-3.61-2.68-5.47l-2.63-2.5c-.04-.2,0-.45,0-.66-.08-2.76.41-2.74,2.27-.61,2.78,3.18,4.71,7.96,7.02,11.57.79,1.24,3.28,3.07,3.94,4.17.23.38,2.71,6.13,2.71,6.48-.01,1.79-2.24,1.9-3.53,1.63-.43-.09-.71-1.33-1.64-1.78-2.58-1.25-6.5-2.59-8.77-4.19-.09-.07-.46-.62-1.33-1.33-.33-.27-.81-.87-1.33-1.33-.87-.77-1.81-1.17-1.99-1.33Z"/>
      <path class="cls-1" d="M23.22,101.59c-4.16-3.3-1.3-5.99-2-9.61-.32-1.68-1.68-1.93-2.27-3.05-1.52-2.93-.59-6.78-1.7-9.91,4.84-.78,2.9,3.88,3.61,7.34.52,2.5,2.87,4.31,3.04,5.64.32,2.4-2.88,6.76,2.31,6.34,1.5-.12,2.27-1.25,3.35-1.38,3.14-.4,6.03,5.35,8.26,6.96,1.89,1.37,5.96,1.17,6.96,2.33,1.96,2.27.45,8.86,1.41,11.81.79,2.42,5.79,6.38,1.92,7.44-2.19-1.37-1.8-4.03-2.67-5.97-2.11-4.68-2.05-4.36-3.13-9.48-.93-4.41-3.96-3.38-6.9-5.39-4.15-2.85-2.63-9.35-10.86-3.06-.44-.03-.94.07-1.33,0Z"/>
      <path class="cls-2" d="M56.4,109.55v3.99c-2.09.01-3.6.69-3.82-1.81-.65-7.14,11.57-8.8,12.97-2.37.4,1.83-.08,3.78.29,5.68.62,3.19,5.23,9.66-1,8.33-2.71-.58-4.41-5.16-4.97-7.66-.68-3.02,1.39-6.82-3.47-6.16ZM65.02,121.5c.74-2.08-1.05-3.55-1.29-5.01-.39-2.37.96-7.45-1.36-8.6-4.54-2.25-1.67,1.23-1.48,2.14.65,3.01.34,5.69,1.69,8.94.42,1.01.91,2.96,2.43,2.53Z"/>
      <path class="cls-1" d="M87.58,32.53c1.85,3.21,5.13,7.05,5.27,11,.04,1.15-.61,2.18-.66,3.31-.1,2.15,2.12,4.41-1.96,4.28-1.68-2.4-.83-2.74-1.33-4.65,1.63-2.09.11-6-.84-8.12-.83-1.86-4.15-4.49-2.48-6.48.87,1.11,1.54.45,1.99.66Z"/>
      <path class="cls-1" d="M20.57,52.45c.46.92.64,2.35.78,2.55.27.37,1.1.01,1.21.11-.03,2.89.69,2.92,2.65,3.98.37.2.96.5,1.33.66-.74,1.1-3.02,3.02-4.28,2.65-.98-.29-.75-3.34-3.02-3.32-.05-.22.06-.47,0-.66-.37-1.16-1.99-4.38-3.32-3.98-.04-.41-.05-.92,0-1.33.05-.45,1.12-1.61.67-2.66,1.67-.24,2.09,2.02,3.98,1.99Z"/>
      <path class="cls-1" d="M93.55,71.71c.52-4.46,4.5-.1,3.31,2.66-1.24.22-3.01.1-3.31-1.33-.07-.32-.04-.96,0-1.33Z"/>
      <path class="cls-2" d="M119.42,139.44l2.63,2.5c.86,1.86,1.89,3.57,2.68,5.47-2.1-.03-4.96-6.34-5.31-7.97Z"/>
      <path class="cls-2" d="M15.92,54.45c1.33-.4,2.95,2.82,3.32,3.98-1.96-.63-3.14-1.87-3.32-3.98Z"/>
      <path class="cls-2" d="M126.72,151.39c-.38-.41-1.23-.54-1.65-1.34s-.18-1.56-.34-1.98c1.44.61,2.17,1.74,1.99,3.32Z"/>
      <path class="cls-1" d="M59.71,32.53c.03-.06,1.04.2,1.31-.48,1.3-3.28,1.47-7.31,1.35-10.81,4.6-.06,3.37,7.3,2.03,10.34-6.75,7.49-12.62,18.69-21.06,24.08-3.25,2.07-11.27,6.13-14.86,5.16-.63-.17-1.07-.99-1.27-1.06.34-.26,1.12-.41,1.33-.66,3.2.8,5.4-1.48,7.96-2.66.48-.22.87-.42,1.33-.66,1.45-.77,4.86-1.2,4.64-3.32.37-.2,1.14-.46,1.33-.66,1.89.54,1.2-1.22,1.33-1.33.14-.11,1.31.16,1.95-.34,2.63-2.05,4.16-5.23,6.01-7.63,1.37-1.78,2.86-3.22,3.98-4.65,1.58.34,1.49-.62,1.33-1.99,1.58-2.15.85-2.35,1.33-3.32Z"/>
      <path class="cls-1" d="M39.81,19.92c.33-.93.61-1.99.67-2.98.05-.71-1.52-3.8.31-2.99.71.31,3.43,4.06,2.99,4.63-1.32.4-2.7.85-3.98,1.34-1.41,3.98-4.78,2.55-5.97,5.98-.19.07-.46-.07-.66,0-.46.15-1.41-.26-1.95.37l-4.68,4.28c-.93.6-2.6,1.2-3.32,1.99-2.72-.03-2.52-1.97-5.31-3.32-.27-4.53-1.77-9.56,2.62-12.98,3.23-2.52,2.71-.34,2.69,2.36,0,.43.07.94,0,1.33-3.12.47-4.78,7.46-1.52,8.49.95.3,3.34.86,2.85-1.19.21,0,.46.03.66,0,1.75-.24,4.66-1.41,4.64-3.32.19-.07.45.06.66,0,1.3-.39,3.74.13,3.32-1.99.63-.23,1.33-.43,1.99-.66,1.3-.46,2.7-.83,3.98-1.33Z"/>
      <path class="cls-1" d="M49.76,25.23c-.19.85-.53.99-.66,1.33-1.77-.31-1.35.42-1.33,1.99-.2.25-.44.44-.66.66-2.37.31-4.85,2.16-6.84,3.45-1.14.74-6.64,6.44-5.77,1.87,1.4-1.26,1.72-1.55,3.32-2.66,2.76.57,1.74-1.02,1.99-1.33,1.58-1.95,3.51-3.8,5.31-5.98.07-.09,1.17.35,1.36-.42.51-2.04-1.59-4.29.32-5.55,5.4,1.12,2.9,2.06,2.55,5.32-.1.91.42,1.24.41,1.3Z"/>
      <path class="cls-1" d="M31.18,11.95c.13-.1,1,.24,1.24-.07.47-.62-.59-3.29,1.08-2.58.29.12,2.94,2.81,2.98,3.01l-3.97,4.28c-.35.13-1.16-.15-1.33,0-4.99-.73-1.88-1.53-.85-2.85.32-.41.11-1.05.19-1.13.18-.2.47-.51.66-.66Z"/>
      <path class="cls-1" d="M25.88,7.3c-2.12-.2-1.23,3.64-3.97,3.32-2.69-3.84,2.53-10.56,5.65-6.65,1.32,1.66-2.09,1.54-1.68,3.34Z"/>
      <path class="cls-1" d="M3.98,43.16c-1.14-6.21,3.56-5.05,3.98,0h-3.98Z"/>
      <path class="cls-1" d="M65.02,121.5c-1.51.43-2.01-1.52-2.43-2.53-1.36-3.25-1.05-5.93-1.69-8.94-.2-.91-3.06-4.4,1.48-2.14,2.31,1.15.97,6.23,1.36,8.6.24,1.46,2.03,2.93,1.29,5.01Z"/>
      <path class="cls-2" d="M25.21,59.09c-1.96-1.06-2.68-1.09-2.65-3.98,1.34,1.1,2.34,2.21,2.65,3.98Z"/>
      <path class="cls-2" d="M36.49,56.44c-2.56,1.18-4.76,3.45-7.96,2.66.11-.14-.34-1.18.47-1.32l7.49-1.33Z"/>
      <path class="cls-2" d="M53.08,42.49c-1.85,2.4-3.38,5.58-6.01,7.63-.64.5-1.82.23-1.95.34-.13.11.56,1.87-1.33,1.33.15-.16-.17-1.16,0-1.33s1.16.15,1.33,0c.1-.09-.06-.92.34-1.31l7.62-6.66Z"/>
      <path class="cls-2" d="M42.46,52.45c.22,2.12-3.19,2.55-4.64,3.32-.22-2.11,3.19-2.55,4.64-3.32Z"/>
      <path class="cls-2" d="M58.38,35.85c.16,1.37.26,2.33-1.33,1.99.24-.3.82-1.3,1.33-1.99Z"/>
      <path class="cls-2" d="M49.1,26.56c-.61,1.49-.57,1.06-1.33,1.99-.03-1.57-.45-2.3,1.33-1.99Z"/>
      <path class="cls-2" d="M33.17,25.9c-1.28,2.47-4.57,3.31-6.63,4.65l4.68-4.28c.54-.63,1.49-.22,1.95-.37Z"/>
      <path class="cls-2" d="M39.81,30.54c-.25.31.77,1.9-1.99,1.33.36-.25.65-1.61,1.99-1.33Z"/>
      <path class="cls-2" d="M23.22,19.92c-.62,3.71-4.92,7.12,1.33,7.3.5,2.05-1.9,1.49-2.85,1.19-3.26-1.04-1.6-8.03,1.52-8.49Z"/>
      <path class="cls-2" d="M29.86,23.9c.01,1.91-2.89,3.08-4.64,3.32.72-1.31,3.16-2.78,4.64-3.32Z"/>
      <path class="cls-2" d="M33.84,21.91c.42,2.12-2.02,1.6-3.32,1.99.61-1.59,2.05-1.53,3.32-1.99Z"/>
    </g>
  </g>
</svg>