<?xml version="1.0" encoding="UTF-8"?>
<svg id="Layer_2" data-name="Layer 2" xmlns="http://www.w3.org/2000/svg" viewBox="0 0 140 126">
  <defs>
    <style>
      .cls-1 {
        fill: #474541;
      }

      .cls-2 {
        fill: #908c89;
      }
    </style>
  </defs>
  <g id="Layer_1-2" data-name="Layer 1">
    <g>
      <path class="cls-2" d="M48,19.89c3.09-.16,11.68,2.29,14.24,4.07,1.98,1.38,4.41,5.95,6.46,6.87.8.36,2.04-.23,3.16.08,8.96,2.45,9.7,6.26,15.8,11.54,2.22,1.92,5.69,2.5,8.54,1.84s5.69-5.71,9.7-.09c3.34,4.68-1.07,5.15-.31,8.23.5,2.03,3.7,3.09,5.59,2.13,2.17-1.09,1.27-3.7,5.8-2.82,2.02.39,4.16,3.83,4.19,5.74.02,1.21-1.05,2.08-1.17,3.25-.26,2.64,2.86,7.99-3,7.63-6.74-.41-.51-8.53-3.37-9.34-2.29-.65-4.25,4.92-9.86,1.21-2.16-1.43-4.39-5.27-2.51-7.58.73-.89,6.29-2.06,2.34-4.85-4.47-3.16-7.82,3.39-10.64,3.92s-4.35-1.18-6.97-1.32c-.27,4.15,1.85,7.94,3.14,11.8,4.45,13.33,8.55,20.73,21.73,27.46,5.26,2.68,11.43,3.1,16.81,5.89,3.99.01,1.02-3.28,1.63-5.59.19-.74,1.3-.36,1.36-.43-.4.62-.13,4.28,1.66,3.98,1.72-1.14,1.88-2.69,1.67-4.64-.18-.19-3.24.52-3.33.66.29-.34.92-3.56.6-3.92-.24-.27-5.27-2.09-6.57-3.08-2.63-1.99-3.49-5.29-2.57-8.46.35-1.21,1.77-1.59,1.86-1.79-.15.16-.73,3.72-.72,4.31.02,4.04,3.5,6.66,7.39,6.29.39-3.23-3.43-4.5-3.38-7.64.03-2.42,2.13-2.6,2.59-4.09.5-1.67.53-7.12-1.61-7.45-2.75-.43-1.63,3.83-1.85,5.28-.51,3.31-2,2.85-2.4,3.3,2.26-4.9.52-4.43-.4-7.95-.87-3.29,6.7-5.43,8.12.67.93,3.96-2.49,8.92-2.4,10.88.14,3.15,4.36,4.69,6.02,6.68,4.61,5.52-.8,7.71-.05,13.31.38,2.87,2.55,3.47,2.71,8.25l-2.68-4.29c-15.31-5.67-30.32-7.32-40.54-21.35-2-2.75-7.1-11.29-8.06-13.99-.33-.94-1.96-14.41-4.72-11.43-.04.97-.05,1.94.07,2.91.81,6.53,3.3,13.2,4.59,18.97-2.53-3.23-3.98-7.84-5.14-11.8-2.58-8.79-2.24-22.15-10.92-26.94-8.16-4.51-18.29,11.81-21.54,17.59-11.07,19.69-15.13,30.5-7.07,52.32,2.5,1.31,4.28,4.63,7.77,6.53,7.35,4,13.57,4.72,21.93,4.11,17.3-1.26,39.55-14.22,56.29-6.98,1.21.52,7.98,8.37,9.34,6.95.97-4.55-3.83-6.54-4-10.61.17.1.85-.18,1.18.13.52.48.53,1.86,1.15,2.52,2.92,3.13,2.19-1.63,2.34-3.31,1.11-.23,1.49.5,2,1.33v19.23h-3.33l-7.63-7.33c-.36-.42-.24-1.11-.37-1.29,1.96.35,4.83,2.56,6.22,3.94,1.06,1.05-.57,2.67,3.11,2.02.8-3.79-2.14-3.24-3.68-4.62-1.62-1.46-4.35-6.07-6.34-6.96-1.33-.6-8.49-1.55-10.32-1.67-18.07-1.11-36.56,10.13-55.24,8.53-1.08-.09-9.27-1.34-9.73-1.54-.52-.23-8.5-6.37-9.05-6.96-1.63-1.74-1.08-2.49-1.64-4.01-1.71-.9-4.49-5.3-5.15-7.81-2.53-9.69-.35-20.81,2.79-30.01,1.82-5.32,9.15-14.34,10.21-19.02.52-2.29-.3-3.15-2.52-1.82-.61.37-.47,2.13-1.99,1.64,1.77-2.84,3.93-6.86,6-9.61,2.51-3.35,10.24-5.69,6.67-9.62.64.17,2.48-.2,2.67,0,.24.25-.18,3.73,0,4.65,9.43,1.5,4.19-6.88.04-9.66-2.23-1.49-8.01-2.33-10.86-3.15-1.12-.32-2.17-.15-1.84-1.78ZM92.53,47.19c-.31-.53-6.22-3.7-7.51-4.77-4.1-3.38-5.83-9.1-12.35-8.6-.63.58,4.78,7.47,5.48,8.81.53,1.02.19,2.51.94,3.19.2.18,4.42,2.34,4.68,2.39.69.13,1.65-.51,2.41-.31,2.24.56,3.87,2.51,6.48,1.15-.02-.6.2-1.3-.13-1.86ZM58,37.14c-1.9-1.82-8.32,5.21-6.66,7.95l5.69-5.27c.75-.39,1.33-2.33.97-2.68ZM118,55.7c1.12-1.52-3.88-4.19-4.66-1.64-.92,3.04,4.09,2.41,4.66,1.64ZM108.66,59.02c2.5-2.39-8.29-6.9-4.7-1.62.81,1.2,3.88,2.4,4.7,1.62ZM117.99,61.68c-1.14-.12-2.18-.12-2.57,1.09-1.56,4.88,5.35,4.94,2.57-1.09Z"/>
      <path class="cls-1" d="M11.33,9.95c.41-1.29-3.17-3.33-3.57-3.27-2.79.44-2.22,5.04-2.43,5.26-2.28,2.36-4.61-6.57-.64-8.31,1.81-.79,6.9.88,8.81,1.84,1.13.57,1.67,1.62,2.56,2.1,1.74.93,6.66,1.8,6.65,4.04,0,1.82-6.14,3.34-7.67,4.98-.43.46-3.46,5.96-3.57,6.48-.21,1.02,1.15,6.98,3.2,6.77.39,1.76-.27,1.34,1.33,2.65-.86,2.81,4.67,4.45,4.67,6.3v11.27c0,2.2,6.93-.06,7.33.34-.88,6.24-2.08,13.27-1.35,19.58.18,1.52,1.74,7.22,3.11,7.47,4.83.89,5.7-8.4,6.89-11.49s3.42-5.67,4.02-8.93c.23-.13.43-.55.67-.66.31-.14,1.16.16,1.33,0,.38-.37-.67-1.25-.67-1.32,0-.84.55-1.43.67-1.99,1.92.42,1.82-1.89,2-3.32.21-.24.58-.53.67-.66,1.53.5,1.38-1.27,1.99-1.64,2.23-1.33,3.04-.47,2.52,1.82-1.06,4.68-8.39,13.7-10.21,19.02-3.14,9.2-5.32,20.32-2.79,30.01.66,2.51,3.44,6.91,5.15,7.81.56,1.52,0,2.27,1.64,4.01.55.59,8.53,6.73,9.05,6.96.45.2,8.65,1.45,9.73,1.54,18.68,1.6,37.17-9.64,55.24-8.53,1.83.11,8.99,1.07,10.32,1.67,1.99.89,4.72,5.5,6.34,6.96,1.54,1.38,4.48.83,3.68,4.62-3.68.65-2.05-.98-3.11-2.02-1.39-1.38-4.27-3.59-6.22-3.94-.18-.24-.52-.42-.67-.66-.14-.23.4-.86-.45-1.34-2.88-1.61-9.22-1.43-12.58-1.31-1.28.04-2.68-.68-2.3,1.33-.89-.03-1.78.03-2.67,0-11.96-.37-17.87,3.43-29.17,5.8-6.44,1.35-15.5,1.43-22.16,2.16-.58.06-1.42.06-2,0,.16-1.41.08-1.48-1.33-1.33-.18-.16-1.46.12-2,0-2.5-4.48-7.54-6.55-12-8.62-1.53-2.23-3.64-4.18-4.8-6.17-3.74-6.43-3.5-14.03-5.52-20.37-1.12-3.49-5.3-7.49-6.66-11.94s-.78-8.85-1.88-13.38c-.82-3.38-3.78-8.01-4.32-10.96s.3-5.91-.47-8.82c-1.03-3.91-7.31-7.97-8.84-12.42-.9-2.62-1.4-10.43-.89-13.04.03-.14,2.52-1.02,2.71-1.04.43-.05.91.06,1.33,0,.49-.07,2.37,1.37,2.67-1.99.1-1.19-.41-1.33-.67-1.99-.1-.25.21-.92-.1-1.23s-.88-.03-1.23-.1c-.42-.07-.92.07-1.33,0Z"/>
      <path class="cls-2" d="M46.67,19.89c-.18.17.54,1.58-.96,1.31-1.39-.25-2.26-2.59-4.21-3.11-2.2-.59-5.47-.3-7.65-1.03-2.35-.79-4.78-3.8-7.55-4.43-3.18-.72,1.43,2.67,1.7,2.95.64.67.93,1.72,1.65,2.33,3.28,2.81,8.63-.58,12.37,4.27,1.1,1.42.98,4.45,2.41,4.93,1.23.42,4.85-.73,7.16-.53,1.08.09,5.57.7,5.08,2.59-3.6-.96-8.53-2.44-11.81.2-.87.7-3.01,4.48-3.69,4.96-.45.32-1.05.07-1.17.15.12-.26-.08-.98.14-1.52.5-1.24,2.09-1.6,1.86-3.12-2.63-.41-3.76.43-5.33,2.32-1.15,1.38-7.1,9.75-7.66,10.95-.8,1.74-.17,4.08-.34,5.95,2.53-.07,2.62-3.53,3.64-5.33,2.47-4.37,3.71-6.49,7.69-9.26-3.37,7.14-10.48,15.28-11.33,23.55-.22,2.17-.1,16.84.66,17.57,1.97,1.87,4.13-4.14,4.47-5.17,1.51-4.53,1.16-4.66,3.67-8.95,1.49-2.56.27-2.87,3.19-4.45-.6,3.27-2.85,5.91-4.02,8.93s-2.06,12.38-6.89,11.49c-1.37-.25-2.93-5.95-3.11-7.47-.73-6.31.48-13.35,1.35-19.58-.4-.4-7.33,1.86-7.33-.34v-11.27c0-1.85-5.53-3.49-4.67-6.3.09.07.71-.15,1.15.17.31.22,1.56,3.14,2.84,1.82.26-.27-.48-6.07,2.67-6.63-.55,1.2-2.04,6.56-1.33,7.29,1.01.14,1.57,0,2.38-.61.85-.64,7.16-11.07,6.28-11.98-3.67-.28-4.35,3.45-5.48,4.51-.33.31-1.06.03-1.18.13-.75-5.17,8.66-4.88,4.04-9.66s-11.06-2.74-13.22,3.51c-1.28,3.72-.3,5.1.51,8.8-2.05.21-3.41-5.75-3.2-6.77.11-.52,3.13-6.02,3.57-6.48,1.53-1.64,7.66-3.15,7.67-4.98.01-2.25-4.91-3.11-6.65-4.04-.89-.48-1.43-1.53-2.56-2.1-1.9-.96-6.99-2.63-8.81-1.84-3.97,1.74-1.64,10.67.64,8.31.21-.22-.35-4.83,2.43-5.26.4-.06,3.98,1.97,3.57,3.27-1.32-.23-2.59-.88-4-.66-.62,3.21,1.14,4.24,3.33,5.97-.2.02-2.69.9-2.71,1.04-.51,2.61,0,10.42.89,13.04,1.53,4.46,7.82,8.51,8.84,12.42.76,2.91-.07,5.91.47,8.82s3.5,7.58,4.32,10.96c1.1,4.53.53,8.97,1.88,13.38s5.54,8.45,6.66,11.94c2.03,6.34,1.78,13.94,5.52,20.37,1.15,1.99,3.27,3.93,4.8,6.17,4.46,2.07,9.5,4.14,12,8.62-4.39-.98-9.57-5.07-12-8.62-5.72-2.66-9.22-10.25-10.48-16.43-.58-2.83-.33-7.31-.99-9.63-.43-1.53-4.93-6.43-5.9-8.72-2.86-6.73-2.37-13.98-4.16-20.4-.78-2.82-2.98-4.92-3.52-7.11-.76-3.12.28-6.65-.45-9.5-.85-3.3-8.35-9.14-9.66-14.93-.57-2.51.18-5.12-.33-7.63C4.99,14.83-2.73,9.45,1.68,3.33c4.3-5.96,13.33,2.25,17.74,4.2,6,2.66,12.11,5.12,18.08,7.21,3.33,1.17,6.68,2.56,9.16,5.15ZM41.25,23.29c-.14-.22-4.72-1.86-5.01-1.89-4.31-.41-8.39,10.5-10.6,13.72-.83,1.21-3.24,2.69-3.55,3.82-.47,1.75,1.43,7.62.58,10.13,4.4.9,4.02-4.47,5.17-7.12.57-1.31,5.98-9.09,7.18-10.76,1.58-2.2,8.31-4.67,6.22-7.9Z"/>
      <path class="cls-1" d="M86.67,74.94c-1.3-5.77-3.79-12.44-4.59-18.97-.12-.97-.11-1.94-.07-2.91,2.75-2.98,4.38,10.48,4.72,11.43.96,2.7,6.06,11.24,8.06,13.99,10.21,14.03,25.23,15.68,40.54,21.35l2.68,4.29c.01.43.04.9,0,1.33-.15,1.68.58,6.44-2.34,3.31-.62-.66-.63-2.04-1.15-2.52-.33-.3-1.01-.03-1.18-.13-.34-.21-.49-.23-.67-.66-.23-.56.27-1.36-.65-2.31-4.31-4.41-16.37-4.56-21.96-7.35-7.68-3.84-13.59-10.5-20.05-15.53-.25-.19-.44-.52-.67-.66-.18-1.42-.08-3.73-2-3.32-.03-.16-.53-.71-.67-1.33Z"/>
      <path class="cls-1" d="M56.67,29.18c.49-1.89-4-2.49-5.08-2.59-2.31-.2-5.92.95-7.16.53-1.43-.49-1.31-3.51-2.41-4.93-3.74-4.85-9.09-1.46-12.37-4.27-.72-.62-1.02-1.66-1.65-2.33-.27-.29-4.88-3.68-1.7-2.95,2.77.63,5.2,3.64,7.55,4.43,2.18.73,5.45.44,7.65,1.03,1.96.53,2.82,2.86,4.21,3.11,1.5.27.78-1.13.96-1.31.09-.08.95.02,1.33,0-.32,1.63.73,1.46,1.84,1.78,2.85.82,8.64,1.66,10.86,3.15,4.15,2.78,9.39,11.16-.04,9.66-.17-.91.24-4.4,0-4.65-.19-.2-2.03.17-2.67,0s-1.12-.61-1.33-.66Z"/>
      <path class="cls-2" d="M110,115.39c-16.94,3.34-33.72,11.22-51.33,7.96,6.66-.72,15.73-.81,22.16-2.16,11.3-2.37,17.21-6.17,29.17-5.8Z"/>
      <path class="cls-2" d="M112.67,115.39c-.37-2,1.02-1.28,2.3-1.33,3.36-.11,9.71-.3,12.58,1.31.85.48.31,1.11.45,1.34-4.96-2.05-10.1-1.15-15.33-1.33Z"/>
      <path class="cls-2" d="M55.33,122.02c1.42-.16,1.49-.08,1.33,1.33-2.47-.27-.89-.94-1.33-1.33Z"/>
      <path class="cls-2" d="M44.67,49.74c-.18,1.42-.08,3.73-2,3.32.81-4.05,1.09-2.28,2-3.32Z"/>
      <path class="cls-2" d="M14.67,13.26c-.29,3.36-2.17,1.92-2.67,1.99.51-1.15,1.35-1.94,2.67-1.99Z"/>
      <path class="cls-2" d="M42,55.04c0,.07,1.05.96.67,1.32-.17.16-1.02-.14-1.33,0l.67-1.33Z"/>
      <path class="cls-2" d="M12.67,9.95c.35.06.94-.2,1.23.1s0,.98.1,1.23c-1.42.16-1.49.08-1.33-1.33Z"/>
      <path class="cls-1" d="M92.53,47.19c.33.56.11,1.25.13,1.86-2.6,1.36-4.24-.59-6.48-1.15-.76-.19-1.72.45-2.41.31-.26-.05-4.48-2.21-4.68-2.39-.75-.67-.41-2.17-.94-3.19-.7-1.34-6.11-8.23-5.48-8.81,6.52-.5,8.24,5.22,12.35,8.6,1.29,1.06,7.2,4.24,7.51,4.77Z"/>
      <path class="cls-1" d="M124,72.28c.4-.45,1.89.01,2.4-3.3.22-1.44-.9-5.71,1.85-5.28,2.14.33,2.12,5.78,1.61,7.45-.45,1.49-2.55,1.67-2.59,4.09-.04,3.14,3.77,4.41,3.38,7.64-3.88.37-7.37-2.25-7.39-6.29,0-.59.58-4.15.72-4.31Z"/>
      <path class="cls-1" d="M58,37.14c.37.35-.22,2.28-.97,2.68l-5.69,5.27c-1.66-2.74,4.76-9.77,6.66-7.95Z"/>
      <path class="cls-1" d="M108.66,59.02c-.82.79-3.89-.42-4.7-1.62-3.59-5.28,7.2-.77,4.7,1.62Z"/>
      <path class="cls-1" d="M117.99,61.68c2.78,6.03-4.13,5.97-2.57,1.09.39-1.21,1.43-1.21,2.57-1.09Z"/>
      <path class="cls-1" d="M130.67,89.53c.09-.14,3.15-.85,3.33-.66.21,1.94.05,3.5-1.67,4.64-1.79.3-2.06-3.36-1.66-3.98Z"/>
      <path class="cls-1" d="M118,55.7c-.57.77-5.58,1.4-4.66-1.64.77-2.54,5.78.13,4.66,1.64Z"/>
      <path class="cls-1" d="M40,34.48c-3.98,2.77-5.22,4.89-7.69,9.26-1.02,1.8-1.1,5.26-3.64,5.33.17-1.87-.46-4.22.34-5.95.55-1.2,6.51-9.57,7.66-10.95,1.57-1.89,2.69-2.73,5.33-2.32.23,1.51-1.36,1.88-1.86,3.12-.22.54-.02,1.26-.14,1.52Z"/>
      <path class="cls-1" d="M23.33,27.19c.12-.1.85.18,1.18-.13,1.13-1.06,1.81-4.79,5.48-4.51.87.91-5.43,11.34-6.28,11.98-.81.6-1.37.76-2.38.61-.71-.73.78-6.09,1.33-7.29.21-.46.4-.45.67-.66Z"/>
      <path class="cls-2" d="M132.67,105.44c-1.89-.79-4.17-3.11-5.84-3.8-8.76-3.61-15.8-3.47-24.75-9.2-4.46-2.85-10.18-7.19-12.07-12.2,6.46,5.03,12.37,11.7,20.05,15.53,5.59,2.79,17.65,2.94,21.96,7.35.93.95.43,1.75.65,2.31Z"/>
      <path class="cls-2" d="M87.33,76.26c1.92-.42,1.82,1.89,2,3.32-.17-.11-.9.28-1.39-.42s-.46-2.03-.61-2.9Z"/>
      <path class="cls-2" d="M46.34,94.84c2.05-.41,3.35,4.22,1.31,4.64s-3.35-4.22-1.31-4.64Z"/>
    </g>
  </g>
</svg>