<?xml version="1.0" encoding="UTF-8"?>
<svg id="Layer_2" data-name="Layer 2" xmlns="http://www.w3.org/2000/svg" viewBox="0 0 156 143.33">
  <defs>
    <style>
      .cls-1 {
        fill: #3e3b36;
      }

      .cls-2 {
        fill: #908e8a;
      }
    </style>
  </defs>
  <g id="Layer_1-2" data-name="Layer 1">
    <g>
      <path class="cls-2" d="M114.67,19.33c-.18-.12-1.26.08-1.96-.35-1.16-.71-1.94-2.48-3.18-2.85-2.18-.65-5.98.08-8.52-.15-7.49-.67-11.96-7.95-18.68-7.98-3.33-.01-6.78,2.05-10,2.05-4.35,0-6.46-2.89-11.85-1.9-1.5.28-6.87,3.56-8.73,4.6-6.76,3.77-6.21,2.52-13.27,4.06-6.42,1.4-9.78,10.09-14.12,12.55-2.65,1.5-5.26.84-7.71,4.29-1.18,1.66-1.01,3.2-1.7,4.3-2.96,4.65-7.02,8.73-8.16,14.54-.19.98-.19,9.51-.14,11.14.31,9.26,5.01,19.76,10.01,27.03-2.04.53-1.01-1.51-1.42-1.88-.39-.34-1.9,0-2.96-.74-2.18-1.52-3.27-5.53-3.26-8.08l-3.37-7.97c-2.44.32.04,5,.29,6.38.23,1.25-.18,2.7.09,3.91,2.31,10.37,17.47,16.29,20.72,24.64,2.31,5.92,2.27,10.6,5.55,17.09s6.24,8.54,10.36,13.31c-1.1-.21-2.18-.59-3.13-1.19-5.47-3.47-11.51-16.44-13.36-22.65-1.32-4.47.29-6.3-3.59-10.41-5.05-5.36-12.08-8.82-16.19-15.81-4.36-7.42-3.05-15.78-6.41-23.26v-6c1.03-.96,2.5-4.12,2.94-5.39,2.35-6.82,4.69-14.63,8.26-21.07,1-1.82,2.52-4.19,4.8-4.2-2.09,2.81-4.16,5.71-5.04,9.29-.33,1.34-.69,2.88,1.36,2.02.81-.34,3.08-6.49,5.66-8.34,1.76-1.26,3.4-1.24,5.04-2.3,4.52-2.91,10.52-13.34,16.05-14,1.51-.18,3.02.72,4.61.72,4.91.03,12.46-8.16,17.3-8.76,4.09-.51,6.53,1.75,10.03,2.05,5.76.49,9.76-2.67,17.15-.5,3.73,1.09,6.4,5.34,9.14,6.19,5.05,1.57,14.5-1.77,17.37,5.63Z"/>
      <path class="cls-2" d="M154.67,72.67c.52,3.28.62,6.85-.04,10.29-.45,2.36-2.39,3.75-2.66,6.02-.37,3.1.95,7.02.73,10.72-.34,5.66-2.72,10.78-6.14,15.19-2.45,3.16-7.25,7.04-10.42,9.09-2.73,1.77-13.61,4.48-17.11,4.72-16.16,1.11-28.57.61-42.9,10.44l-14.8,4.2h-6l-8.67-4c4.18-.69,6.28.98,10.34,1.32,15.4,1.28,26.26-8.94,39.4-12.58,9.77-2.71,20.41.37,30.82-2.52,11.58-3.21,22.64-13.34,23.47-25.87.34-5.22-1.74-9.3.51-14.16.48-1.04,1.74-1.77,2-2.67.77-2.67-.18-7.46,1.47-10.2Z"/>
      <path class="cls-2" d="M64,0c6.41,5.23,14.61.38,22.17,1.49,5.68.83,9.24,5.88,13.65,7.01,7.13,1.82,10.69-2.14,17.81,4.87,1.06,1.04,3.66,5.63,4.52,6.46,1.03.99,7.95,3.33,10.17,4.83,6.61,4.47,3.69,8.7,7.08,13.59,1.15,1.66,3.02,1.51,4.1,2.38,1.93,1.56,5.22,5.85,5.96,8.21,1.53,4.85-2.04,7.02-1.37,10.66.55,3.01,5.51,8.27,6.56,11.82-1.39.03-2.87-2.37-3.61-3.39-2.43-3.33-4.75-6.56-4.41-10.93.16-2.08,1.53-3.95,1.43-6.04-.06-1.16-1.11-.8-1.37-1.47-.27-.72.12-1.87-.4-2.81-2.81-5.05-8.42-6.22-10.13-11.87-.7-2.3-.09-3.66-1.88-6.12-2.81-3.84-9.08-4.94-12.66-7.34-3.2-2.14-5.23-8.46-10.48-10.19-4.15-1.37-7.13.51-9.99.05-4.16-.68-10.44-7.15-14.88-7.85-5.33-.83-11.61,1.15-17.32.65-2.24-.19-4.15-1.35-5.96-1.37-6.48-.07-16.25,8.5-24.01,10.35-.67.16-1.91-.59-3.19-.24-1.01.28-5.12,3.62-7.15,4.56-1.75,2.51-3.06,4.57-5.69,6.65-1.94,1.54-3.6,3.24-6.31,2.69,1.72-2.66,2.42-1.53,5.01-3.33,3.12-2.17,3.15-4.22,6.99-6.01,6.32-9.07,8.25-5.25,16.19-8.14,3.68-1.34,7.93-4.9,11.34-6.66,1.86-.96,4.34-.86,5.8-2.53h2Z"/>
      <path class="cls-1" d="M28.67,17.33c2.03-.95,6.15-4.28,7.15-4.56,1.27-.35,2.52.4,3.19.24,7.76-1.85,17.53-10.42,24.01-10.35,1.81.02,3.72,1.17,5.96,1.37,5.71.49,11.99-1.49,17.32-.65,4.44.7,10.71,7.17,14.88,7.85,2.86.47,5.83-1.42,9.99-.05,5.25,1.73,7.28,8.05,10.48,10.19,3.58,2.4,9.85,3.49,12.66,7.34,1.8,2.46,1.19,3.82,1.88,6.12,1.72,5.65,7.32,6.82,10.13,11.87.52.94.12,2.09.4,2.81.25.67,1.31.3,1.37,1.47.11,2.09-1.27,3.96-1.43,6.04-.34,4.37,1.98,7.6,4.41,10.93.75,1.02,2.22,3.43,3.61,3.39.1.35-.07.91,0,1.33-1.65,2.73-.69,7.53-1.47,10.2-.26.89-1.52,1.63-2,2.67-2.25,4.86-.16,8.94-.51,14.16-.82,12.53-11.88,22.65-23.47,25.87-10.41,2.89-21.05-.19-30.82,2.52-13.13,3.64-24,13.87-39.4,12.58-4.07-.34-6.17-2.02-10.34-1.32-.3.05-1.29.05-1.33,0-.15-.16.17-1.19,0-1.33-.24-.2-1.51.16-2,0-.17-.06-.49-.47-.67-.67-4.12-4.77-7.24-7.14-10.36-13.31-3.28-6.49-3.24-11.17-5.55-17.09-3.25-8.35-18.41-14.27-20.72-24.64-.27-1.21.14-2.66-.09-3.91-.25-1.38-2.74-6.06-.29-6.38l3.37,7.97c-.01,2.55,1.08,6.56,3.26,8.08,1.07.74,2.57.39,2.96.74.41.37-.62,2.41,1.42,1.88.17.24.51.42.67.67.83,1.31.26,2.11,3.33,2,.14.2.47.38.67.67.12.18-.27,1.17.15,1.83.46.71,4.6,3.55,5.85,2.84.14.21.49.39.67.67,2.68,4.07,3.97,10.21,5.13,15.24.27,1.17-.34,2.49,1.54,2.1.05.39.52,1.26.67,2,.01.05-.58.45-.49.89.23,1.1,1.08,3.6,2.49,3.11.03.4.06.95,0,1.33-.01.07-1.1.87-.66,1.33.15.16,1.08-.15,1.33,0,1.36.84.91.76,1.33,2,1.67,4.83,8.05,8.1,13.07,9.26,19.17,4.44,31.57-11.73,47.93-13.25,12.53-1.17,27.05,1.13,36.33-9.34.21-.23.48-.43.67-.67,2.64.46,2.07-1.1,2.67-2,.44-.66.94-1.32,1.33-2,1.09.26,2.98-2.38,3.33-3.01,2.87-5.15.41-11.84,1.38-17.29.3-1.67,2-3.32,2.44-4.89s1.62-7.75,1.58-9.16c-.06-1.79-.93-3.98-1.86-5.47-.63-1.02-1.71-1.2-2.11-1.92-.73-1.32-2.98-6.23-3.24-7.46-1.11-5.31,3.83-7.1-.85-12.99-.48-.61-1.28-.42-1.33-.48-1.58-1.62-5.46-4.43-5.94-5.06-1.6-2.11-1.75-7.71-4.04-10.63-1.89-2.4-5.2-3.77-8.02-4.32-.21-.04-.45.03-.67,0-.71-1.31-1.76-2.51-3.33-2.67-.09-.22-.45-.49-.67-.67-.16-1.69-1.35-2.5-2.67-3.33-.21-.13-.4-.48-.67-.67-2.87-7.39-12.32-4.06-17.37-5.63-2.74-.85-5.41-5.1-9.14-6.19-7.4-2.17-11.39.99-17.15.5-3.5-.3-5.94-2.55-10.03-2.05-4.84.6-12.4,8.79-17.3,8.76-1.59,0-3.1-.91-4.61-.72-5.53.66-11.53,11.09-16.05,14-1.64,1.05-3.28,1.04-5.04,2.3-2.58,1.85-4.84,8.01-5.66,8.34-2.05.86-1.68-.69-1.36-2.02.88-3.59,2.95-6.49,5.04-9.29.18-.25.52-.44.67-.67,2.72.56,4.37-1.15,6.31-2.69,2.62-2.08,3.93-4.13,5.69-6.65Z"/>
      <path class="cls-2" d="M43.33,138c.49.16,1.77-.2,2,0,.16.14-.15,1.17,0,1.33-.99.01-1.66-.41-2-1.33Z"/>
      <path class="cls-2" d="M63.33,67.33c.75-3.14,4.28-9.93,5.9-13.1,3.57-6.98,13.14-25.99,17.73-30.94,5.03-5.42,5.72,1.39,3.54,6.21-4.01,8.85-22.8,38.39-22.53,45.48.03.77-.32,2.22,1.01,1.68,1.62-.66,4.18-7.1,5.14-7.88.39-.32,1.02-.01,1.2-.11.18-.36.1-1.52.51-2.46,2.18-4.9,18.57-25.35,22.15-26.88-.24,1.3-.55,2.56-1.33,3.67-3.26,4.62-9.75,9.97-13.34,14.66-2.48,3.24-4.81,9.34-8,11-1.03,2.12-3.96,7.07-4.35,8.65-.55,2.21.07,4.38-.45,6.21-.26.9-4.18,4.85-2.53,6.47,1.88,1.83,2.78-3.11,3.43-4.24,3.13-5.52,5.01-11.96,8.31-17.69,2.73-4.74,7.03-10.53,10.59-14.74,2.43-2.88,13.64-13.31,14.33-15.67.82-2.83-3.47.72-3.81.86-.54.22-1.24.03-1.52.15.16-3.97,9.87-8.47,8.37-2.65-.87,3.38-10.36,12.57-13.35,16.03-5.31,6.14-15.6,18.72-18.41,26.24-.76,2.02-.33,3.96-.91,5.76-.46,1.43-2.3,2.68-2.98,4.36-.84,2.08-1.74,6.61,1.28,4.62,1.43-.94,6.11-8.98,7.32-11.01.09.1,1-.16,1.2.09,1.28,1.6-6.86,9.21-5.86,11.91,1.09,1.2,6.93-7.6,7.72-8.61.65-.83,2.19-1.19,2.62-2.05.56-1.14.2-2.74.62-4.04,1.45-4.45,15.68-14.57,19.03-18.97.29-1.37-.66-1.13-1.62-.96-3.01.52-13.24,11.46-16.7,14.01-.66.49-1.45.47-1.67.63-.2.29-.08,1.29-.63,1.67l-4.7,4.99c.25-4.11,2.77-4.85,5.33-6.67,3.64-5.31,5.03-5.46,9.67-9.33,3.89-3.25,12.05-11.03,16.34-12.99,1.65-.75,3.6-.22,5.32-.34.25,4.94-6.14,7.14-9.29,9.7-3.89,3.16-17.41,14.39-19.41,17.92-1.24,2.18.02,4.33-1.25,6.09-.54.74-2.25,1.3-3.08,2.25-6.02,6.82-7.8,10.3-15.31,16.03-2.05,1.56-3.14,4.6-3.83,5.17s-2.28.25-3.48,1.52c-1.08,1.15-.9,3.83-3.34,3.3-4.37-8.88-4.93-.63-8.38.98-.61.28-7.21,2.42-7.61,2.38-4.16-.42-4.24-8.98-7.35-8.02-1.93.6-.56,6.26-.34,8-1.88.39-1.26-.92-1.54-2.1-1.16-5.03-2.45-11.17-5.13-15.24,1.07-.24,2.74.85,2.68-1-.07-2.38-1.76-5.8-2-8.67-.31-3.69.9-7.63.63-10.57-.23-2.46-2.25-4.05-2.64-6.42,2.36.46,3.74,4.03,5.03.03s-1.21-5.45-1.66-8.4c-.64-4.2-.83-9.98-1.36-14.64-.15-1.32.83-10.08-2.02-8-1.24.91-.59,14.69-.63,17.4-.01.87-.69,1.52-.7,1.61l-1.78-17.58c1.26-2.63,1.88-5.76,2.87-8.36.37-.96.86-2.49,2.24-2.06,2.25,9.05,1.65,18.4,2.75,27.58.34,2.82,1.65,5.67,1.94,8.06.53,4.4-1.24,8.74-.63,13.3.7,5.18,3.92,11.92,4.98,17.01.38,1.83-.27,7.88,2.87,5.29,2.03-1.68-1.51-14.09-1.85-16.98-.8-6.79-.02-13.73-.42-20.26-.07-1.19-1.22-2.3,1.01-2,.37,8,.19,20.04,2.02,27.54.07.27,2.44,1.31,1.32,3.79,1.63.23,1.06-.03,1.41-.93,1.3-3.36-.6-5.24-.67-8.14-.22-8.67,1.15-17.79.63-26.63-.1-1.64-.52-8.76-2.09-5.36-.5,1.08-.89,2.93-1.21,4.16s.71,2.64-1.4,2.24c-.67-10.58,1.9-23.01,4.32-33.34.9-3.85,1.2-4.98,5.68-4.66.19,4.77-.08,9.46-.84,14.17-1.39,8.6-2.88,15.7-3.19,24.81-.3,8.78,0,17.64.7,26.37h1.99c.11-2.51-.19-5.08.08-7.59.46-4.2,1.85-9.58,2.59-14.07,2.03-12.24,4.27-23.45,9.01-34.99,1.07-2.61,3.88-10.4,7.24-9.3,3.99,1.3-2.21,12.53-2.96,14.91-5.19,16.38-7.29,34.09-12.03,50.04-1.05,3.52,1.68,8.82.63,11.89-.84,2.45-7.77.75-4.6,6.15,4.58,1.7,5.69-4.31,9.29-6.16.84-2.46-2.78-5.89-.18-11.49,3.18-6.87,2.68-9.65,4.76-16.61.34-1.14-.46-2.52,1.51-2.12-.46,1.98-.6,4.04-1.33,5.99,5.52,2.19,3.84-2.39,4.97-5.36,3.89-10.23,10.42-19.16,15.31-28.69,2.18-4.24,4.63-8.26,5.73-12.94-.69-.74-4.98,2.28-5.15,2.51-.6.83-.41,2.34-.91,3.29-4.97,9.52-10.25,21.2-15.7,30.44-.54.92-1.57,2.99-2.92,2.74ZM44.66,44.67h-1.99s0,3.33,0,3.33c2.04.18,2.17-1.68,1.99-3.33ZM32.66,90.66c.31-1.34,0-5.92-1.66-5.98-1.34-.05-2.21,6.96,1.66,5.98ZM50.66,108.67c-6.15-1.37-4.31,6.14-.94,3.39,1.02-.84,1.04-2.15.94-3.39Z"/>
      <path class="cls-2" d="M136.67,114c-9.28,10.47-23.8,8.17-36.33,9.34-16.36,1.52-28.76,17.69-47.93,13.25-5.03-1.16-11.4-4.43-13.07-9.26,5.6,4.43,10.27,7.08,17.64,7.36,18.57.7,27.18-11.37,43.37-12.68,10.24-.83,20.06-.54,30.02-4.64,2.5-1.03,3.73-2.88,6.3-3.37Z"/>
      <path class="cls-2" d="M140.67,46.67c.06.06.85-.13,1.33.48,4.68,5.9-.25,7.68.85,12.99.26,1.23,2.51,6.14,3.24,7.46.4.72,1.48.9,2.11,1.92.92,1.49,1.8,3.67,1.86,5.47.04,1.4-1.16,7.65-1.58,9.16s-2.15,3.23-2.44,4.89c-.97,5.44,1.49,12.13-1.38,17.29-.35.63-2.24,3.26-3.33,3.01.94-1.64,2.88-5.33,3.16-7.18.64-4.23-.21-8.82.26-13.07s3.42-10.17,3.31-14.09c-.13-4.45-4.68-8.26-6.04-12.01-1.65-4.53,1.12-14.03-1.35-16.32-.19-.18-2.06-.33-2.83-.82-6.32-4-5.71-7.32-8.18-13.83l-6.99-5.35c2.82.54,6.13,1.91,8.02,4.32,2.29,2.91,2.44,8.52,4.04,10.63.48.63,4.36,3.44,5.94,5.06Z"/>
      <path class="cls-2" d="M27.33,98.67c-1.25.71-5.39-2.12-5.85-2.84-.42-.66-.03-1.65-.15-1.83,2.62,1.03,4.43,2.32,6,4.67Z"/>
      <path class="cls-2" d="M122,26.67c-.84-.1-1.91.25-2.7-.3-.96-.67-.43-1.83-.64-2.37,1.57.16,2.62,1.35,3.33,2.67Z"/>
      <path class="cls-2" d="M37.33,122.67c-1.41.49-2.27-2.01-2.49-3.11-.09-.44.5-.84.49-.89,1.06.95,1.88,2.6,2,4Z"/>
      <path class="cls-2" d="M118,23.33c-.9-.72-3.17-.45-2.67-3.33,1.32.83,2.5,1.65,2.67,3.33Z"/>
      <path class="cls-2" d="M20.67,93.33c-3.08.11-2.5-.69-3.33-2,1.65.15,2.43.71,3.33,2Z"/>
      <path class="cls-2" d="M140,111.33c-.6.9-.03,2.46-2.67,2,.76-.97,1.05-2.03,2.67-2Z"/>
      <path class="cls-2" d="M38,125.33c-.25-.15-1.18.16-1.33,0-.44-.46.65-1.26.66-1.33l.67,1.33Z"/>
      <path class="cls-2" d="M126,68.01c-.39,1.52-2.47,1.48-3.32,2.34s-.75,2.22-1.64,3.03c-1.52,1.37-7.53,3.03-10.03,5.97-1.36,1.61-.73,4.1-1.11,4.56-.19.23-4.14,1.38-5.47,2.2-7.91,4.91-17.18,12.34-23.45,19.21-4.06,4.46-7.74,12.96-14.32,12.67-.16-5.11,4.42-9.04,7.65-12.67,5.2-5.84,12.38-12.65,18.38-17.62,1.61-1.33,5.11-2.75,6.58-4.09,1.58-1.44,3.14-5.17,4.23-6.1,1.81-1.54,8.46-3.69,10.73-4.94,1.31-.72,2.35-2.78,3.55-3.12,2.09-.59,5.72-.5,8.2-1.46Z"/>
      <path class="cls-2" d="M125.62,92.28c-4.54,4.29-15.32,7.35-21.4,10.28-8.27,3.98-15.79,9.33-24.22,12.77-.81-.82,2.08-4.23,2.68-4.98,8.22-10.07,26.99-17.43,39.27-20.06.93-.2,5.48-.81,5.36.71-.02.26-1.26.87-1.7,1.28Z"/>
      <path class="cls-1" d="M99.33,38.67c.28-.12.98.07,1.52-.15.34-.14,4.63-3.69,3.81-.86-.69,2.36-11.9,12.79-14.33,15.67-3.56,4.22-7.86,10-10.59,14.74-3.3,5.73-5.18,12.17-8.31,17.69-.64,1.13-1.55,6.07-3.43,4.24-1.66-1.62,2.27-5.58,2.53-6.47.52-1.83-.1-4,.45-6.21.39-1.58,3.33-6.53,4.35-8.65,3.18-1.66,5.52-7.76,8-11,3.59-4.69,10.08-10.04,13.34-14.66.78-1.11,1.09-2.37,1.33-3.67.52-.22.91-.48,1.33-.67Z"/>
      <path class="cls-2" d="M16.66,47.33c1.77,6.32,2.43,12.96,3.54,19.47.34,2.02,1.48,4.11,1.73,6.27.21,1.76.62,10.43-.93,10.92-3.01.27-2.63-5.17-3.49-7.83-.96-2.97-2.69-5.69-3.34-8.66-.45-2.06-1.76-15.04-1.36-16.37.21-.71,3.58-4.02,3.86-3.8Z"/>
      <path class="cls-1" d="M63.33,67.33c1.35.24,2.37-1.82,2.92-2.74,5.45-9.24,10.73-20.92,15.7-30.44.5-.96.31-2.46.91-3.29.17-.24,4.46-3.25,5.15-2.51-1.09,4.68-3.55,8.69-5.73,12.94-4.89,9.53-11.42,18.47-15.31,28.69-1.13,2.97.55,7.54-4.97,5.36.73-1.95.87-4.01,1.33-5.99.13-.58-.14-1.43,0-2Z"/>
      <path class="cls-1" d="M39.33,61.33c2.11.4,1.09-1.06,1.4-2.24s.71-3.08,1.21-4.16c1.57-3.4,2,3.72,2.09,5.36.52,8.84-.85,17.95-.63,26.63.07,2.9,1.97,4.77.67,8.14-.35.91.23,1.16-1.41.93,1.12-2.48-1.25-3.52-1.32-3.79-1.83-7.5-1.65-19.54-2.02-27.54-.05-1.11.07-2.23,0-3.33Z"/>
      <path class="cls-2" d="M127.81,107.51c2.49,2.56-1.45,3.8-3.51,4.45-5.37,1.68-11.38,1.78-16.64,4.09-2.74.72-5.12-2.99-3-5.07.41-.4,7.66-2.9,8.81-3.18,3.27-.8,12-2.71,14.35-.28Z"/>
      <path class="cls-1" d="M86,74c.22-.16,1.01-.14,1.67-.63,3.45-2.55,13.69-13.49,16.7-14.01.97-.17,1.91-.41,1.62.96-3.35,4.4-17.58,14.53-19.03,18.97-.43,1.3-.06,2.9-.62,4.04-.42.86-1.96,1.22-2.62,2.05-.8,1.01-6.63,9.81-7.72,8.61-1-2.69,7.14-10.3,5.86-11.91-.2-.25-1.1,0-1.2-.09-.06-.06-.02-.99,0-1.33l4.7-4.99c.55-.38.43-1.39.63-1.67Z"/>
      <path class="cls-1" d="M26.67,72.67c-.21-1.31.02-3.22,0-4.67,0-.08.64-.54.64-1.54,0-1.31-.53-5.36-1.97-4.46,0-.44,0-.89,0-1.33,0-.09.68-.74.7-1.61.04-2.71-.61-16.49.63-17.4,2.85-2.08,1.87,6.68,2.02,8,.53,4.65.72,10.43,1.36,14.64.45,2.96,2.88,4.6,1.66,8.4-1.29,4-2.67.43-5.03-.03Z"/>
      <path class="cls-2" d="M25.33,62c1.44-.9,1.96,3.16,1.97,4.46,0,1-.64,1.45-.64,1.54-.97-1.54-1.35-4.21-1.33-6Z"/>
      <path class="cls-1" d="M50.66,108.67c.1,1.24.08,2.55-.94,3.39-3.37,2.76-5.21-4.76.94-3.39Z"/>
      <path class="cls-1" d="M32.66,90.66c-3.87.98-3-6.04-1.66-5.98,1.67.07,1.97,4.64,1.66,5.98Z"/>
      <path class="cls-1" d="M44.66,44.67c.18,1.65.05,3.51-1.99,3.33v-3.33s1.99,0,1.99,0Z"/>
    </g>
  </g>
</svg>