<?xml version="1.0" encoding="UTF-8"?>
<svg id="Layer_2" data-name="Layer 2" xmlns="http://www.w3.org/2000/svg" viewBox="0 0 178.67 170">
  <defs>
    <style>
      .cls-1 {
        fill: #f9f8f4;
      }

      .cls-2 {
        fill: #efeeeb;
      }
    </style>
  </defs>
  <g id="Layer_1-2" data-name="Layer 1">
    <g>
      <path class="cls-1" d="M98,0c-.79,2.21,6.43,1.98,5.33,0h1.33c1.1,2.24,5.21,1.82,7.69,3.3,2.07,1.23,3.19,3.25,4.31,4.01,1.38.93,1.84,2.18,4,3.32,6.95,3.68,4.85-.25,10.41-.63,9.71-.66,13.52,11.24,19.59,16.57,1.55,1.36,2.91,1.63,3.33,1.99,8.93,7.63,4.61,7.43,9.71,14.56,1.89,2.64,4.9,3.28,6.73,5.92,3.76,5.43,2.01,14.78,8.23,18.04v7.3l-27.44,47.37c-4.94,5.24,1.97,10.52.44,13.71-.28.59-8.29,8.39-9.36,9.28-4.7,3.93-10.37,6.49-15.45,9.85l-33.53,15.41h-10c-4.62-4.76-8.73-12.89-10.67-19.26-.06-.2.05-.45,0-.66v-.66c1.78-.08,3.84.73,3.33-1.33,1.98-.25,4.02-.38,6-.66-.03.21.02.45,0,.66-.1,1.09.07,2.22,0,3.32-1.84.17-2.08.02-4,.66-.64.21-2.54-.61-1.99.98,6.2,2.05,4.07,9.48,9.99,11.63,3.52,1.28,3.67.46,6.67,0,10.13-1.54,24.93-8.04,31.34-16.24.66-6.52-28.33-15.39-32.26-19.04-1.78-1.65-.35-1.81-.41-1.91h2.67c.48.23,1.36.43,2,.66.4.15,2.13,2.33,2.67.99.24-2.25-2.02-2.33-2.67-2.98-2.26-2.26-5.07-4.08-6.85-6.83-1.13-3.79,2.48-1.04,2.86-2.81,1.06-5.04-38.37-53.78-43.87-61.87-3.32-4.88-8.12-11.37-10.13-16.81-.21-.57-.65-1.26-.67-1.33-.05-.21.04-.45,0-.66s.02-.45,0-.66c-.02-.33-.73-1.09-.67-1.33h1.33c.1.17-.1.52,0,.66.45.63.3.86,1.33,1.99,24.53,26.89,37.23,53.56,57.99,80.5,6.8,8.82,21.75,17.11,28.68,27.08l1.34-.36c.12-.9-.67-1.54-.67-1.63,0-.84.12-1.87,0-2.66-.17-1.09-.65-1.88-.67-1.99-.66-3.71-1.61-6.67-2-10.62-.13-1.29-.66-1.89-.67-1.99-.05-.66.03-1.33,0-1.99-.13-3.27.44-5.62.67-8.63l1.33-.66h.67c.11.86-.1,1.79,0,2.66.16,1.35.57,2.54.67,3.32.14,1.16.57,2.3.67,3.32.03.27-.15,1.19,0,2.66s.53,2.73.67,3.98v4.65c.11,1.09-.09,2.23,0,3.32.16,1.85.03,2.08.67,3.98.26.79-.73,2.33.99,1.98.78-.38,1.39-2.98,1.68-3.98.35-1.19,1.68-2.67,0-3.98.19-.73.71-.72,1.33-.66.15,1.2-.88,4.75.99,4.65.98-1.3.7-3.21,1.01-4.65.05-.21-.05-.45,0-.66.45-2.1-.02-2.5,0-2.66.07-.5.57-1.22.67-1.99.06-.47.52-1.45.67-2.66.08-.64-.02-1.34,0-1.99h2.67c-.17.76.14,1.85,0,2.66-.11.6-.5,1.38-.67,2.66-.09.64.09,1.35,0,1.99-.11.81-.54,1.81-.67,3.32-.02.22.02.44,0,.66-.02.21-1.34,2.14-.66,3.32,1.25.39,1.25-.62,1.33-.66.08-.05.9-.95,1.33-1.33.87-.76,2.64-.18,2-2.66.73-.96,2.98-3.87,3.33-4.65.77-1.72.83-2.63,1.33-3.98,2.88-7.72,2.94-12.44,7.33-20.59.28-.52.91-1.28,1.33-1.99.74-1.25,1.51-1.9,2-2.66.35-.55.52-1.1.67-1.33.16-.25.51-.42.67-.66s.5-.41.67-.66c2.01-3.06,4.74-5.68,6.67-8.63.44-.68.87-1.26,1.33-1.99.42-.67.94-1.34,1.33-1.99.35-.58.73-.85,1.33-1.99,1.37-2.6,3.39-6.51,4-9.3.72-3.31.76-2.62,0-5.98-.02-.07-.51-.99-.67-1.33-.65-1.37-.75-1.62-2-2.66-.25-.44-.51-1.11-.67-1.33.67-2.16-1.17-2.97-2.67-1.33-.33.36-3.99,8.51-4.03,9-.21,2.48,1.98,2.15,2.03,2.29.12.32-.08.92,0,1.33-.04.24.07.52,0,.66-.06.13-2.34.06-2,1.99-2.92,4.26-5.96,8.89-8.67,13.28-.41.67-.91,1.28-1.33,1.99-5.15,8.57-11.36,18.85-14,28.55-.79.39-.95,1.56-1.33,1.99-.23.26-.98.4-1.33.66,0-.43-.05-.9,0-1.33.02-.22-.01-.44,0-.66.05-.83-.01-1.89,0-1.99.14-.93.66-1.25.67-1.33.19-1.27.45-2.7.67-3.98.26-1.5.23-2.24.67-3.98.2-.8,1.72-2.24,0-3.32.1-.44.58-.93.67-1.33.17-.8.46-1.79.67-2.66.47-2,.82-3.96,1.33-5.98.35-1.38,1.71-3.14,0-4.65.09-.53.52-1.26.67-1.99.21-1.09.45-2.2.67-3.32.04-.21-.05-.45,0-.66.23-1.06.42-2.32.67-3.32,2.75-11,7.52-25.04,11.33-35.86.37-1.05.5-3.12,2-2.66.2.18.6.51.67.66l.67,4.65c0,.35-.6,1.28-.67,1.99,0,.07-.54.42-.67,1.33-.03.22.03.45,0,.66-.08.5,0,.63,0,.66-.04.21.04.45,0,.66-.04.17-.47,1.15-.67,1.99-3.09,13.39-9.66,26.19-12.67,38.52-.39,1.59-.98,2.02.01,3.98,2.07.4,1.01-.75,1.32-1.32,6.41-11.9,11.75-24.61,18.53-36.33,1.68-2.91,4.81-2.43,4.86-6.48.08-6.69-5.98-7.37-8.33-11.04-1.86-2.9-1.61-8.22-4.34-10.95-3.22-3.21-10.67-2.34-12.39-8.25l-1,5.97c-.09.51-.48,1.54-.67,2.66-.14.85.12,1.8,0,2.66-2.05,2.11-1.83,7.16-2,9.96-.01.22,0,.44,0,.66-2.52,1.43-.64,3.93-.67,4.65-.02.44.02.89,0,1.33-1.77,1.9-1.22,4.38-1.33,6.64-.02.44,0,.89,0,1.33-2.92-.46-.73,2.84-.67,3.98.02.43.03.9,0,1.33l-.67,2.66c0,.07-.55-.29-.67,1.33-.13,1.75.13,3.56,0,5.31-.07.88.07,1.78,0,2.66-2.01-.38-1.3,1.01-1.34,2.29-.15,4.92-1.3,10.29,0,14.98-.08,1.2-.61,2.37-.67,3.32s-1.28,4.37-1.33,5.31c-.54-.82-.61-1.71-.67-2.66v-4.65c-.01-1.11,0-2.21,0-3.32-.03-5.72-.2-11.55,0-17.27,0-.22,0-.44,0-.66v-5.31c.06-.95.54-2.17.67-3.32.08-.77.53-1.87.67-3.32.04-.43,0-.89,0-1.33,1.23-.9.52-2.76.67-3.98.05-.43-.06-.9,0-1.33.05-.34.51-1.54.67-2.66.06-.43-.07-.9,0-1.33.07-.45.49-1.59.67-2.66.11-.62-.11-1.37,0-1.99.02-.11.48-1.04.67-1.99.04-.21-.04-.45,0-.66.03-.17.47-1.13.67-1.99.25-1.12.36-2.13.67-3.32,1.43-.81,1.02-2.19,1.33-3.32.24-.87.42-1.76.67-2.66.02-.07.45-.5.67-1.33.05-.21-.05-.46,0-.66.1-.39.48-.82.67-1.99.18-1.09.64-3.16.67-3.98.03-1.21.8-.47,0-3.32-.75-2.69-5.44-7.4-8-7.97h-2.67c-2.05.59-2.7,4.92-3.33,6.64-.46,1.26-.41,1.76-.67,2.66-.06.2.05.46,0,.66-.25.96-.47,1.61-.67,2.66-.08.42.08.91,0,1.33-.02.13-.49.93-.67,1.99-.1.64.09,1.35,0,1.99-.06.4-.52,1.41-.67,2.66-.1.86.1,1.79,0,2.66h-.67c.2-1.67-.63-1.06-1.33-1.33-.2-.08-.42-.51-.67-.66.15-3.44.38-4.27,0-7.97,1.84-1.44.14-3.56,0-4.65-.11-.85-.48-1.78-.67-2.66-.03-.13.85-.27,0-2.66-.57-1.59-1.97-5.11-3.33-5.98-1.66-1.06-2.99-.46-3.33-.66-7.57-4.38-7.62-5.06-16.67-5.31h-6.67c-.22.03-.45-.03-.67,0-1.08.17-1.72.43-2.67.66-7.92,1.92-5.62,5.14-15.33,2.66-.07-.02-.57-.45-1.33-.66-.21-.06-.46.05-.67,0-.89-1.88-1.86-1.57-3.33-.66-.99.61-2.19,3.04-4.2,4.11-5.5,2.93-12.9,3.94-17.75,7.55-4.46,3.32-5.52,8.04-9.02,11.6-3.24,3.3-7.97,3.7-10.36,8.61-.9,1.86.04,1.9,0,1.99-.21.47-.4,1.31-.67,1.99-.75,1.9.06,1.91,0,1.99-2.19,3.2-4.81,2.03-6.67,3.32-3.57.03,1.81-2.54-1.33-3.32,3.77-5.04,4.84-10.64,7.58-13.7,2.4-2.69,7.08-3.33,9.14-5.18,5.5-4.96.59-8.63,11.95-12.33h2.67c2.35-.81,4.3-.51,6.89-2.1,1.79-1.1,4.01-4.12,5.78-5.87.89-.88,1.84-1.71,2.67-2.66,10.4-5.02,7.72-.34,15.18,1.21,5.83,1.21,7.55-1.63,9.9-2.46s7.08-1.56,8.26-3.4h1.33Z"/>
      <path class="cls-1" d="M7.33,70.39c-.64,1.44-1.53,2.88-2,3.98l-.67.66c-.07.2.06.46,0,.66v1.33c-.11.58-.71,1.34-.67,1.99v2.66c.54,1.74,3.61,2.88,4.01,5.02.55,2.99-1.83,5.34-2.01,6.93l-.67,1.99c-.21,1.86,2.59,22.5,3.14,23.71,1.45,3.23,7.14,3.4,8.19,4.84-1.84,1.99-.26,3.72.67,5.31,4.35,7.45,19.24,15.04,27.33,17.27v.66l-.67.66c-.79-.16-1.85.14-2.67,0-7.46-1.24-13.47-2.7-20-6.64-.37-1.64-1.95-1.5-2.67-1.99-3.55-2.44-3.07-3.39-4.67-6.64.05.06,1.2.27,1.34-.34.46-1.97-2.38-.9-1.34.34-1.07-2.17-.32-3.7-1.4-5.58-.93-1.61-3.51-2.33-5.26-4.39l-2-3.32c-.44-1.5-.45-1.82-.67-3.32l.67-1.99c-.72-3.83-2.44-7.5-2.71-10.27-.69-6.93,5.28-14.44-2.62-19.61v-7.97c1.87-1.58,4.76-5.88,6-7.97l1.33,1.99Z"/>
      <path class="cls-2" d="M103.33,0c1.09,1.98-6.12,2.21-5.33,0h5.33Z"/>
      <path class="cls-1" d="M78,16.6c2.88.74,4.94,7.36,5.33,9.96.11.71-.22,1.59.67,1.99.65,2.89,3.73,15.93,5.39,17.25.49.39,1.06-.57,1.27-.65.32-.11.92.08,1.33,0,1.74,2.85,2.73,6.02,3.33,9.3-.15,4.11-.11,7.88.67,11.95.88,4.67,3.82,14.44,5.33,19.26l.67,1.99c2.37,7.37,5.88,14.64,8.67,21.91l.67,1.99c.68,1.79,1.25,3.46,1.67,5.32,2.31-.19.41-4.23.33-5.32l-.67-6.64c-.06-.43.06-.9,0-1.33l-.67-1.33c-.08-.64.09-1.35,0-1.99l-.67-1.99c-.1-.75-.61-1.51-.67-1.99v-7.3c.07-.41-.12-1.14,0-1.33h.67c2.45,3.2,6.3,17.02,6.67,21.25-1.63,1.75-.51,3.53,0,5.31.55,1.92,3.44,6.26,2,7.97h-2.67c-2.58-1.22-.87-1.58-1.33-1.99.35.35,2.54.67,0-1.33-.06-.04.17-1.28-.46-1.32-2.42-.56-3.12.67-1.54,2.65-.17.26.12,1.45,0,1.99-2.13,1.72-11.78-21.62-12.47-23.76-1.2-3.72-1.29-8.67-2.19-11.43l-.67-2.66c-4.29-13.03-21.94-56.2-21.33-66.41.03-.55.08-1.08.67-1.33Z"/>
      <path class="cls-1" d="M16.67,60.43c10.97,5.22,18.29,15.21,27.33,22.92,6.77,5.77,14.49,10.53,21.1,16.5,8.96,8.08,15.81,19.77,26.24,26.33-.53-.95-1.04,1.64-3.15.81-3.2-1.25-10.79-8.7-13.52-11.44.08-.37-.12-1.22,0-1.33.27-.25,1.87.67,1.33-1.32-1.78-.79-1.24,1.35-1.33,1.32-1.84-.46-1.96-1.14-3.33-1.99-8.05-4.99-19.67-19.26-27.33-26.24-9.28-8.46-20.64-14.37-28.01-24.9l.67-.66ZM74,112.22c.22-.26-.39-.71-.67-.99-1.57-1.03-.41,2.27.67.99Z"/>
      <path class="cls-1" d="M60,23.91c3.97,1.13,9.28,18.73,11.43,22.81,2.03,3.85,17.35,23.91,11.75,26.83-2.53,1.32-4.92-1.04-5.84-3.16l-.67-.66c-.08-.18.08-.48,0-.66-.04-.09,2.13.45,1.33-1.32-.86-.11-2.66-.18-3.15-.87-1-1.43-13.42-28.22-13.76-29.83-.56-2.64,1.06-4.42.91-4.83-.21-.55-8.91-2.34-6-7.65,1.19.7,3.81-.72,4-.66Z"/>
      <path class="cls-1" d="M14,101.6c13.39,1.16,59.74,24.85,73.33,32.54-.4.6-.42,1.35-.67,1.99-.08.2-.61,1.28-.67,1.33h-.67c-15.19-6.73-29.45-15.44-44.53-22.38-4.91-2.26-26.6-9.24-28.13-12.15l1.33-1.33Z"/>
      <path class="cls-1" d="M74.67,119.53l-1.33.66c-12.86-4.47-17.87-10.73-28.64-16.3-10.27-5.31-26.15-7.2-30.02-20.22,4.66.22,8.27,2.71,12.18,4.79,6.05,3.22,45.33,27.97,47.81,31.07Z"/>
      <path class="cls-1" d="M99.33,11.95c2.63,2.97,4.12,10.02,4.67,13.95.07.54.04,1.09.67,1.33.05.43-.01.89,0,1.33.01.49-1.28,1.62.67,2.66.38,2.26.5,3.72.67,5.98.23,3.1-.62,6.46,1.33,9.3.01.22-.01.44,0,.66.13,2.4-1.02,8.5,1.33,7.97.03.44-.02.89,0,1.33-1.44,2.71-.39,6.33-.67,9.3-.02.22.03.45,0,.66l-1.33,1.33c-1.98-3.7-2.22-8.63-3.33-12.62l-.67-1.99c-.9-3.65-2.05-6.83-2.67-10.62l-.67-1.33c-.06-.43.05-.9,0-1.33-.52-4.29.63-9.1-1.33-13.28-.05-1.93-.67-3.96-.67-5.31,0-.5.4-11.27,2-9.3Z"/>
      <path class="cls-1" d="M47.32,70.4c7.74,11,19.86,18.33,28.35,28.54,1.6,1.93,9.57,11.11,6.34,12.32s-36.4-35.96-36.61-39.3c-.07-1.11.88-1.75,1.92-1.57Z"/>
      <path class="cls-1" d="M121.33,54.45c.17.05.42.52.67.66.12,7.76.85,14.94,1.33,22.58.16,2.47.49,4.86.67,7.3v5.31c.09,1.09-.08,2.22,0,3.32.14,1.85.58,3.92.67,5.31.08,1.19.58,2.31.67,3.32v3.32c.04.88,0,1.77,0,2.66-.12-.12-.96.08-1.33,0h-.67c-.01-.18-.6-.77-.67-1.33.87-.47.8-1.83.67-2.66-.07-.42.1-.99,0-1.33l-1.33-1.99c-.27-1.2-.49-2.04-.67-3.32-.19-1.4.64-3.22-1.33-3.98-.32-1.27-.47-2.01-.67-3.32l-.67-1.99c-.04-.43.02-.89,0-1.33s1.93-2.47-.67-3.32c-.46-3.68-.32-4.41,0-7.97.4-4.43,1.28-7.56,1.33-12.62,0-.22,0-.44,0-.66,1.25-1.51.62-4.11.67-5.98.02-.66-.03-1.33,0-1.99.42.07.97-.1,1.33,0Z"/>
      <path class="cls-1" d="M94,138.12c2.97.78,7.59,3.92,12,5.31,1.03.33,1.87,1.15,3.33.66.66.2,1.32-.2,2,.66.04,2.29.6,3.03-2,2.66-5.07-.05-15.57-5.28-20-7.97,1.3-2.18,2.51-1.89,4.67-1.33Z"/>
      <path class="cls-2" d="M123.33,44.49v-5.98h.67c-.21,1.85.71,4.52-.67,5.98Z"/>
      <path class="cls-2" d="M122,37.19c.28,1.49-.94,8.79,1.33,7.3v33.2c-.49-7.64-1.21-14.82-1.33-22.58-.04-2.65.04-5.32,0-7.96l-.66,7.3c-.36-.1-.92.07-1.33,0,.31-5.99,1.07-11.91,1.33-17.93.25.15.47.59.67.66Z"/>
      <path class="cls-2" d="M44.67,130.82c-1.76.06-1.43,1.26-2.67,1.99-.2-.06-.46.06-.67,0,.79-2.63-2.35-3.02-2-.66-1.07-.36-17.14-4.04-14-5.97l19.33,4.64Z"/>
      <path class="cls-1" d="M91.33,149.41v.66c-1.29.12-1.52-.46-1.33,1.33-.44-.02-.89.01-1.33,0,.52-2.11-2.59-1.98-2,0-.44.01-.89-.02-1.33,0l-2-1.33c-.25-2.26.98-.44.67-1.99-.51-2.5.57-1.1-1.33-1.99-.77-.36-2.96-1-4-1.33v-.66c2.13-5.94,9.76,4.6,12.67,5.31Z"/>
      <path class="cls-2" d="M45.33,130.82c2.95.22,9.8,1.58,8,5.31,2.38-1.18,3.05-3.47,5.99-.67-6.39,3.43-9.43-.37-15.33-1.98h.67c1.74.35,1.83-.74.67-1.99v-.66Z"/>
      <path class="cls-2" d="M76,148.09c.51,2.06-1.55,1.25-3.33,1.33-5.75.25-11.62-.46-17.34.33l17.34.33c.05.21-.06.46,0,.66l-24.66-1.32c9.47-1.82,18.09-.11,28-1.34Z"/>
      <path class="cls-2" d="M65.23,136.92c.23.18.96,3.39,2.77,4.52l-9.33-2.66c2.88-1.28,1.65-5.66,6.56-1.86Z"/>
      <path class="cls-2" d="M16.67,46.48c3.14.78-2.23,3.35,1.33,3.32-.88.61-2.62,1.94-3.33,2.66-.22.22-.47.42-.67.66-.78.96-.89,2.26-1.33,3.32-2.62-2.5,2.84-2.87-.67-4.65,2.01-4.03,3.22-3.37,4.67-5.31Z"/>
      <path class="cls-2" d="M12,63.75h-.67c.1-1.31-.15-2.69,0-3.98.05-.43-.08-.94,0-1.33s.65-.61.67-.66c-.23,1.84.32,4.26,0,5.98Z"/>
      <path class="cls-2" d="M9.33,62.42c-.32,1.77.43,1.36,2,1.33v.66c-1.05,3.47-3.41,4.65-4,5.98l-1.33-1.99c1.13-1.89,2.27-4.03,3.33-5.98Z"/>
      <path class="cls-2" d="M94,138.12c-2.15-.57-3.36-.85-4.67,1.33-.47-.28-2.12.19-2.66-1,1.99-.52,1.82-1.39,0-2.32.25-.64.27-1.39.67-1.99,2.09,1.18,4.96,1.58,6.67,3.98Z"/>
      <path class="cls-2" d="M91.33,149.41c3.47.85,9.95-.55,13.99,1.34l-2.66,2.65c-1.29-.36-3.09-1.27-3.33-1.33,1.16-.2,1.56.55,1.33-1.32-3.04-.61-6.23-.97-9.33-.67v-.66Z"/>
      <path class="cls-2" d="M82,151.41c1.09-.1,2.23.06,3.33,0,.44-.02.89.01,1.33,0,.66-.02,1.34-.02,2,0,.44.01.89-.02,1.33,0,3.54.2,5.6-.16,9.33.66-6.05,1.06-14.94-.78-21.33,0,1.92-.64,2.16-.49,4-.66Z"/>
      <path class="cls-1" d="M102.67,153.4l3.86-.77-.21-1.2c2.82,1.31,7.29,2.55,1.68,3.97-2.53-.54-3.87-1.59-5.33-1.99Z"/>
      <path class="cls-1" d="M12,51.8c3.5,1.78-1.95,2.15.67,4.65-.19.46-.59,1.05-.67,1.33-.02.06-.58.27-.67.66-3.26.2-.27-4.76.67-6.64Z"/>
      <path class="cls-2" d="M99.33,39.84c-1.84-4.23-1.23-8.85-1.33-13.28,1.96,4.18.81,8.99,1.33,13.28Z"/>
      <path class="cls-2" d="M124,114.22c-.22,3.01-.8,5.37-.67,8.63-1.71-4.76.33-9.61,0-14.61h.67c-.1,1.98.15,4.01,0,5.98Z"/>
      <path class="cls-2" d="M118,75.7l1.33-12.62c-.06,5.06-.94,8.19-1.33,12.62Z"/>
      <path class="cls-2" d="M97.33,21.25v-10.63c2.82-.57,1.68.97,2,1.33-1.6-1.97-2,8.8-2,9.3Z"/>
      <path class="cls-2" d="M96,66.41c-.77-4.08-.82-7.84-.67-11.95.75,4.07.83,7.84.67,11.95Z"/>
      <path class="cls-2" d="M107.33,46.48c-1.96-2.83-1.11-6.2-1.33-9.3,1.22,2.8,1.18,6.29,1.33,9.3Z"/>
      <path class="cls-2" d="M108,65.74c.27-2.97-.77-6.59.67-9.3.14,2.79.47,6.73-.67,9.3Z"/>
      <path class="cls-2" d="M17.33,129.49c-.93-1.59-2.51-3.32-.67-5.31,1,1.36.63,3.7.67,5.31Z"/>
      <path class="cls-2" d="M110.67,96.29c-.33-2.77-.5-4.51,0-7.3v7.3Z"/>
      <path class="cls-1" d="M44.67,130.82c.22,0,.45-.02.67,0v.66l-.67,1.99h-.67c-.72-.2-1.34-.47-2-.66,1.24-.73.91-1.93,2.67-1.99Z"/>
      <path class="cls-2" d="M108.67,55.12c-2.35.53-1.21-5.57-1.33-7.97.61,2.1,1.2,5.85,1.33,7.97Z"/>
      <path class="cls-2" d="M114,120.2c-1.59-1.98-.88-3.21,1.54-2.65.64.04.41,1.28.46,1.32.08.38-.11,1.22,0,1.33-.56-.5-.77-1.39-1.01-1.33-1.63-.38-.7.89-.99,1.33Z"/>
      <path class="cls-2" d="M92.67,164.69c-2.99.46-3.14,1.28-6.67,0h6.67Z"/>
      <path class="cls-2" d="M97.33,6.64c-1.99-.06-4.79-.24-6.67,0h6.67Z"/>
      <path class="cls-2" d="M44,148.09c.83.17,1.48.2,2,1l-4.66-1c.82.14,1.88-.16,2.67,0Z"/>
      <path class="cls-2" d="M96,126.17c.65.65,2.91.73,2.67,2.98-.55,1.34-2.28-.84-2.67-.99v-1.99Z"/>
      <path class="cls-1" d="M39.33,132.15c-.35-2.36,2.79-1.96,2,.66-.7-.22-1.32-.43-2-.66Z"/>
      <path class="cls-2" d="M118.67,86.99c-1.15-.72-.54-2.28-.67-3.32,2.59.85.65,2.9.67,3.32Z"/>
      <path class="cls-2" d="M119.33,62.42c0-1.84-.55-4.49.67-5.98-.05,1.86.58,4.47-.67,5.98Z"/>
      <path class="cls-2" d="M71.33,138.8l-3.32.65c-.47-2.37,1.63-1.01,3.32-.65Z"/>
      <path class="cls-2" d="M74.67,119.53c.44.55,1.91.94,2,1.98-1.58.61-2.63-1.08-3.33-1.32l1.33-.66Z"/>
      <path class="cls-2" d="M118,114.22c-.51-1.78-1.63-3.56,0-5.31.15,1.74-.11,3.56,0,5.31Z"/>
      <path class="cls-2" d="M121.33,97.62c-1.27-1.06-.99-2.63-1.33-3.98,1.98.76,1.14,2.58,1.33,3.98Z"/>
      <path class="cls-2" d="M82.67,146.09c1.9.89.82-.51,1.33,1.99h-2c.02-.22-.03-.45,0-.66.04-.26.68-.84.67-1.33Z"/>
      <path class="cls-2" d="M121.33,28.55c-.16-1.52.11-3.12,0-4.65.14,1.09,1.84,3.21,0,4.65Z"/>
      <path class="cls-2" d="M44.67,146.76c2.14.59,5.19.15,7.34,1l-7.34-.33v-.66Z"/>
      <path class="cls-2" d="M60,23.91c-.19-.06-2.81,1.36-4,.66l4-.66Z"/>
      <path class="cls-2" d="M113.33,111.56c-.17-2.25-.36-4.42-.67-6.64l.67,6.64Z"/>
      <path class="cls-2" d="M105.33,31.21c-1.94-1.04-.65-2.17-.67-2.66,1.07.55.53,1.82.67,2.66Z"/>
      <path class="cls-2" d="M94,127.5h-2.67c-.15-.27.14-1.07,0-1.33.31.19,2.12,1.07,2.67,1.33Z"/>
      <path class="cls-2" d="M108,66.41c-.09.63.04,1.42-.32,2l-1,.66c-.1-.41.12-1.08,0-1.33l1.33-1.33Z"/>
      <path class="cls-2" d="M117.33,12.62l-3.33-.66c.35.2,1.67-.39,3.33.66Z"/>
      <path class="cls-2" d="M109.33,144.1c-1.47.49-2.3-.34-3.33-.66,1.43-.47,2.3.35,3.33.66Z"/>
      <path class="cls-2" d="M123.33,102.93c-.05-.16-.62,1.23-1.33-1.99l1.33,1.99Z"/>
      <path class="cls-2" d="M14,101.6l-1.33,1.33c-.3-.58-1.05-.85-.66-1.99.96-.43,1.77.64,2,.66Z"/>
      <path class="cls-2" d="M108,155.39l3.33.66c-1.39.56-2.47-.47-3.33-.66Z"/>
      <path class="cls-2" d="M38,34.53c1.78-.31,1.37.43,1.33,1.99-1.03-1.13-.88-1.37-1.33-1.99Z"/>
      <path class="cls-2" d="M99.33,86.99c-.36-1.12-.45-1.99-.67-2.66l.67,2.66Z"/>
      <path class="cls-2" d="M78,16.6c-.59.25-.63.78-.67,1.33-1.99-2.85-.45-1.61.67-1.33Z"/>
      <path class="cls-2" d="M90.67,45.16c.71-3.79,1.16-.29,1.33,0-.41.08-1.01-.11-1.33,0Z"/>
      <path class="cls-2" d="M90,6.64l-2.67.66c.95-.23,1.58-.49,2.67-.66Z"/>
      <path class="cls-2" d="M70,9.3c-1.09-.28-2.08-.95-3.33-.66,1.48-.91,2.44-1.22,3.33.66Z"/>
      <path class="cls-2" d="M120,122.19c-1.15,1.37-1.57.52-2.67,0h2.67Z"/>
      <path class="cls-2" d="M109.33,147.42c2.6.37,2.04-.36,2-2.66,2.69,3.42-.61,2.67-2,2.66Z"/>
      <path class="cls-2" d="M120.67,21.25v-2.66c.85,2.39-.03,2.53,0,2.66Z"/>
      <path class="cls-2" d="M4,81.68v-2.66c.05.79-.18,2.08,0,2.66Z"/>
      <path class="cls-2" d="M122.67,106.91c-.11-.86-.22-2.16.67-2.66.13.82.2,2.18-.67,2.66Z"/>
      <path class="cls-2" d="M126.67,139.45l-.67-1.99c.02.11.5.9.67,1.99Z"/>
      <path class="cls-2" d="M25.33,42.5c.04-.09-.9-.13,0-1.99v1.99Z"/>
      <path class="cls-2" d="M21.33,141.45c-1.01-.61-1.84-.78-2.67-1.99.72.49,2.3.35,2.67,1.99Z"/>
      <path class="cls-2" d="M103.33,55.12c-.14-.51-.44-1.06-.67-1.99l.67,1.99Z"/>
      <path class="cls-2" d="M126,144.1l.67-1.99c0,.1.79.73.67,1.63l-1.34.36Z"/>
      <path class="cls-2" d="M111.33,111.56l-.67-1.99c.26.68.43,1.36.67,1.99Z"/>
      <path class="cls-2" d="M112,100.27c-.01-.1-.51-.86-.67-1.99l.67,1.99Z"/>
      <path class="cls-2" d="M84,28.55c-.89-.4-.56-1.29-.67-1.99.9.43.51,1.31.67,1.99Z"/>
      <path class="cls-2" d="M78.67,144.1v.66c-1.16-.37-3.02-.13-4.01-1l4.01.33Z"/>
      <path class="cls-2" d="M4.67,116.21c-.22-1.5.69-1.89.67-1.99l-.67,1.99Z"/>
      <path class="cls-2" d="M74.67,114.22c.09.02-.45-2.12,1.33-1.32.54,1.99-1.05,1.08-1.33,1.32-.12.1.08.96,0,1.33-1.03-1.03-2.69-1.74-3.33-3.32,1.38.85,1.49,1.53,3.33,1.99Z"/>
      <path class="cls-2" d="M5.33,95.62l.67-1.99c-.14,1.21-.65,1.89-.67,1.99Z"/>
      <path class="cls-2" d="M24.67,46.48c.06-.08-.75-.1,0-1.99v1.99Z"/>
      <path class="cls-2" d="M5.33,119.53l2,3.32c-1.48-1.74-1.19-.53-2-3.32Z"/>
      <path class="cls-2" d="M119.33,90.31c-.02-.1-.54-.74-.67-1.99l.67,1.99Z"/>
      <path class="cls-2" d="M16.67,60.43l-.67.66c-1.72-.7-.03-2.38.67-.66Z"/>
      <path class="cls-2" d="M102,87.66l-.67-1.99c.2.63.45,1.32.67,1.99Z"/>
      <path class="cls-2" d="M124,126.84l-.67-1.99c0,.1.54.71.67,1.99Z"/>
      <path class="cls-2" d="M100,42.5c-.01-.07-.52-.31-.67-1.33l.67,1.33Z"/>
      <path class="cls-2" d="M38,37.85l-.67-1.33c.02.07.46.76.67,1.33Z"/>
      <path class="cls-2" d="M104.67,27.23c-.62-.24-.59-.79-.67-1.33.61.26.61.78.67,1.33Z"/>
      <rect class="cls-2" x="70.67" y="142.12" width="1.32" height=".65"/>
      <rect class="cls-2" x="77.34" y="141.45" width="1.32" height=".65"/>
      <path class="cls-2" d="M4.67,77.03v-1.33c-.1.37.08.92,0,1.33Z"/>
      <path class="cls-2" d="M72,9.96l-1.33-.66c.76.22,1.26.65,1.33.66Z"/>
      <rect class="cls-2" x="68.67" y="141.45" width="1.32" height=".65"/>
      <rect class="cls-2" x="74" y="140.13" width="1.32" height=".65"/>
      <path class="cls-2" d="M112.67,103.59c-.01-.07-.53-.3-.67-1.33l.67,1.33Z"/>
      <path class="cls-2" d="M85.33,137.46h.67c-.2.15-.24,1.3-.67,0Z"/>
      <polygon class="cls-2" points="76.33 140.78 76.67 141.11 76.33 141.45 76.33 140.78"/>
      <path class="cls-1" d="M11.33,59.77c-.15,1.3.1,2.68,0,3.98-1.57.03-2.32.44-2-1.33.6-1.09.15-3.05,2-2.66Z"/>
      <path class="cls-1" d="M11.33,64.41v-.66h.67c-.04.2-.6.46-.67.66Z"/>
      <polygon class="cls-2" points="76.67 69.06 76 68.73 76.33 68.4 76.67 68.73 76.67 69.06"/>
      <path class="cls-2" d="M38,33.87h-1.33c.17-.63.54-.92,1-1.31,1.67,1.09.3,1.25.33,1.31Z"/>
      <path class="cls-2" d="M37.33,35.86v-.66c.02.22-.04.45,0,.66Z"/>
      <path class="cls-2" d="M4.67,75.04l.67-.66c-.1.24-.6.46-.67.66Z"/>
      <path class="cls-1" d="M14,53.12c.2-.24.45-.44.67-.66l-.67.66Z"/>
      <path class="cls-2" d="M111.33,87.66h-.67c.58-.88.09-.75.67,0Z"/>
      <polygon class="cls-2" points="110.33 85.66 110.67 86 110.33 86.33 110.33 85.66"/>
      <path class="cls-2" d="M77.33,70.39s-.37-.02-.67-.66l.67.66Z"/>
      <path class="cls-2" d="M133.33,98.95l1.33,35.86c-.31,1.44-.03,3.36-1.01,4.65-1.87.09-.84-3.45-.99-4.65-1.16-9.12-1.19-21.33-.67-30.55.05-.95,1.27-4.37,1.33-5.31Z"/>
      <path class="cls-2" d="M135.33,78.36c-.48,5.76-.95,11.5-1.33,17.27-1.3-4.69-.16-10.05,0-14.98.04-1.27-.67-2.66,1.34-2.29Z"/>
      <path class="cls-2" d="M131.33,93.63v-17.27c-.2,5.71-.03,11.54,0,17.27Z"/>
      <path class="cls-2" d="M137.33,61.09c-.02,1.25.46,3.11-.67,3.98-.06-1.14-2.25-4.45.67-3.98Z"/>
      <path class="cls-2" d="M138.67,51.8c.03-.72-1.86-3.22.67-4.65-.04,1.45.53,3.57-.67,4.65Z"/>
      <path class="cls-2" d="M139.33,46.48c.17-2.8-.05-7.85,2-9.96-.47,3.29-.89,6.82-2,9.96Z"/>
      <path class="cls-2" d="M138.67,124.84h-.67v-1.99c.39-.43.54-1.61,1.33-1.99-.23.85-.36,2.59-.67,3.98Z"/>
      <path class="cls-2" d="M173.33,74.38v-5.98c.76,3.35.72,2.67,0,5.98Z"/>
      <path class="cls-2" d="M156.67,44.49c-1.5-.46-1.63,1.6-2,2.66.13-2.27-.55-5,2-2.66Z"/>
      <path class="cls-2" d="M126,113.55h-.67v-5.31c1.37,1.35.45,3.63.67,5.31Z"/>
      <path class="cls-2" d="M135.33,75.7c.13-1.75-.13-3.56,0-5.31v5.31Z"/>
      <path class="cls-2" d="M131.33,75.7c.07-1.76-.12-3.56,0-5.31v5.31Z"/>
      <path class="cls-2" d="M158,49.8l-.67-4.65c.84,2.06.68,2.55.67,4.65Z"/>
      <path class="cls-2" d="M128,134.14v-4.65c.16,1.52-.16,3.13,0,4.65Z"/>
      <path class="cls-2" d="M131.33,101.6c-.08-1.54.02-3.11,0-4.65v4.65Z"/>
      <path class="cls-2" d="M141.33,96.95c.16-1.46-.23-3.27,0-4.65,1.71,1.5.35,3.27,0,4.65Z"/>
      <path class="cls-2" d="M137.33,59.77c.11-2.27-.43-4.74,1.33-6.64-.08,1.87-.58,4.92-1.33,6.64Z"/>
      <path class="cls-2" d="M132.67,62.42c.03-1.25-.47-3.11.67-3.98-.15,1.22.56,3.09-.67,3.98Z"/>
      <path class="cls-2" d="M167.33,61.76c1.5-1.64,3.34-.83,2.67,1.33-.82-1.14-1.03-1.63-2.67-1.33Z"/>
      <path class="cls-2" d="M128.67,141.45c-.63-1.9-.51-2.13-.67-3.98l.67,3.98Z"/>
      <path class="cls-2" d="M138,138.79c-.08.04-.08,1.05-1.33.66-.68-1.18.65-3.11.66-3.32l.67,2.66Z"/>
      <path class="cls-2" d="M131.33,139.45c.19-1.18-.27-2.96,0-3.98,1.68,1.31.35,2.8,0,3.98Z"/>
      <path class="cls-2" d="M165.33,73.05c2.9-1.92,2.1.38,0,1.33-.08-.41.12-1.01,0-1.33Z"/>
      <path class="cls-2" d="M137.33,118.2l.67-3.98c-.22,1.29-.47,2.72-.67,3.98Z"/>
      <path class="cls-2" d="M137.33,135.47c.13-1.51.56-2.51.67-3.32l-.67,3.32Z"/>
      <path class="cls-2" d="M136.67,66.41c-.07.92-.66,2.5-.67,2.66l.67-2.66Z"/>
      <path class="cls-2" d="M126.67,119.53c-.09-.78-.51-1.97-.67-3.32l.67,3.32Z"/>
      <path class="cls-2" d="M141.33,134.8c.64,2.48-1.13,1.9-2,2.66.14-1.38,1.47-1.95,2-2.66Z"/>
      <path class="cls-2" d="M140.67,26.56v-3.32c.8,2.85.03,2.11,0,3.32Z"/>
      <path class="cls-2" d="M132,67.07l.67-3.32c-.13,1.45-.58,2.55-.67,3.32Z"/>
      <path class="cls-2" d="M138.67,110.23c.14-1.02-.21-2.4,0-3.32,1.72,1.08.2,2.52,0,3.32Z"/>
      <path class="cls-2" d="M142.67,86.33l.67-3.32c-.25,1-.44,2.26-.67,3.32Z"/>
      <path class="cls-2" d="M142,90.31l.67-3.32c-.22,1.12-.45,2.23-.67,3.32Z"/>
      <path class="cls-2" d="M124,35.86c.15-1.25.61-2.25.67-2.66l-.67,2.66Z"/>
      <path class="cls-2" d="M48,15.27h-2.67c.66-.21,2.03.22,2.67,0Z"/>
      <path class="cls-2" d="M127.33,125.51c-.15-1.47.03-2.39,0-2.66v2.66Z"/>
      <path class="cls-2" d="M136.67,123.52v1.33h-.67c.03-.91-.32-2.11.67-2.66-.05.43,0,.89,0,1.33Z"/>
      <path class="cls-2" d="M125.33,27.89c.2-1.05.41-1.69.67-2.66l-.67,2.66Z"/>
      <path class="cls-2" d="M134,53.12l.67-2.66c-.18,1.06-.6,2.21-.67,2.66Z"/>
      <path class="cls-2" d="M133.33,57.11l.67-2.66c-.16,1.11-.62,2.32-.67,2.66Z"/>
      <path class="cls-2" d="M135.33,129.49l.67-2.66c-.15,1.21-.61,2.18-.67,2.66Z"/>
      <path class="cls-2" d="M143.33,95.62c.08,1.67-.67,3.08,1.33,2.66-.31.58.75,1.73-1.32,1.32-.99-1.96-.4-2.39-.01-3.98Z"/>
      <path class="cls-2" d="M139.33,105.59l.67-2.66c-.2.86-.5,1.85-.67,2.66Z"/>
      <path class="cls-2" d="M138,130.16c.17-1.28.56-2.06.67-2.66l-.67,2.66Z"/>
      <path class="cls-2" d="M126,24.57c.25-.89.2-1.4.67-2.66l-.67,2.66Z"/>
      <path class="cls-2" d="M132.67,15.27c-.43-.09-2.3-.11-2.67,0h2.67Z"/>
      <path class="cls-2" d="M134.67,134.14v-2.66c-.02.15.45.55,0,2.66Z"/>
      <path class="cls-2" d="M141.33,33.87c.18-1.12.58-2.14.67-2.66l-.67,2.66Z"/>
      <path class="cls-2" d="M120.67,10.62c-2.16-1.14-2.62-2.39-4-3.32l4,3.32Z"/>
      <path class="cls-2" d="M170.67,64.41c1.25,1.04,1.35,1.29,2,2.66-1.64-.44-1.47-1.75-2-2.66Z"/>
      <path class="cls-2" d="M139.33,32.54l.67-1.99c-.19,1.18-.57,1.61-.67,1.99Z"/>
      <path class="cls-2" d="M124.67,31.21c.17-1.06.64-1.86.67-1.99l-.67,1.99Z"/>
      <path class="cls-2" d="M134.67,48.48l.67-1.99c-.18.96-.65,1.89-.67,1.99Z"/>
      <path class="cls-2" d="M144.67,130.16l1.33-3.98c-.5,1.35-.56,2.27-1.33,3.98Z"/>
      <path class="cls-2" d="M156,57.11c.19-.85.63-1.82.67-1.99l-.67,1.99Z"/>
      <path class="cls-2" d="M136.67,40.51c.3-1.17.34-2.44,1.33-3.32-.31,1.13.1,2.51-1.33,3.32Z"/>
      <path class="cls-2" d="M136.67,121.52v-1.99c-.01.1.05,1.16,0,1.99Z"/>
      <path class="cls-2" d="M135.33,45.82l.67-1.99c-.19.86-.63,1.82-.67,1.99Z"/>
      <path class="cls-2" d="M138.67,34.53l.67-1.33c-.22.83-.65,1.26-.67,1.33Z"/>
      <path class="cls-2" d="M63.33,4.65c-.83.94-1.78,1.78-2.67,2.66,0-1.8,1.43-2.06,2.67-2.66Z"/>
      <path class="cls-2" d="M168,85.66l1.33-1.99c-.6,1.15-.99,1.41-1.33,1.99Z"/>
      <path class="cls-2" d="M156.67,53.12c.13-.91.66-1.25.67-1.33l-.67,1.33Z"/>
      <path class="cls-2" d="M165.33,89.65l1.33-1.99c-.46.73-.89,1.32-1.33,1.99Z"/>
      <path class="cls-2" d="M153.33,92.3c.43-.71.92-1.33,1.33-1.99l-1.33,1.99Z"/>
      <path class="cls-2" d="M154,28.55c-.43-.36-1.78-.63-3.33-1.99l3.33,1.99Z"/>
      <path class="cls-2" d="M165.33,75.04c-.66.65-1.47,1.22-2,1.99-.34-1.94,1.94-1.87,2-1.99Z"/>
      <path class="cls-2" d="M153.33,105.59l1.33-1.99c-.42.72-1.05,1.47-1.33,1.99Z"/>
      <path class="cls-2" d="M156.67,100.94l.67-1.33c-.15.23-.31.78-.67,1.33Z"/>
      <path class="cls-2" d="M158,98.95l.67-.66c-.16.25-.51.42-.67.66Z"/>
      <path class="cls-2" d="M156.67,54.45s-.08-.16,0-.66v.66Z"/>
      <path class="cls-2" d="M74,112.22c-1.08,1.28-2.24-2.03-.67-.99.28.28.88.73.67.99Z"/>
      <path class="cls-2" d="M124,90.31v-5.31c.12,1.75-.14,3.56,0,5.31Z"/>
      <path class="cls-2" d="M124.67,98.95c-.09-1.39-.53-3.47-.67-5.31l.67,5.31Z"/>
      <path class="cls-2" d="M125.33,105.59v-3.32c.09,1.09-.05,2.22,0,3.32Z"/>
    </g>
  </g>
</svg>