<?xml version="1.0" encoding="UTF-8"?>
<svg id="Layer_2" data-name="Layer 2" xmlns="http://www.w3.org/2000/svg" viewBox="0 0 198.67 203.33">
  <defs>
    <style>
      .cls-1 {
        fill: #f7f5f1;
      }

      .cls-2 {
        fill: #f7f6f2;
      }

      .cls-3 {
        fill: #f7f5f0;
      }

      .cls-4 {
        fill: #f3f2ed;
      }

      .cls-5 {
        fill: #f2f1e8;
      }

      .cls-6 {
        fill: #f1efe9;
      }

      .cls-7 {
        fill: #f6f5f0;
      }

      .cls-8 {
        fill: #f6f4ef;
      }

      .cls-9 {
        fill: #acada6;
      }

      .cls-10 {
        fill: #ededea;
      }

      .cls-11 {
        fill: #f8f6f2;
      }

      .cls-12 {
        fill: #e9e8e0;
      }

      .cls-13 {
        fill: #f7f6ed;
      }

      .cls-14 {
        fill: #f3f1eb;
      }

      .cls-15 {
        fill: #ebeae4;
      }
    </style>
  </defs>
  <g id="Layer_1-2" data-name="Layer 1">
    <g>
      <path class="cls-11" d="M95.01,0c4.87,4.29,3.37,9.73,4.98,15.33,1.12,3.9,3.33,6.81,4.15,11.17,1.17,6.18-.28,16.08,1.14,20.86.67,2.25,4.66,5.95,6.21,8.43,1.45,2.32,3.61,8.47,6.3,9.74,2.11.99,11.67-1.39,14.73-1.56,6.81-.38,13.18,2.08,20.01-.59,1.86-.73,4.14-2.95,6.27-3.71,2.76-.98,11.16-3.65,13.76-4.2,3.38-.7,7.6.28,11.09-.21,5.77-.8,12.46-8.02,15.01,2.06v.67c-1.53,8.43-8.66,7.55-13.92,11.03-6.84,4.52-12.34,13.51-20.16,17.1-3.35,1.54-7.57,1.85-10.78,3.18-8.41,3.49-14,12.91-10.94,22.02-.12.25-.65.54-.66.67-2.83-2.62-4.92-5.25-3.68-9.36.18-.6,4.71-8.45,5.24-9.07,2.56-2.98,7.29-4.28,9.74-6.9,1.43.11,3.84-1.86,5.12-2.88.29-.24.11-1.05.19-1.12.93-.76,7.64-5.01,7.88-5.42.8-1.4-1.93-3.28-1.23-3.91,1.45-1.31,2.4,1.55,2.63,1.69.94.6,8.71-3.61,10.19-4.49,2.83-1.68,13.23-8.63,14.12-11.17.31-.89.37-1.77.3-2.7-1.34-1.36-18.22,4.92-21.67,5.26-5.64.55-9.28-2.17-15.1,1.51-1.34.85-1.66,1.89-2.44,2.56-11.92,2.36-20.12,2.93-32.23,3.33-3.47.11-4.43,2.5-8.34-.96-3.61-3.2-3.12-6.51-4.47-10.18s-5.35-7.59-6.48-11.5c-1.44-4.99-.55-10.87-1.83-16.16-1.16-4.79-5.59-9.83-6.29-13.69-.54-2.97.18-7.42-.5-10.17-1.24-4.94-2.87,3.2-3,4.97-.46,6.16,1.45,12.5.63,18.63-.95,7.11-4.31,15.07-6.12,21.86-1.38,5.15-.85,9.33.64,14.42,1.4,4.78,5.66,6.46,4.82,13.05-.2,1.6-1.37,3.17-1.33,4.75.02,1.03,3.51,7.17-.99,5.02-3.86-1.84-4.84-5.27-6.62-8.72-4.21,2.09-8.98,2.6-13.19,4.75-2.02,1.03-4.9,3.82-6.36,4.29-2.53.82-4-.48-6.17-.25-6.67.7-8.4,6.71-17.72,2.81-5.54-2.32-6.87-3.4-13.69-3.59-2.13-.06-13.83.41-14.28,2.34-.83,3.56,12.71,6.97,14.8,7.81,8.59,3.44,15.46,7.37,24.63,8.09,4.67.37,6.85,3.58,7.55,3.74,3.63.8,9.14-2.15,13.23-2.57,3.8-.39,12.76-1.43,12.22,4.21-.28,2.91-7.91,8.68-9.95,11.39-4.5,5.95-2.68,10.05-3.41,16.58-.93,8.35-8.23,18.07-11.35,25.95-3.49,8.82-3.15,15.48-1.87,24.45.5,2.02-1.17,1.13-1.33,1.33-3.86-6.69-1.75-17.27-.37-24.7,1.73-9.29,3.97-14.29,7.33-22.64,3.39-8.43,4.64-16.87,10.08-24.48.66-.93,5.24-4.3,4.21-5.51-6.68-2.55-13.71,2.04-19.89-.41-1.99-.79-2.46-2.95-5.18-3.44-6.57-1.18-13.21.3-20.29-2.31-2.27-.84-3.91-2.47-5.99-3.32-8.73-3.57-18.68-4.35-22.72-15.21-3.84-10.31,5.01-3.58,7.96-3.27,2.14.23,3.96-.71,5.96-.74,12.25-.2,23.5.94,35.88.66,2.56-.06,6.18.99,7.97.71,2.58-.41,3.67-4.39,5.73-5.64,2.69-1.62,8.25-1.41,10.56-3.4s-.2-8.76.14-11.8c.38-3.33,3.8-6.22,5.05-9.66,2.93-8.04,2.07-14.55,3.65-22.33.84-4.15,2.74-7.69,3.13-12.19.63-7.35-2.08-17.24,4.66-22.32h2.66Z"/>
      <path class="cls-8" d="M87.71,154c-1.74,1.56-14.89,19.04-15.77,21.18-2.26,5.47-4.55,13.57-6.51,19.46-.91,2.73-.49,6.68-3.63,8.69h-2.66c-3.4-.7-6.29-9.25-4.65-11.33.16-.21,1.83.69,1.33-1.33.01.08.66.28.53.85-.17.74-1.4,1.14-.9,1.82s3.57,2.49,4.32,1.96c.57-5.52,4.86-8.61,7.05-12.6,1.87-3.42,2.49-7.69,4.67-11.31,3.83-6.36,10.77-12.34,15.56-18.06l.66.67Z"/>
      <path class="cls-3" d="M142.85,111.33c1.33,3.97,6,7.77,7.01,12.63.82,3.91-1.11,7.61.14,10.54.78,1.84,7.27,5.84,9.46,8.5,7.22,8.76,12.78,19.52,16.25,30.36,1.08,3.36,3.75,10.39.98,12.96-2.66,2.47-3.94-1.61-5.61-2.98-2.6-2.15-6.63-4.07-9-6.31-2.2-2.09-3.86-5.61-6.27-7.71-2.23-1.94-4.68-2.15-6.38-3.6s-2.06-4.06-3.58-5.74-4.1-2.37-5.63-3.68-3.06-4.38-5.02-5.63c-2.72-1.73-6.05-1.4-8.78-2.52-7.11-2.91-6.33-10.85-17.35-7.68-8.49,2.44-11.68,5.86-17.74,11.53-1.13,1.05-3.18,1.61-3.64,2.02l-.66-.67c4.9-5.86,8.58-9.54,10.32-17.31.94-4.18,1.7-16.82,5.63-19.02,5.74-3.22,8.22,7.47,10.86,10.09s6.52,3.32,8.45,7.85c1.42,3.3-.16,2.95-.43,4.72-.34,2.24,3.19,1.75,4.82,2.21,3.54,1,5.28.92,8.38,1.59,7.38,1.59,11.71,14.69,16.06,19.89l22.95,15.3c.07-2.03.14-3.9-.44-5.88s-5.22-12.97-6.29-14.35c-1.65-2.12-5.65-3.62-7.88-6.28s-3.82-6.4-6-9.13c-1.31-1.64-5.73-5.09-6.29-6.36-1.5-3.42-.1-8.01-.51-11.48-.67-5.68-5.28-6.96-4.48-13.18.02-.13.54-.41.66-.67ZM113.62,136c1.49-1.57-4-4.31-5.01-5.3-2.1-2.06-2.52-5.28-4.95-6.02-.12,2.26.26,4.59-.16,6.84-.29,1.57-3.17,6.45-3.15,6.83.12,2.92,5.32-2.04,5.72-2.24,3.05-1.53,7.28.18,7.55-.1Z"/>
      <path class="cls-9" d="M158.8,82.67c-.08.07.1.88-.19,1.12-1.28,1.03-3.69,3-5.12,2.88.04-.04-.06-.62.27-1.09.18-.26,1.06-.23,1.08-.64.02-.77-.97-1.9-.67-2.94l4.65.66Z"/>
      <path class="cls-2" d="M72.43,145.33c.92-5.7,2.61-10.78,6.61-15.03,1.73-1.84,5-3.4,6.29-5.68,1.05-1.85,1.15-4.42,2.1-6.55,2.05-4.59,10.77-10.29,8.41-15.88-1.43-3.39-5.28-1.83-8.32-2.34-2.63-.44-5.26-2.2-8.13-2.51-7.66-.83-13.96.14-21.28.66-2.02.14-12.97.63-12.93-2.32.02-1.62,6.66-.81,8.25-1.04,2.64-.38,6.21-2.69,8.83-3.14,8.55-1.46,14.12,3,21.14,3.2,3.32.09,7.07-1.56,10.46-.55.86.26,4.88,4.43,5.28,5.37,1.33,3.09-.37,5.41-.66,8.34-.13,1.26.58,2.42.48,3.75-.49,6.59-17.03,19.08-21.37,25.95-.4.63-3.83,9.22-5.18,7.79Z"/>
      <path class="cls-1" d="M108.88,91.23c.24-.14,2.22-3.69,3.07-4.58,3.64-3.84,4.3-2.43,8.35-3.63,1.38-.41,2.55-1.72,3.81-2.18,3.82-1.4,8.27-3.32,12.11-3.51.39,1.46-1.88,2.27-2.87,2.78-3.39,1.76-5.9,2.33-9.31,4.66-4.26,2.93-13.97,14.46-19.5,8.35-4.3-4.75-1.99-12-2.21-17.46-.16-4.07-1.39-10.88-2.41-14.9-3.54-13.88-7.26-15.62-5.58-31.8.36-3.45,2.34-2.78,3.19.2,1.17,4.16,2.63,12.64,3.41,17.24.93,5.46.63,13.35,2.22,18.44.4,1.3,2.58,2.54,3.47,3.86,1.38,2.05,2.44,5.79,2.39,8.26-.03,1.53-5.36,17.23-.11,14.26Z"/>
      <path class="cls-7" d="M110.73,115.57c-1.42-1.67-2.99-2.12-4.07-4.91-3.36-8.63,5.94-8.93,11.19-12.09,2.32-1.4,6.57-7,9.75-4.93,2.52,1.64-2.2,2.65-2.91,3.12-2.01,1.34-4.07,3.79-5.77,4.87-2.67,1.69-11.41,3.05-10.34,7.05.69,2.56,8.2,5.64,10.71,7.96s3.56,5.43,5.7,7.61c6.73,6.88,15.93,9.76,20.77,18.49.56,1,3.1,6.37,3.06,6.92-.03.45-1.06,1.29-2,.68-1.3-.85-5.04-10.08-8.95-13.02-11.02-8.28-17.51-10.48-27.14-21.77Z"/>
      <path class="cls-1" d="M153.48,66c1.97-.39,14.99-5.01,11.33,1.03-1.42,2.34-12.19,8.52-15.04,8.91-1.79.24-10.18.58-10.9-.95-.34-1.36.92-1.04,1.76-1.52,5.2-2.99,7.81-3.11,12.85-7.47Z"/>
      <path class="cls-14" d="M63.11,174c.55.38,1.16,13.12-3.31,10.67.26-1.61-.54-13.31,3.31-10.67Z"/>
      <path class="cls-10" d="M129.57,112.67c-1.45,4.13,5.86,2.93,3.98,8.66-2.63-.78-4.23-4.69-5.49-5.81-.75-.67-2.39-.76-2.48-.86-1.21-1.55,3.15-2.55,3.99-1.99Z"/>
      <path class="cls-13" d="M164.78,165.33c-1.76,1.74-6.13-4.56-5.31-5.33,1.25-1.18,6.49,4.15,5.31,5.33Z"/>
      <path class="cls-5" d="M102.56,94.43c.48.59,3.74,2.91,2.42,4.23-1.82,1.83-4.79-5.31-4.64-6.66,1.94-.35,1.55,1.61,2.22,2.43Z"/>
      <path class="cls-6" d="M121.59,110c-6.25.62-2.88-3.31.99-4.01l.34,3.34c-.36.03-.95.63-1.33.67Z"/>
      <path class="cls-5" d="M91.68,59.35c.41,2.01,2.8,1.93,2,4.65-1.13.02-3.54.36-3.94-1.08-.2-.74.5-4.57,1.93-3.57Z"/>
      <path class="cls-14" d="M74.42,102.67v1.99c-2.18-.2-7.06,2.16-5.65-2h5.65Z"/>
      <path class="cls-8" d="M61.73,105.4c.25.16,1.09,2.34.09,2.96s-2.81.22-4.01.3c-.69-2.12,2.34-4.25,3.92-3.27Z"/>
      <path class="cls-4" d="M75.08,149.99c.49-1.15,2.08-5.63,3.64-5.32,3.16.62-1.7,6.12-3.64,5.32Z"/>
      <path class="cls-5" d="M138.86,125.33c-1.33,1.28-5.13-1.99-4.64-3.99,1.58-.83,6.02,2.67,4.64,3.99Z"/>
      <path class="cls-6" d="M75.08,152c-.47,1.18-.37,3.21-.81,4.18-1.11,2.43-3.79.74-3.17-1.18.3-.94,2.08-.72,2.52-1.18.56-.57-.67-2.36,1.46-1.83Z"/>
      <path class="cls-3" d="M122.92,109.33c.87-.08,1.78.04,2.66,0,1.31,3.49-4.37,4.98-3.99.66.38-.04.97-.64,1.33-.67Z"/>
      <path class="cls-10" d="M168.76,171.33c-1.84.53-4.46-4.73-2.32-4.65.86.03,3.05,3.35,2.32,4.65Z"/>
      <path class="cls-15" d="M44.82,102.39c.25.29.97.39,1.04.61,1.25,3.87-4.04-.41-4-2.33,1.95-.4,2.01.64,2.96,1.72Z"/>
      <path class="cls-4" d="M94.22,72.5c-.55.33-1.24.13-1.86.16-.47-2.69,1.18-4.71,3.31-2.33-.73.31-1.2,2.02-1.45,2.17Z"/>
      <path class="cls-5" d="M27.24,96c-1.1.09-2.86.15-3.31-1-1.16-2.97,3.61-1.6,3.31,1Z"/>
      <path class="cls-12" d="M68.11,160.67c1.8-.41,2.27,2.96.64,3.33-1.8.41-2.27-2.96-.64-3.33Z"/>
    </g>
  </g>
</svg>