<?xml version="1.0" encoding="UTF-8"?>
<svg id="Layer_2" data-name="Layer 2" xmlns="http://www.w3.org/2000/svg" viewBox="0 0 137.33 126.67">
  <defs>
    <style>
      .cls-1 {
        fill: #443a28;
      }

      .cls-2 {
        fill: #a09a8b;
      }

      .cls-3 {
        fill: #837d70;
      }

      .cls-4 {
        fill: #aba599;
      }

      .cls-5 {
        fill: #655c4d;
      }
    </style>
  </defs>
  <g id="Layer_1-2" data-name="Layer 1">
    <g>
      <path class="cls-2" d="M108.81,82c1.58-.35,1.39.8,1.87,1.75,5.34,10.43,8.85,26.9,7.43,38.6-.27,2.2-.9,3.05-2.67,4.32h-1.99l-5.31-4.67c.5.06,1.54.1,1.99,0,7.86,7.71,7.04-4.05,6.66-9.69-.78-11.5-5.4-19.35-7.99-29.64-.05-.21.05-.45,0-.67Z"/>
      <path class="cls-4" d="M118.09,0c1.06,1.75,4.39,1.17,3.98,3.33-.66,0-1.33,0-1.99,0-.24,1.65.87,2.93,1.99,4-.26,1.04.18,2.6-.28,4.04-.54,1.69-1.49,3.12-2.37,4.63h-.66c.21-.55,1.31-5.66,1.36-6.35.57-7.88-6.09-4.08-10.65-3.65,1-3.37-4.05-2.17-5.97-.67-.85.09-2.47.43-3.32.67-.39-1.84.95-1.25,1.98-1.65,1.75-.67,3.5-1.5,5.29-2.06,2.03-.63,4.84.19,6.01-2.3h4.64Z"/>
      <path class="cls-2" d="M20.57,22c7.38,2.01,17.27,4.11,24.89,4.65,4.18.3,7.7-1.42,11.6.01.24,2.94,2.66,9.47,1.14,11.82-.43.66-4.43,3.22-5.3,4.15-2.64,2.84-4.63,7.38-7.78,9.36-1.2,4.57-5.65,10.65-7.79,15.17-5.44,11.51-8.77,20.84-12.3,32.97-1.11,3.8-6.6,17.78-4.81,20.54.98,1.51,1.8.19,2.34-.02,2.81-1.09,2.94-1.66,0-2.67.17-4.51,3.6-11.25,4.97-16,4.47-15.43,8.69-29.57,16.9-43.68,2.02-3.47,7.72-12.02,10.63-12.98.11,1.24-.46,2.21-1.11,3.18-12.83,19.05-17.68,30.18-24.29,52.3-.95,3.19-5.25,12.55-5.09,14.92.2,3.07,2.84.4,4.32.29,4.13-.32,9.15.69,13.25.7,1.97,0,3.69-.74,5.63-.72-.77.41-1.47,1.72-3.32,2-1.38.21-7.74-.44-7.96.34-.46,1.6,1.46.88,2.34.97,1.73.17,4.18.7,5.63.69,2.84-.02,5.71-1.76,7.96-3.33,0,.18,1.36.59-.31,2.01-6.18,5.24-17.57.95-25.19,2.03-4.58.65-3.3,5.35-8.38,3.67-2.31-7.16,2.31-14.42,4.22-21.19,3.85-13.68,7.29-24.19,13.47-37.13,1.68-3.52,3.65-7.31,6.06-9.53.49-.45.75-3.23,1.46-4.11.61-.75,1.19-.3,1.38-.41.29-1.09.73-2.16.66-3.33-.42-.42-4.74.92-5.3,1.33-.11.08-.01.96-.38,1.32-.65.63-1.56.61-1.61.68-2.21,2.78-4.56,8.69-8.02,10.94-5.7,3.71-14.82,5.08-19.48-.98C3.57,52.31,1.64,42.4,1.99,30.67c2.39-.3.82.87.84,1.88.11,5.14.65,12.15,2.83,16.79.46.99-.11,1.65,1.63,1.33.67-2.45-1.21-3.95-1.67-5.98-.99-4.42-1.11-9.87-.71-14.38.1-1.09-1.12-1.91,1.05-1.64-.41,7.88,1.12,25.31,8.4,29.89,4.06,2.55,9.21.26,13.03-2.05.68-.41,2.97-1.71,3.12-1.84-2.1,1.94-1.64,2.6-5.31,4.67-5.67,3.2-7.56,4.38-12.94-.65-2.78,2.06,3.19,5.59,5.35,5.94s9.1.45,9.58-2.62c.51-.15,1.18.17,1.96-.34,1.3-.84,5.4-6.73,6.96-8.38.86-.91,2.22-1.15,2.35-1.28.59-.6,1.42-1.41,1.99-2,.1-.1.11-.99.69-1.61.25-.27,3.92-2.89.96-2.4-4.3.71-4.74,2.96-7.28,5.39-.63.6-1.57.51-1.68.62-.73.69-1.53,1.63-2.65,2.67.1-.08-.3-1.67.64-2.37.65-.48,1.92-.2,2.01-.3.08-.08-.2-1.21.36-1.97,1.46-1.96,7.59-5.64,9.96-5.99,7.6-1.12,5.55,1.69,11.21-4.75.61-.69,2.05-1.17,2.2-1.43,1.29-2.22-1.7-7.19-1.47-9.9-.64-.98-6.72.13-8.69.06-9.91-.35-22.02-2.38-31.36-5.82-1.23-.45-2.19-.54-2.12-2.21,2.37.82,4.88,1.34,7.3,2Z"/>
      <path class="cls-1" d="M83.59,92.67c-.15,6.55-1.33,13.01-1.9,19.52.7,1.8,1.96,1.72,3.55,1.85,1.2.1,2.74.51,2.33-1.37,1.98.07,9.37-.57,9.95.67.1.22-.22.97.08,1.22,1.58,1.32,11.35,1.05,11.2,6.11-1.59.15-2.47-1.33-3.84-1.83-.78-.28-1.74-.02-2.13-.17-.71-.27-1.27-.44-1.99-.67-.8-.26-3.03-2-4.31-2h-13.27c-.65,0-2,.64-2.67.4-3.66-1.29-1.71-8.29-1.64-11.74,0-.44-.02-.89,0-1.33,1.76-.52,1.12-2.11,1.33-3.33.19-1.12,0-1.27,0-1.33.53-3.74,1.2-6.78,1.33-10.67l.91.02c.73-.6.03-1.6,1.07-1.35-.02,1.99.05,4.01,0,6Z"/>
      <path class="cls-1" d="M17.91,6.67c.99.73-1.42,1.76,3.32.67.69-.16,1.89-.65,1.99-.67.64-.08,1.34.04,1.99,0v.67c-.27,2.64,1.02.69,1.33.67.66-.05,1.33.05,1.99,0v2.67c-1.46-.13-3.45.17-5.31,0,.21-1.58-.1-1.47-1.65-1.33l-.34.66c-.52-.07-1.49-.09-1.99,0,.35-2.37-2.77-1.97-1.99.67-.41-.02-.93-.06-1.33,0-5.94.84-2.93,6.76,1.99,8,.21.05.46-.05.66,0-.41,2.2.94.99,1.99,1.33v2c-2.42-.66-4.93-1.18-7.3-2-1.02-.36-3.21-.87-3.98-1.33-.6-.36,1.47-.86-2.65-1.33-.12-.01-.41-.54-.66-.67.39-1.17-.45-3.2,1.01-4.67.57-.58,1.63-.49,2.08-.87.6-.51.65-1.56,1.56-2.09,1.44-.85,4.93-.11,4.63-2.36.22,0,.45-.02.66,0,.53.04,1.82-.12,1.99,0Z"/>
      <path class="cls-4" d="M58.38,70.67c-1.94,11.7-5.01,21.64-5.97,34-3.15.43.46-5.37-2.65-4.66-.64.84,1.38,5.81-1.33,5.33.48-11.57,4.81-23.4,6.63-34.67,1.04.81,2.17.38,3.32,0Z"/>
      <path class="cls-2" d="M33.84,8.67c1.52.18,11.77,5.24,13.86,6.41,2.86,1.59,7.71,6.56,10.3,6.26,1.38-.16,2.29-1.35,3.97-1.31,1.47.03,2.48,1.21,3.05,1.31v1.33c-1.52-.43-2.2-.83-3.98-.67-2.72.25-6.79,1.42-9.29,2,.74-2.77-2.66-4.35-4.71-5.6-3.05-1.85-12.63-6.39-15.85-6.4v-.67l.66-2.67c.65.05,1.34-.08,1.99,0Z"/>
      <path class="cls-2" d="M90.23,16c.31,2.35-6.44,4.12-4.99,6.01,1.53,1.98,11.85,1.35,14.27,3.32-.97.12-1.7.81-3.65.71-3.05-.15-5.71-2.06-8.95-1.37,1.57,2.77,5.74,2.82,8.64,3.68,1.09.33,2.36-.13,1.98,1.64-4.18-.6-9.37-1.77-13.45-2.82-2.07-.53-3.84-2.6-6.42-1.8.35,1.03-.63,2.12-.7,2.63h-.66v-2.67c.08-.03.33-1,1.1-1.2,1.21-.32,4.41.34,4.86-1.14,1-3.23-2.76-1.82-3.97-1.66-.05-1.61,3.7-2.82,5.31-4,0,1.43-.58,2.48,1.5,1.84,1.07-.33,4.3-2.41,5.13-3.17Z"/>
      <path class="cls-3" d="M105.49,84c1.7-.36,1.36.83,1.8,1.82,2.69,6.11,5.66,17.19,6.15,23.85.29,3.86,1.29,11.33-3.31,12.32-.45.1-1.49.06-1.99,0-1.23-.15-5.75-1.58-5.31-3.33.39.15,1.35-.11,2.13.17,1.37.49,2.25,1.98,3.84,1.83.15-5.06-9.62-4.79-11.2-6.11-.3-.25.02-1.01-.08-1.22,2.78-1.08,3.81,1.03,4.49,1.28,1.11.4,2.37.27,3.65.87,5.11,2.41,7.64,7,6.38-4.41-.95-8.6-6.14-20.01-6.56-27.07Z"/>
      <path class="cls-5" d="M81.6,67.33h.66c.07.42-.06.91,0,1.33.51,3.36,1.23,6.48,1.9,9.79.25,1.23-.59,2.6,1.42,2.21.23,3.68.17,8.29,0,12h-1.99c.05-1.99-.03-4.01,0-6-1.04-.26-.34.75-1.07,1.35l-.91-.02c.24-6.95-.64-12-1.33-18.67-.09-.87.06-1.79,0-2.67.41.1.88.52,1.33.67Z"/>
      <path class="cls-3" d="M6.63,17.33c-.45,2.48-2.54,5.63-.66,8-.13,1.04.06,2.25,0,3.33-2.18-.27-.96.55-1.05,1.64-.4,4.51-.29,9.97.71,14.38.45,2.02,2.34,3.52,1.67,5.98-1.74.33-1.16-.34-1.63-1.33-2.18-4.64-2.72-11.65-2.83-16.79-.02-1,1.55-2.17-.84-1.88.03-.88-.07-1.79,0-2.67,1.99.67,1.47-2.55,1.31-4.35-.1-1.08-.64-.93-.64-.99-.04-.65-.04-1.35,0-2,1.3.38,2.98-2.99,3.32-4,.25.12.54.65.66.67Z"/>
      <path class="cls-3" d="M103.5,5.33c.49-.05,1.29.03,1.33.67-1.58.49-6.63,2.9-6.63,4.67-.21.06-.48-.07-.66,0-1.7.63-1.66.84-2.65,1.33-3.75,1.88-2.11,1.51-3.98,3.33-.23.22-.43.45-.66.67-.83.76-4.06,2.84-5.13,3.17-2.08.64-1.49-.41-1.5-1.84.67-.5,1.33-.87,1.99-1.33,1.33,0,2.06-.66,1.99-2,.43-.23.94-.4,1.33-.67.21-.14.96.04,1.28-.4l4.69-4.27c1.53-.84,3.17-2.08,5.31-2.67.84-.23,2.47-.58,3.32-.67Z"/>
      <path class="cls-3" d="M71.65,42c2.02.82,1.87,4.27,3.98,4,.25.87.49,1.78.66,2.67.01.05-.86-.21-.58.92.18.73,1.19.95,1.24,1.08.68,1.51,1.59,3.75,1.99,5.33.21.86.98,4.98.66,5.33l-2.65-.66c-.01-.44.01-.89,0-1.33,0-.1.64-.52.66-1.06.04-1.63-1.37-5.01-3.31-4.94-1.06-2.79-1.84-5.91-3.32-8.67-.21-.4-.44-1.08-.66-1.33.59-.22,1.2-.7,1.33-1.33Z"/>
      <path class="cls-4" d="M78.95,104.67c-.07,3.45-2.02,10.45,1.64,11.74.67.24,2.02-.4,2.67-.4h13.27c1.28,0,3.51,1.74,4.31,2-.87,1.92-3.13-.67-3.65-.67h-14.6c-.91,0-1.24.79-3.11-.05-3.24-1.44-2.67-5.85-2.44-8.87.06-.86.17-4.32,1.91-3.75Z"/>
      <path class="cls-4" d="M80.28,69.33c.69,6.67,1.56,11.71,1.33,18.67-.13,3.89-.8,6.93-1.33,10.67h-1.33c.21-3.19,1.33-7.72,1.33-10.33v-10.67c0-1.36-2.02-7.42-1.32-8.34.08-.11.95.06,1.32,0Z"/>
      <path class="cls-2" d="M48.43,105.33c2.71.48.69-4.49,1.33-5.33,3.12-.71-.5,5.09,2.65,4.66-.12,1.54.11,3.13,0,4.67-.06.8-2.19,3.79.66,3.33-.08,1.08-.65,1.84-.66,2-1.43-.11-2.69-.04-3.98.67.1-3.32-.14-6.69,0-10Z"/>
      <path class="cls-2" d="M57.72,50c2.37.66.86-2.14,1.33-2.67,1.11-1.25,1.39,1.3,1.99,2-.5,2.2-.52,6.84-.66,9.33-2.24-.63-1.19,3.28-1.33,5.33-.5-.03-1.18-.82-1.99,0,.4-2.43,0-5.24,0-7.33,0-.66.03-1.34,0-2,2.84.44.74-2.47.66-3.33-.04-.43,0-.89,0-1.33Z"/>
      <path class="cls-4" d="M73.64,22c0,1.11,0,2.22,0,3.33s.08,2.24,0,3.33-.62,1.7-.66,2c-1.61-1.3.24-5.25-1.3-6.36-1.78-1.28-2.61,1.23-3.83,1.63-1.07.35-1.34-.56-1.5-.6l1.33-1.99c-.9-.13-1.78-.43-2.65-.67v-1.33c3.82.71,3.79-.95,8.62.67Z"/>
      <path class="cls-5" d="M72.32,35.33c-.12,1.71-.3,2.44,1.66,2,.7-.16-.52-2.9,2.33-2-.05.21.04.45,0,.67-.1.55-.7,1.28-.66,2v.67c-.39-.05-.93-.04-1.33,0l-.42-.57c-.52-.14-.71.48-.9.57-.23.1-.97-.24-1.22.09-.44.58.06,2.37-.11,3.25-.12.63-.74,1.11-1.33,1.33-.6-.67-.59-.49-1.33-.67-.19-.05-.44.03-.66,0-1.04-.55-1.2-3.21-1.33-3.33-.37-1.87,4.18-2.92,5.31-4Z"/>
      <path class="cls-4" d="M61.04,42v2c2.57-1.3,3.81-1.38,6.63-1.33.28,2.54-2.63.59-4.38,1.94-.29.22-2.16,4.31-2.26,4.73-.6-.7-.88-3.25-1.99-2-.47.53,1.04,3.33-1.33,2.67,0-1.78,1.01-4.28.7-5.58-.18-.75-1.27-.33-1.37-.42-.06-.05.01-.44,0-.67l.66-.67c.22-.22.46-.43.66-.67.19-.05.44.03.66,0,1.04-.16,1.66.03,1.99,0Z"/>
      <path class="cls-2" d="M15.26,6.67c.3,2.25-3.19,1.51-4.63,2.36-.91.54-.95,1.58-1.56,2.09-.46.39-1.51.3-2.08.87-1.47,1.48-.62,3.51-1.01,4.67-.34,1.01-2.02,4.38-3.32,4,.08-1.47,2.49-8.5,3.31-9.67,2.21-3.16,5.65-4.34,9.29-4.33Z"/>
      <path class="cls-5" d="M76.3,25.33c-.57.21-1.9-.15-2.65,0,0-1.11,0-2.22,0-3.33.88.29,3.41-.51,4.64-.67s4.97-1.57,3.97,1.66c-.46,1.48-3.66.82-4.86,1.14-.77.2-1.02,1.17-1.1,1.2Z"/>
      <path class="cls-4" d="M78.95,56c1.73-.37,1.35.87,1.65,1.98.57,2.15,1.3,4.55,1.67,6.69-1.57.52-1.24-1.25-1.34-1.32-1.68-1.21-1.39,2-1.32,3.32-.29-.1-1.1.21-1.28-.03s-1.35-5.31-1.37-5.97l2.65.66c.32-.35-.44-4.47-.66-5.33Z"/>
      <path class="cls-5" d="M52.41,114.67c-.06.65.01,1.34,0,2-2.26,1.57-5.12,3.31-7.96,3.33v-2c1.85-.28,2.55-1.59,3.32-2,.31-.17.49-.57.66-.67,1.29-.71,2.55-.78,3.98-.67Z"/>
      <path class="cls-3" d="M59.05,64c-.16,2.4-.26,4.26-.66,6.67-1.15.38-2.28.81-3.32,0,.17-1.02-.17-2.31,0-3.33,1.29.72,1.76-1.92,1.99-3.33.81-.82,1.49-.03,1.99,0Z"/>
      <path class="cls-2" d="M67.01,39.33c.13.12.28,2.79,1.33,3.33-.21-.03-.45,0-.66,0-2.83-.05-4.07.03-6.63,1.33v-2c5.49-.53,2.59-1.17,1.99-4-.05-.21.04-.45,0-.67.67,1.37,3.82,1.84,3.98,2Z"/>
      <path class="cls-5" d="M30.52,8c.44-.02.89,0,1.33,0v.67l-.66,2.67c-1.02.53-2.3-.63-2.65-.67v-2.67c.66-.05,1.33.04,1.99,0Z"/>
      <path class="cls-4" d="M76.96,59.33c-.81-2.02-1.88-3.97-2.65-6,1.94-.06,3.35,3.31,3.31,4.94-.01.54-.66.96-.66,1.06Z"/>
      <path class="cls-3" d="M79.61,66.67c-.07-1.32-.36-4.53,1.32-3.32.1.07-.24,1.85,1.34,1.32.07.41-.05.9,0,1.33l-.66,1.33c-.44-.15-.91-.57-1.33-.67-.22-.05-.48.06-.66,0Z"/>
      <path class="cls-2" d="M2.65,22.67c0,.06.54-.09.64.99.17,1.8.68,5.01-1.31,4.35.14-1.78-.56-3.87.66-5.33Z"/>
      <path class="cls-4" d="M60.37,58.67c-.1,1.76.08,3.57,0,5.33-.44-.01-.88.03-1.32,0,.14-2.05-.92-5.96,1.33-5.33Z"/>
      <path class="cls-4" d="M80.28,100c-.21,1.22.43,2.82-1.33,3.33.03-.81-.08-1.9,0-3.33h1.33Z"/>
      <path class="cls-4" d="M25.21,6.67c1.88-.1,6.04-.72,5.31,1.33-.66.04-1.33-.05-1.99,0s-1.33-.05-1.99,0l-1.33-.67v-.67Z"/>
      <path class="cls-5" d="M21.23,6v1.33c-4.74,1.09-2.33.06-3.32-.67.51.05,1.09-.62,1.33-.67.55-.1,1.36,0,1.99,0Z"/>
      <path class="cls-4" d="M19.24,6c-.24.04-.82.72-1.33.67-.17-.12-1.46.04-1.99,0-.65-1.94,2.2-1.83,3.32-.67Z"/>
      <path class="cls-4" d="M53.08,112.67c-2.86.45-.72-2.53-.66-3.33.88.97.75,2.16.66,3.33Z"/>
      <path class="cls-4" d="M94.87,8.67l-4.69,4.27c-.32.43-1.07.25-1.28.4.49-2.58,3.91-3.53,5.97-4.67Z"/>
      <path class="cls-4" d="M87.57,14c.06,1.34-.66,1.99-1.99,2,.13-.09-.31-.75,1.99-2Z"/>
      <path class="cls-4" d="M23.22,6.67c-.1.01-1.3.51-1.99.67v-1.33c.73,0,1.68-.18,1.99.67Z"/>
      <path class="cls-4" d="M70.33,43.33c.23.25.45.93.66,1.33-1.34.05-2.04-.68-1.99-2,.74.18.73,0,1.33.67Z"/>
      <path class="cls-5" d="M80.28,98.67c0,.07.19.21,0,1.33h-1.33c.02-.44-.03-.89,0-1.33h1.33Z"/>
      <path class="cls-4" d="M33.84,8.67c-.65-.08-1.34.05-1.99,0v-.67c.15,0,1.23-1.57,1.99.67Z"/>
      <path class="cls-4" d="M117.43,46.67v1.33c-1.7-.05-3.63-.12-5.31,0-.78-.92-1.76-.53-2.65-.67-3.62-.55-7.92-.72-11.28-1.33-1.99-.36-5.12-2.79-7.29-1.67l1.32,1.67v.67c-.57-.27-3.1-.89-3.31-.66-1.67,1.75,6.67,9.97,7.85,11.77,2.41,3.69,7.81,13.57,9.4,17.56l-3.97-3.33c-.37,1.48.97,2.6,1.15,3.78.07.46-.51.84-.5.89l-10.07-18.88-9.17-13.79c.88,0,1.77,0,2.65,0,.25-1.68-2.02-2.1-1.99-4,2.25.96,5.93,1.79,8.49,2.47,8.26,2.21,16.19,3.54,24.68,4.19Z"/>
      <path class="cls-1" d="M125.39,6c.48.47.86.82,1.33,1.33-.62,2.81-1.77,5.83-3.3,8.36s-3.84,4.2-5.13,6.18c-.49.76-1.6,2.27-.2,2.8-1.06.57-1.32.42-1.99.67-.54.2-1.44.5-1.99.67-1.34.41-2.78.99-3.98,1.33-1.35.39-3.11-.96-2.65,1.33-.43.03-.89,0-1.33,0-.07,0-.66-1.16-1.22-.58-.29.3-.01,1.18-.1,1.24-.42.31-4.84-.22-5.97,0,.54-1.71-1.32-.82-1.32-1.99,1.79-.37,5.61,1.14,5.3-1.34,3.19.2,7.38-1.17,9.99-2.98,1.08-.75,1.7-.24,1.29-2.35,1.07-.55,1-.11,2.65-1.33.24-.18.46-.45.66-.67,1.11-1.16,1.18-1.29,1.99-2.67.88-1.5,1.83-2.93,2.37-4.63.46-1.44.03-3,.28-4.04.04-.16,1.03-1.31,1.33-1.33.24-.02,1.01.73,1.58.53l.41-.53Z"/>
      <path class="cls-4" d="M128.71,10c.13.22,2.57,1.76,3.57,3.41,4.13,6.76,4.18,19.11,3.06,26.59-2.88-3.9-2.9.67-3.98,2.67-.64,1.17-1.26,1.6-2.65,1.33,5.19-6.8,5.38-16.21,2.97-23.99-.63-2.02-2.16-5.91-3.64-7.35.57-.63.66-1.82.66-2.67Z"/>
      <path class="cls-1" d="M134.02,44.67c-1.08,2.31-.51,1.71-2.65,4l-7.02,1.94c-9.41,1.11-17.26-.98-26.15-3.27v-1.33c3.36.62,7.66.78,11.28,1.33-.4,2.84,2.04.71,2.65.67,1.68-.12,3.6-.05,5.31,0,1.58.04,4.46,1.32,6.86.68.71-.19.38-1.3.44-1.34.88-.62,4.16.45,3.32-2.67.34-.25.41-.33.66-.67,1.4.27,2.02-.16,2.65-1.33l2.65,2Z"/>
      <path class="cls-3" d="M98.19,47.33c8.89,2.29,16.74,4.38,26.15,3.27l7.02-1.94c-1.03,1.1-.73,2.58-3.8,3.18-5.68,1.12-16.52.55-22.25-.67-3.04-.64-6.21-1.31-9.3-1.98-1.71-.37-2.68-1.99-3.79-2.53v-.67c2.17-.3,3.82.78,5.97,1.33Z"/>
      <path class="cls-3" d="M128.71,10c0,.84-.09,2.04-.66,2.67-.1.11-1.11-.04-1.61.69-2.63,3.8-3.32,8.61-8.34,11.31-1.4-.53-.29-2.04.2-2.8,1.29-1.98,3.63-3.7,5.13-6.18s2.68-5.55,3.3-8.36c.11.12,1.14-.07,1.65.67.47.69.19,1.73.34,2Z"/>
      <path class="cls-3" d="M106.15,75.33c.43,1.08.41,1.87.66,2.67.06.2-.06.46,0,.67-2.1-.35-1.37,1.29-.66,2.67-.13.25-.64.53-.66.67-2.18-1.58-2.14-2.82-2.65-5.33-.01-.05.57-.43.5-.89-.19-1.17-1.53-2.3-1.15-3.78l3.97,3.33Z"/>
      <path class="cls-5" d="M131.36,42.67c1.08-2,1.1-6.57,3.98-2.67-.06.42.08.93,0,1.33-1.57-.22-1.46.1-1.32,1.66l.66.34c-.2.6-.46.9-.66,1.33l-2.65-2Z"/>
      <path class="cls-5" d="M122.07,3.33c.21,0,.47-.04.66,0l.66,2.67c-.29.02-1.29,1.18-1.33,1.33-1.12-1.07-2.23-2.34-1.99-4,.66,0,1.32-.01,1.99,0Z"/>
      <path class="cls-5" d="M106.81,78.67c.4,1.3.5,2.1,1.99,2.67.05.21-.05.45,0,.67s-.05.46,0,.67l-2.65-1.33c-.71-1.37-1.43-3.02.66-2.67Z"/>
      <path class="cls-4" d="M125.39,6l-.41.53c-.57.19-1.34-.55-1.58-.53l-.66-2.67c2.95.66,1.98,2.02,2.65,2.67Z"/>
      <path class="cls-4" d="M108.81,81.33c-1.49-.56-1.59-1.36-1.99-2.67-.06-.2.06-.46,0-.67,2.6-.02,1.68,1.87,1.99,3.33Z"/>
      <path class="cls-4" d="M135.34,41.33c-.21,1.11-.42,1.28-.66,2l-.66-.34c-.14-1.56-.25-1.88,1.32-1.66Z"/>
      <path class="cls-1" d="M106.15,81.33l2.65,1.33c2.59,10.29,7.21,18.14,7.99,29.64.38,5.64,1.2,17.41-6.66,9.69,4.6-1,3.6-8.46,3.31-12.32-.5-6.66-3.46-17.74-6.15-23.85-.44-1-.1-2.18-1.8-1.82-.04-.61-.08-1.43,0-2,.02-.14.54-.41.66-.67Z"/>
      <path class="cls-2" d="M103.5,5.33c1.93-1.51,6.97-2.71,5.97.67-.65.06-1.34-.06-1.99,0-.31.03-.86-.55-2.65,0-.04-.63-.83-.72-1.33-.67Z"/>
      <path class="cls-2" d="M119.42,16c-.81,1.38-.88,1.5-1.99,2.67h-.66c-.07-1.11,1.91-2.46,1.99-2.67h.66Z"/>
      <path class="cls-1" d="M60.37,24c-.26,2.24-.28,7.42.04,9.62.25,1.72,1.72,3.35,1.95,4.38.16.75-.11,1.83,0,2.66-2.42-.03-3.75-2.04-3.31,1.34-.23.03-.48-.05-.66,0-.22.06-.52-.08-.66,0-.19.11-.52.05-.66.33-.1.21-.02.66,0,1,.01.23-.06.62,0,.67-.32,1.29-1.14,1.05-1.99,1.33-2.91.96-8.61,9.51-10.63,12.98-8.21,14.11-12.43,28.26-16.9,43.68-1.38,4.75-4.81,11.49-4.97,16-.03.89.02,1.78,0,2.67-.54.21-1.37,1.53-2.34.02-1.79-2.77,3.7-16.74,4.81-20.54,3.53-12.13,6.86-21.46,12.3-32.97,2.14-4.52,6.59-10.6,7.79-15.17,3.15-1.99,5.14-6.52,7.78-9.36.87-.93,4.87-3.49,5.3-4.15,1.52-2.34-.9-8.87-1.14-11.82-.21-2.59.99-2.88,3.32-2.67Z"/>
      <path class="cls-3" d="M44.45,118v2c-1.45.01-3.89-.51-5.63-.69-.87-.09-2.8.63-2.34-.97.23-.78,6.59-.13,7.96-.34Z"/>
      <path class="cls-5" d="M22.56,118c2.94,1.01,2.81,1.57,0,2.67.02-.89-.03-1.78,0-2.67Z"/>
      <path class="cls-1" d="M33.17,52c.11-.1,1.04-.01,1.68-.62,2.54-2.43,2.98-4.68,7.28-5.39,2.95-.49-.72,2.13-.96,2.4-.58.62-.6,1.51-.69,1.61-.58.59-1.4,1.4-1.99,2-.13.14-1.5.38-2.35,1.28-1.56,1.65-5.66,7.54-6.96,8.38-.78.5-1.45.19-1.96.34-1.07.32-2.16.72-3.31.66l1.32-3.33c3.67-2.06,3.2-2.73,5.31-4.67,1.12-1.04,1.93-1.98,2.65-2.67Z"/>
      <path class="cls-5" d="M25.21,59.33l-1.32,3.33c1.15.06,2.24-.34,3.31-.66-.48,3.08-7.45,2.96-9.58,2.62s-8.13-3.88-5.35-5.94c5.38,5.03,7.27,3.85,12.94.65Z"/>
      <path class="cls-4" d="M85.58,92.67c-.3,6.67-1.7,13.33-1.99,20,1.32.04,2.66-.05,3.98,0,.41,1.88-1.13,1.47-2.33,1.37-1.59-.13-2.85-.05-3.55-1.85.57-6.51,1.75-12.97,1.9-19.52h1.99Z"/>
      <path class="cls-5" d="M20.57,20c8.25,2.68,19.58,4.66,28.23,5.32,1.26.1,2.66.62,2.29-1.32.23-.02.47.04.66,0,2.5-.58,6.57-1.75,9.29-2,.34.79-.63,1.74-.66,2-2.32-.21-3.53.07-3.32,2.67-3.9-1.44-7.42.29-11.6-.01-7.62-.54-17.5-2.65-24.89-4.65v-2Z"/>
      <path class="cls-2" d="M51.09,24c.38,1.95-1.03,1.42-2.29,1.32-8.66-.67-19.98-2.64-28.23-5.32-1.05-.34-2.4.87-1.99-1.33,1.91.49,11.64,3.33,12.27,3.33h10.62c1.72,0,6.23,2.31,9.62,2Z"/>
      <path class="cls-4" d="M21.23,10c.24.03.9.57,1.99.67,1.86.17,3.85-.13,5.31,0,.36.03,1.64,1.2,2.65.67v.67c-5.66-.03-7.32-.64-12.61-1.33.08-.32.35-.61.66-.67.5-.09,1.47-.07,1.99,0Z"/>
      <path class="cls-4" d="M15.92,10.67c-.26,1.55-1.71,2.38-1.24,4.18.5,1.92,3.4,1.77,3.23,3.82-4.92-1.24-7.93-7.16-1.99-8Z"/>
      <path class="cls-2" d="M6.63,17.33c4.12.47,2.06.98,2.65,1.33-1.99-.35-3.12,5.09-3.32,6.67-1.87-2.37.21-5.52.66-8Z"/>
      <path class="cls-5" d="M17.25,10.67c-.78-2.64,2.34-3.03,1.99-.67-.31.05-.58.35-.66.67-.42-.06-.89.03-1.33,0Z"/>
      <path class="cls-5" d="M21.23,10l.34-.66c1.56-.14,1.87-.25,1.65,1.33-1.09-.1-1.75-.64-1.99-.67Z"/>
      <path class="cls-5" d="M26.54,8c-.3.02-1.59,1.97-1.33-.67l1.33.67Z"/>
      <path class="cls-3" d="M65.02,22.67c.87.25,1.75.54,2.65.67l-1.33,1.99c-1.57-.41-2.83-1.05-4.65-.67-.24,4.26.54,8.5,1.33,12.67.04.21-.05.45,0,.67h-.66c-.22-1.03-1.7-2.66-1.95-4.38-.32-2.2-.31-7.38-.04-9.62.03-.26,1-1.21.66-2,1.78-.16,2.46.23,3.98.67Z"/>
      <path class="cls-5" d="M99.52,25.33c1.03-.13,2.4.2,3.32,0v.67c.31,2.48-3.52.97-5.3,1.34,0,1.17,1.87.28,1.32,1.99v.67c-.43-.04-.9.06-1.33,0,.38-1.78-.88-1.32-1.98-1.64-2.89-.86-7.06-.91-8.64-3.68,3.24-.69,5.9,1.22,8.95,1.37,1.96.1,2.68-.59,3.65-.71Z"/>
      <path class="cls-5" d="M76.96,32l-.66,1.33c-.07.04.04.44,0,.67h-3.32c.19-.98-.15-2.31,0-3.33.05-.3.58-.87.66-2l2.65-.67h.66c-.15,1.07-.08,2.87,0,4Z"/>
      <path class="cls-3" d="M76.3,25.33v2.67l-2.65.67c.08-1.09,0-2.24,0-3.33.75-.15,2.08.21,2.65,0Z"/>
      <path class="cls-4" d="M82.27,68.67c1.77-.38,1.31.89,1.63,1.99.96,3.26,1.47,6.62,1.68,10.01-2.01.39-1.17-.98-1.42-2.21-.67-3.31-1.39-6.44-1.9-9.79Z"/>
      <path class="cls-4" d="M82.27,67.33h-.66l.66-1.33c.09.87-.01,1.25,0,1.33Z"/>
      <path class="cls-4" d="M107.48,6c-1.06,2.03-3.59,1.91-5.55,2.75-1.39.59-1.24,1.23-3.74,1.91,0-1.77,5.05-4.18,6.63-4.67,1.79-.55,2.34.03,2.65,0Z"/>
      <path class="cls-2" d="M94.87,12v.67c-1.29.91-2.22,2.46-3.98,2.67,1.87-1.83.23-1.46,3.98-3.33Z"/>
      <path class="cls-4" d="M97.53,10.67c-.33,1.65-1.98,1.53-2.65,2v-.67c.99-.49.95-.7,2.65-1.33Z"/>
      <path class="cls-4" d="M72.98,38.67c-1.56,1.23,2.06,5.3,2.65,7.33-2.12.27-1.96-3.18-3.98-4,.17-.88-.34-2.67.11-3.25.25-.33.99.01,1.22-.09Z"/>
      <path class="cls-4" d="M76.96,50.67c-.06-.13-1.07-.35-1.24-1.08-.28-1.13.59-.87.58-.92.95.28,2.06,1.68.66,2Z"/>
      <path class="cls-4" d="M57.06,64c-.23,1.41-.7,4.06-1.99,3.33.56-3.48.22-7.52,1.99-10.67,0,2.09.4,4.9,0,7.33Z"/>
      <path class="cls-4" d="M57.72,51.33c.07.86,2.18,3.77-.66,3.33-.06-1.18-.24-2.36.66-3.33Z"/>
      <path class="cls-2" d="M80.94,38.67c.16,1.42.08,1.49-1.33,1.33-.62-.49-1.36-.44-1.99-.67.31-1.78-.42-1.36-1.99-1.33-.04-.72.57-1.45.66-2,2.17-.58,3.62,2.13,4.64,2.67Z"/>
      <path class="cls-1" d="M76.3,34c-.07.42.09.95,0,1.33-2.84-.89-1.63,1.85-2.33,2-1.95.44-1.78-.29-1.66-2,.14-.13.62-1.11.66-1.33h3.32Z"/>
      <path class="cls-4" d="M75.63,38c1.57-.03,2.3-.45,1.99,1.33-.48-.17-1.66-.62-1.99-.67v-.67Z"/>
      <path class="cls-2" d="M74.31,38.67c-.4.04-1.2-.1-1.33,0,.19-.08.39-.71.9-.57l.42.57Z"/>
      <path class="cls-5" d="M61.04,42c-.33.03-.95-.16-1.99,0-.43-3.37.9-1.36,3.31-1.34-.1-.83.17-1.91,0-2.66h.66c.6,2.83,3.5,3.47-1.99,4Z"/>
      <path class="cls-2" d="M57.72,42.67l-.66.67c-.02-.34-.1-.79,0-1,.14-.28.47-.23.66-.33v.67Z"/>
      <path class="cls-5" d="M57.72,42.67v-.67c.15-.08.44.06.66,0-.21.24-.44.44-.66.67Z"/>
      <path class="cls-3" d="M84.26,40c-.03,1.9,2.24,2.32,1.99,4-.88.01-1.77,0-2.65,0-.22,0-.45.03-.66,0,.45-1.92-1.02-1.11-1.33-1.33-1.19-.85-1.85-2.56-1.99-2.67,1.41.16,1.49.08,1.33-1.33.17.09,2.61,1.03,3.32,1.33Z"/>
      <path class="cls-5" d="M120.75,46.67c.35,0,1.06,0,1.33,0,.65.02,1.39-.09,1.99,0,.12.02.4.55.66.67-.06.04.28,1.15-.44,1.34-2.4.64-5.29-.63-6.86-.68v-1.33c1.09.08,2.22-.02,3.32,0Z"/>
      <path class="cls-5" d="M98.19,46v1.33c-2.15-.55-3.8-1.63-5.97-1.33l-1.32-1.67c2.18-1.12,5.3,1.3,7.29,1.67Z"/>
      <path class="cls-5" d="M112.12,48c-.62.04-3.05,2.17-2.65-.67.89.14,1.87-.25,2.65.67Z"/>
      <path class="cls-2" d="M114.11,20.67c.41,2.11-.21,1.6-1.29,2.35-2.6,1.81-6.8,3.18-9.99,2.98v-.67c3.24-.71,8.22-3.09,11.28-4.67Z"/>
      <path class="cls-2" d="M110.13,28c.43-.05.92.08,1.33,0,.46,2.27-3.59,1.74-5.31,2v-1.33c.44,0,.89.03,1.33,0,.84-.06,1.79-.56,2.65-.67Z"/>
      <path class="cls-2" d="M104.82,29.33v.67c-3.05.26-2.9.3-5.97,0v-.67c1.13-.22,5.55.31,5.97,0Z"/>
      <path class="cls-3" d="M114.11,26v1.33c-.95.19-1.9.53-2.65.67-.4.08-.9-.05-1.33,0v-.67c1.2-.35,2.64-.92,3.98-1.33Z"/>
      <path class="cls-2" d="M116.1,25.33c.3,2.93-.28,1.65-1.99,2v-1.33c.55-.17,1.46-.47,1.99-.67Z"/>
      <path class="cls-5" d="M106.15,28.67v1.33c-.42.06-.89-.04-1.33,0v-.67c.09-.07-.18-.95.1-1.24.56-.58,1.15.57,1.22.58Z"/>
      <path class="cls-5" d="M110.13,27.33v.67c-.87.11-1.82.61-2.65.67-.46-2.3,1.3-.94,2.65-1.33Z"/>
      <path class="cls-4" d="M116.77,19.33v-.67h.66c-.21.22-.43.49-.66.67Z"/>
      <path class="cls-4" d="M128.05,44.67c.84,3.12-2.44,2.04-3.32,2.67-.26-.12-.54-.65-.66-.67.88-1.06,3.2-1.42,3.98-2Z"/>
      <path class="cls-4" d="M81.6,42.67c.31.22,1.78-.58,1.33,1.33-1.24-.16-1.52.52-1.33-1.33Z"/>
      <path class="cls-4" d="M122.07,46.67c-.27,0-.97,0-1.33,0l.99-.66.34.66Z"/>
      <path class="cls-2" d="M76.96,32c0,.07,1.08.9.66,1.33-.15.15-1.05-.15-1.32,0l.66-1.33Z"/>
    </g>
  </g>
</svg>