<?xml version="1.0" encoding="UTF-8"?>
<svg id="Layer_2" data-name="Layer 2" xmlns="http://www.w3.org/2000/svg" viewBox="0 0 174 148">
  <defs>
    <style>
      .cls-1 {
        fill: #9b9787;
      }

      .cls-2 {
        fill: #473e2c;
      }
    </style>
  </defs>
  <g id="Layer_1-2" data-name="Layer 1">
    <g>
      <path class="cls-1" d="M174,52c-2.19-.25-1.04,2.3-2.36,3.97-3.21,4.06-11.1,4.2-14.17-.38-.18-3.32-4.39-7.59-4.07-10.58.03-.31,2.62-5.29,2.83-5.52,2.65-2.89,8.29-1.87,10.92.71l6.84,10.47v1.33ZM163.37,42c-.26.15-1.49-.32-1.86.09-.47.52.14,2.6-1.13,3.24l-.98-2.34-2,.69,4.35,10.95c1.92,3.34,7.65-1.04,8.18-3.1.63-2.48-3.08-5.21-4.56-6.86,4.05.72,1.41-4.76-1.57-4.02-.68.17-.37,1.32-.43,1.35Z"/>
      <path class="cls-1" d="M33.87,39.33c-1.96.3-1.45-.75-1.03-2.03.74-2.25,7.33-9.9,9.47-10.5,1.73-.48,4.11.37,5.5-.48,1.25-.76,2.58-4.45,3.62-5.7,3.47-4.14,11.9-7.19,17.14-5.8,1.53.41,3,2.89,4.69,2.45.39-.1,4.86-4.82,5.72-5.68.71-.72.57-1.9,1.14-2.32,3.35-2.48,16.7-3.21,20.16-.25.65.55.52,1.74.88,2.09,1.17,1.13,2.51,1.71,3.75,3.24.84,1.04,3.21,5.53,3.71,5.64.65.14,3.25-2.19,4.76-2.51,3.66-.77,9,.32,11.47,3.18-2.59-.22-4.53-1.95-7.3-1.33l1.99,3.33c-6.29-1.16-10.96-1.8-11.9,5.72-.89,7.13-.82,15.28-2.13,22.53-.5,2.77-2.25,13.69-6.14,12.98-1.58-.29-3.29-5.38-.43-5.23.08,1.08.04,4.45,2.01,3.02.4-.29,3.31-8.85,3.31-9.35v-9.67c-1.51.23.56,2.73-2.66,2,.2-4.62,3.51-11.91,4.5-16.48,1.76-8.14-7.34-15.19-14.81-14.88-1.66.07-4.59.6-6.1,1.23-2.38.99-8.27,7.61-8.73,9.96-.51,2.6,1.67,3.77,2.4,6,2.02,6.19,2.93,14.2,5,20.98.49,1.61,3.91,7.04.05,7.76-4.86.9-4.55-13.88-5.34-17.11-.91-3.69-6.43-16.32-8.83-19.13-2.94-3.45-6.56-3.6-10.65-2-.36.14-3.82,2.18-3.97,2.35.1-.1-.05-.96.73-1.61.66-.54,5.28-3.24,5.89-3.42,6.75-2,10.13,6.06,12.91,10.45.26.41.77,2.38,1.72,1.24.23-.27-1.91-4.03-1.16-6.83.45-1.7,5.92-8.1,7.57-9.07,3.29-1.92,8.53-2.49,12.22-1.79,2.06.39,4.01,1.87,5.63,2.35,2.79.84-1.19-3.83-3.35-4.64-3.12-1.16-10-1.08-13.09.16-4.01,1.6-9.34,8.77-10.26,9.05-3.69,1.15-3.12-2.93-7.34-3.05-4.78-.13-11.07,1.54-14.13,5.46-.32.41-3.12,5.2-3.2,5.51-.38,1.38,1.45,5.44,2.22,6.88.22.41.69,2.53,1.66,1.3.62-.79-3.58-6.22.39-11.3.49-.63,1.47-.57,1.6-.7-.13.15-1.24,3.3-1.29,3.71-.68,4.99,2.87,10.39,4.13,15.11l10.11,18.53c.8,2.51-1.52,2.36-2.99.32-1.81-2.51-4.83-7.33-6.52-10.12-4.02-6.65-7.01-13.95-10.36-20.94-2.56-2.14-5.13,3.09-7.69,3.4.15-.89.75-1.71.66-2.66-4.12.61-6.55,4.97-7.3,8.66ZM83.01,52.67c-1.71-1.66-2.24,4.6.67,3.99.24-.29-.42-3.75-.67-3.99Z"/>
      <path class="cls-1" d="M31.88,82c1.66,1.15,1.16,1.18,1.33,1.33.53.47,11.18,6.43,12.13,6.83,1.99.84,11.38,3.03,12.34,4.6,1.28,2.08-1.22,2.82-1.25,3.01-.19,1.16.95,2.69.41,3.58-.19.31-5.39,2.89-6.36,3.32l.99-4.01c-4.21.72-8.03,4.43-12.1,5.18-3,.56-4.69-.46-7.09-.44-1.57.01-5.01,1.24-2.06,1.93,8.14,1.9,7.16.65,14.13-1.17.99-.26,2.25.02,2.8-.15l-7.12,3.85c-1.71,1.45-10.86-3.03-10.14.48.48,2.34,12.75,4.87,15.47,5.84,1.06.38,2.13.24,1.79,1.83-2.36-.6-4.82-1.38-7.31-1.33.89,2.3,4.21,2.42,5.8,3.53.33.23.11,1.08.18,1.13-1.77.7-1.9-1.06-2.51-1.28-1.91-.69-5.59-2.12-7.26-2.59-4.36-1.23-.57,4.43.57,6.13,3.28,4.89,12.94,13.37,19,14.23,2.4.34,4.8-.11,7.05.26,4.17.68,8.11,2.38,12.36,2.58,1.25-1.3-6.23-9.59-1.76-9.25,2.29.17,2.49,3.11,3.54,4.43,2.85,3.57,5.62,5.32,10.18,6.15-.12,0-.82.77-2.2.66-2.71-.22-4.41-2.1-6.43-3.01-2.33-1.04-2.54,1.66.03,3.32,2.03,1.31,5.79.72,5.95,3.03-6.82-.08-17.65-4.88-24.41-5.83-13.4-1.88-16.31-.56-26.06-10.84,3.81.12,6.06,4.5,9,5.31,1.29.35,1.24-.93.94-1.61-.35-.79-5.62-4.27-6.63-5.53-.71-.89-3.93-6.23-4.46-7.34-2.06-4.37-.35-5.01-4.13-8.55-.19-.17-1.73-3.39-2.03-1.27-1.01,7.34,4.68,11.94,6.64,18.33-.05-.06-.83.2-1.36-.45-3.84-4.74-12.55-22.53-2.25-24.18,3.11-.5,6.29.7,8.93.36,5.73-.74,10.49-6.49,16.88-5.05l.4-1.68c-4.17-1.8-8.5-3.32-12.56-5.4-3.24-1.67-8.15-5.67-11.36-6.93.58-.15,1.89-1.54,1.33-2-.33-.28-1.77.76-1.33-1.33Z"/>
      <path class="cls-1" d="M134.82,101.33c7.73,1.44,23.06-1.81,20.13,10.55-2.75,11.62-16.03,27.19-27.93,29.3-2.46.44-4.18-.4-6.19-.22-1.79.17-3.61,1.6-4.98,1.68-1.45.09-3.06-.7-5.18-.58-6,.35-11.77,4.94-18.79,5.22-1.6.06-4.18-.38-5.54-1.29,2.53.04,6.6-.34,9.43-.87.8-.15,10.98-2.56,9.16-4.46l-5.31-1.34c1.72-1.78,3.58-6.56,4.66-8.86.28-.6,2.33-1.07,1.32-3.8.3.25,1.95.6,2.65,2,.87-3.16-.59-3.27-1.29-4.51-.26-.45.09-1.3-.03-1.49l9.69-3.94c2.74-1.34,6.93,1.29,7.73,1.17,2.5-.39,4.33-2.28,6.36-3.05,3.37-1.27,6.95-1.77,10.76-2.84l-1.33,3.33,1.99.67c-4.01,1.05-10.75.02-13.21,4.4-1.1,1.95-.26,6.18-2.73,6.26.09-3.78,2.89-8.09-3.32-7.34-.02.89,0,1.78,0,2.67-4.04-1.97-5.22-.75-9.03-.07-1,.18-4.1-.08-4.25.07-.22.22.21,4.75-.16,6.18-.66,2.62-3.35,4.55-4.15,5.83-2.52,4.07,1.81,1.97,3.34,1.96,3.31-.02,4.46.85,8.27.03l.35,2.67c.93-.69,5.14-1.81,5.48-2.16.43-.44,2.1-5.57,3.48-6.51.03,1,.51,2.49,0,4,1.05-.11,2.33.18,3.32,0-1.04,3.04,2.86,1.65,4.14,1.15,3.44-1.34,14.54-12.85,15.63-16.31.66-2.07-.45-1.52-1.84-1.51.2-.49.84-2.51.66-2.66-1.03.13-2.39-.21-3.32,0,.33-4.17,6.36-1.73,6.63-2,.17-.17,1.81-4.23,1.87-4.48,2.04-8.55-12.05-5.25-16.36-6.63-1.23-.4-2.18-.67-2.1-2.23Z"/>
      <path class="cls-1" d="M11.29,88h-1.99c-.07-.41.05-.9,0-1.33.23.22.96.23,1.99,1.33Z"/>
      <path class="cls-1" d="M37.19,46.67c-5.97-.45-3.69,6.48-3.32,10-5.6-2.06-1.35-7.96-.66-11.33,2.35.14,2.28-.53,3.98,1.33Z"/>
      <path class="cls-1" d="M33.87,40.67c-.29,1.51-.37,3.25-.66,4.67-1.14-.07-1.51-.95-2.95.7-4.01,4.57-.72,8.3-.27,13.25l1.9,2.05c-7,1.27-6.94,14.55-1.99,18.67-.39-.24-1.38.24-2.67-.97-3.46-3.23-3.48-8.09-2.33-12.38.46-1.74,4.65-5.66,3.67-6.64-1.75-1.76-6.79,6.08-7.15,7.81-.77,3.75.02,8.21,1.84,11.52-1.77,0-2.21-.59-1.93,1.59.2,1.53.35,4.26.63,5.37,1.15,4.57,6.32,6.68-.11,11.29-7.55,5.41-12.81-3.03-14.54-9.59.6.08,1.35,0,1.99,0,.24,1.45,2.08,6.29,3.05,7.27,1.68,1.69,3.66,2.31,2.93-.6,9.84,1.65,3.48-4.72,2.8-7.81-.94-4.24.91-6.92-2.78-11.21s-7.77.75-6.65,2.34c.16.23,4.09.87,4.64,1.67-2.98,2.08-6.94-1.77-5.97,4.34-.12-.1-.86.32-1.39-.41-1.52-2.11,2.43-8.61,3.38-10.92-5.31.85-7.1,5.17-5.81,10.17.47,1.81,2.97,3.12,3.16,5.16-2.88-.63-4.89-4.38-5.19-7.18-.69-6.27,6.6-12.32,12.53-10.51,1.03.31,4.74,3.67,5.28,3.02-.3-4.83,1.34-10.3,5.16-13.33.73-.58,4.11-1.83,4.19-2.4.22-1.48-1.8-2.85-2.04-4.66-.39-2.98,1.69-6.24,3.31-8.61.59-.87,2.75-3.62,3.99-3.67Z"/>
      <path class="cls-1" d="M144.78,50c.07.11,1.19-.54,1.39.95.4,2.97-.95,5.59-1.39,8.38-.32.13-.98-.13-1.33,0,1.09-3.12,1.65-5.98,1.33-9.33Z"/>
      <path class="cls-1" d="M125.52,21.33c4.61,2.36,7.95,7.52,9.13,12.51.29,1.21-.09,3.52.25,4.08.28.45,3.93.82,5.04,1.28,4.71,1.96,8.71,5.1,10.63,9.99,2.85,7.28-4.5,10.99-4.51,13.16,0,.38,3.89,4.88,4.54,6.14s2.78,6.69,2.73,7.88c-.05,1.1-3.21,7.97-5.23,7.63.42-.67,2.86-5.43,3.01-5.98,1.03-3.75-.43-3.51-1.37-6-.53-1.43-.1-3.92-1.98-4.68-1.43-.58-.85.69-.73,1.4.38,2.17,1.08,3.36,1.07,5.93l-3.95-8.37c-3.45-3.22-11.19,3.92-14.72,5.96-1.75,1.01-4.55,1.81-6.73,3.1-.4.24-5.77,5.86-6.48,2.3-.52-2.59,6.27-4.31,7.55-5.08,6.45-3.9,12.44-8.85,19.02-12.58-.14.18-1.36,2.82-1.33,2.98,4.77,3.23,2.87-.75,3.33-3.65,5.58-2.32,5.16-10.36,1.32-14.33-2.19-2.26-7.34-5.61-3.98.33-1.93.29-6.37-3.44-7.86-2.57-1.36.79-6.52,11.42-9.4,13.9-.48-2.37,1.91-3.35,2.6-4.53.49-.83.6-2.18,1.24-3.28.8-1.36,5.28-7.94,5.33-8.62.08-1.03-.94-1.77-1.01-2.65-.07-.93.52-1.87.36-3.07-.45-3.26-5.67-10.33-7.85-13.18ZM145.77,64.67v.67c.43-.22.43-.44,0-.67Z"/>
      <path class="cls-1" d="M146.77,85.33c-.16.23,0,1.01-.66,1.65-2.1,2.01-13.06,6.04-16.32,6.98-1.46.43-7.34,1.09-7.6,1.37-.13.14.08,1.45,0,1.99.41.41,10.61-.26,10.63,3.34-1.98-.49-3.85-1.49-5.97-1.33-1.61,1.66,3.55,3.54,4.45,4.17.39.27.13,1.11.2,1.16-2.08-.6-3.54-2.12-5.8-2.51-5.28-.91-11.34,2.57-9.98-5.01,1.09-6.11,3.83-4.3,7.85-5.45s7.95-2.99,11.92-4.37l-.33,2.67c4.06-.37,7.58-3.74,11.62-4.67Z"/>
      <path class="cls-2" d="M124.85,20.67c.2.23.47.42.66.67,2.18,2.85,7.41,9.92,7.85,13.18.16,1.2-.43,2.14-.36,3.07.07.87,1.09,1.61,1.01,2.65-.05.68-4.53,7.27-5.33,8.62-.64,1.1-.76,2.45-1.24,3.28-.69,1.19-3.08,2.17-2.6,4.53-.23.2-.43.46-.66.67-1.98,1.71-3.31,1.07-4.65,4.67-.07.18.05.44,0,.67-1.41-.16-1.49-.08-1.33,1.33-.22.22-.45.44-.66.67-1.64-.34-1.45.56-1.33,2-.23.2-.41.48-.66.67-1.55-.44-4.37,4.35-5.31,3.33-1-1.09,2.82-4.09,2.65-5.33.33-2.05,2.41-2.9,3.32-4,1.26.21,1.56-.06,1.33-1.33.21-.25.47-.44.66-.67,1.9.32,1.61-1.55,1.99-2,.11-.13,2.02.42,1.33-2,.72-.88,2.11-2.53,2.66-3.33,1.61.34,1.48-.6,1.33-2,.29-.49.44-.92.66-1.33,2.14.08,4.58-6.51,4.66-7.75.06-.97-.68-1.49-.67-1.58.02-1.29.11-2.74,0-4,0-.05.52-.37.49-.87-.07-1.07-.99-4.42-2.48-3.79-1.9-4.32-4.54-6.2-8.63-8l-1.99-3.33c2.77-.62,4.71,1.11,7.3,1.33Z"/>
      <path class="cls-1" d="M30.55,19.33c.55.23,4.96.78,5.53.59.25-.08,3.16-3.98,3.17-4.24.1-1.53-.42-2.91-.74-4.35-4.02,2.01-6.23,1.52-6.63-3.33h4.65c.24-2.34.07-4.04-2.49-4.54-1.21-.23-2.38,1-3.48-1.46,9.39-3.19,15.17,9.42,12.11,17.15-4.04,10.23-22.66,4-19.93-9.34.51-2.51,1.38-2.83,3.17-3.82-1.2,3.19-2.34,9.8-.67,12.84.31.57,6.54,4.76,5.32.49Z"/>
      <path class="cls-2" d="M132.82,100.67c.7.17,1.48.57,1.99.67-.08,1.56.87,1.83,2.1,2.23,4.31,1.38,18.4-1.92,16.36,6.63-.06.25-1.69,4.31-1.87,4.48-.28.27-6.3-2.17-6.63,2-.15.03-1.38,1-2.66,1.33l-1.99-.67,1.33-3.33c1.26-.36,3.55-.85,4.65-1.33.32-.14.83-.09,1.33-.35.75-.4.9-1.19,1.33-1.65.92-.99.75-.56,1.33-2,.19-.47,1.08-.89.66-1.99-5.61-1.56-11.7.26-17.27-1.34-.7-.2-1.33-.2-1.99-.67-.07-.05.19-.89-.2-1.16-.89-.63-6.06-2.51-4.45-4.17,2.12-.16,3.99.84,5.97,1.33Z"/>
      <path class="cls-2" d="M33.21,128.67c-1.96-6.39-7.65-10.99-6.64-18.33.29-2.12,1.84,1.1,2.03,1.27,3.79,3.54,2.07,4.18,4.13,8.55.53,1.12,3.75,6.45,4.46,7.34,1.01,1.26,6.28,4.74,6.63,5.53.3.68.35,1.97-.94,1.61-2.93-.8-5.19-5.18-9-5.31-.22-.23-.45-.43-.66-.67Z"/>
      <path class="cls-2" d="M87,142c2.17-.01,4.5-.15,6.64,0,.3.02,1.59,1.97,1.33-.67,1.37-.26,3.67-.99,4.65-2l5.31,1.34c1.82,1.9-8.36,4.31-9.16,4.46-2.83.52-6.9.9-9.43.87-.66,0-1.33,0-1.99,0-.16-2.31-3.92-1.72-5.95-3.03-2.57-1.66-2.36-4.36-.03-3.32,2.02.9,3.71,2.79,6.43,3.01,1.38.11,2.09-.66,2.2-.66Z"/>
      <path class="cls-2" d="M23.24,79.33c-1.82-3.31-2.62-7.77-1.84-11.52.36-1.73,5.4-9.57,7.15-7.81.98.98-3.21,4.9-3.67,6.64-1.15,4.29-1.12,9.15,2.33,12.38,1.29,1.21,2.29.73,2.67.97,1.16.72,1.56,1.7,1.99,2-.44,2.1.99,1.06,1.33,1.33.56.46-.75,1.85-1.33,2-.31-.12-.93.1-1.33,0,.16-1.42.08-1.49-1.33-1.33-.06-.1-.46.08-.66,0,.41-1.74-1.3-1.65-2.66-2-.82-.82-2.01-1.5-2.66-2.67Z"/>
      <path class="cls-2" d="M33.21,45.33c-.69,3.37-4.93,9.27.66,11.33.02.22-.03.45,0,.67.17,1.36.25,2.68.66,4-.64.08-1.38-.1-1.99,0-.21.04-.45-.04-.66,0l-1.9-2.05c-.44-4.95-3.74-8.68.27-13.25,1.44-1.65,1.81-.76,2.95-.7Z"/>
      <path class="cls-2" d="M33.87,39.33c.75-3.7,3.18-8.05,7.3-8.66.09.95-.51,1.77-.66,2.66-.04.22.04.46,0,.67-3.75,1.74-3.98,7.77-1.63,10.66.59.72,1.55.58,1.63.67,1.36,1.58,2.22,3.32,3.32,4.67l-.32,2.66-4.99-3.99c-.46-.61-1.04-1.68-1.33-2-1.71-1.86-1.64-1.2-3.98-1.33.29-1.42.37-3.16.66-4.67.08-.41-.08-.93,0-1.33Z"/>
      <path class="cls-2" d="M148.1,84c-.1.17-.88.72-1.33,1.33-4.04.93-7.56,4.31-11.62,4.67l.33-2.67c.49-.17,1.49.17,1.99,0,3.51-1.16,2.84-1.42,4.65-3.33.51-.54.54-.75,1.33-1.33.88-.65,1.75-.3,2.96-2.03.81-1.16,1.52-3.23,1.69-4.64.05-.42,0-.9,0-1.33,0-2.57-.7-3.76-1.07-5.93-.12-.71-.7-1.98.73-1.4,1.89.76,1.45,3.25,1.98,4.68.93,2.49,2.4,2.26,1.37,6-.15.55-2.59,5.31-3.01,5.98Z"/>
      <path class="cls-2" d="M25.9,6c1.24-.68,2.47-1.5,3.98-1.33.78,2.46-2.06,2.4-2.54,3.77-.93,2.65.34,9.71,3.21,10.9,1.22,4.27-5.01.07-5.32-.49-1.67-3.04-.53-9.65.67-12.84Z"/>
      <path class="cls-2" d="M6.64,88c-.19-2.04-2.69-3.35-3.16-5.16-1.29-5,.5-9.32,5.81-10.17-.95,2.3-4.89,8.8-3.38,10.92.52.73,1.26.31,1.39.41,1.59,1.28,1.68,2.37,1.99,2.67.05.43-.07.92,0,1.33-.64,0-1.39.08-1.99,0-.22-.03-.46.05-.66,0Z"/>
      <path class="cls-2" d="M11.29,88c.21.23.45.44.66.67-.18,1.56.28,2.74,1.99,2.67.18.4,1.28,3.16,1.33,3.33.74,2.91-1.25,2.29-2.93.6-.97-.98-2.81-5.82-3.05-7.27h1.99Z"/>
      <path class="cls-1" d="M25.9,82c1.36.35,3.06.26,2.66,2-3.15-1.32-1.54-.88-2.66-2Z"/>
      <path class="cls-1" d="M29.22,84c1.41-.16,1.49-.08,1.33,1.33-2.33-.57-.65-.18-1.33-1.33Z"/>
      <path class="cls-2" d="M163.37,42c.06-.04-.26-1.18.43-1.35,2.97-.74,5.62,4.74,1.57,4.02-.75-.84-1.48-1.66-1.99-2.67Z"/>
      <path class="cls-2" d="M55.12,23.33c-.13.13-1.11.07-1.6.7-3.97,5.08.23,10.51-.39,11.3-.97,1.24-1.45-.89-1.66-1.3-.77-1.44-2.6-5.5-2.22-6.88.08-.31,2.88-5.09,3.2-5.51,3.06-3.93,9.36-5.6,14.13-5.46,4.22.12,3.65,4.2,7.34,3.05.92-.29,6.26-7.46,10.26-9.05,3.1-1.24,9.97-1.32,13.09-.16,2.16.81,6.15,5.48,3.35,4.64-1.62-.49-3.56-1.96-5.63-2.35-3.69-.7-8.93-.13-12.22,1.79-1.65.96-7.12,7.36-7.57,9.07-.75,2.8,1.39,6.56,1.16,6.83-.95,1.13-1.46-.83-1.72-1.24-2.78-4.39-6.16-12.45-12.91-10.45-.61.18-5.23,2.88-5.89,3.42-.78.65-.63,1.51-.73,1.61Z"/>
      <path class="cls-2" d="M98.95,58.67c-.05-.63-.05-1.37,0-2,.37-.02,1.12.16,1.28-.04.18-.23,1.2-5.21,1.26-5.85.1-1.01-.55-1.37-.55-1.45,0-.44.03-.89,0-1.33,2.69.32.73-1.38.66-2-.04-.42-.02-.9,0-1.33,3.22.73,1.15-1.77,2.66-2v9.67c0,.5-2.91,9.06-3.31,9.35-1.97,1.44-1.93-1.93-2.01-3.02Z"/>
      <path class="cls-2" d="M83.01,52.67c.25.25.91,3.71.67,3.99-2.91.61-2.38-5.65-.67-3.99Z"/>
      <path class="cls-2" d="M47.15,118c.21.05.46-.05.66,0,.58.86,1.52,2.23,2.36,2.75s.92-.09.97-.08c1.95.43,1.65.27,3.32,0,1.17-.19,2.25-1.06,3.07-1.13,2.02-.18,9.65.93,7.56,4.46-.44,0-.89.04-1.33,0,.38-1.61-.83-1.47-1.95-1.67-3.76-.69-7.88-.82-8.69,3.67-.72.48-2.45-1.4-3.31-2-1.3-.91-2.72-1.76-3.98-2.67-.07-.05.15-.9-.18-1.13-1.58-1.11-4.91-1.23-5.8-3.53,2.48-.05,4.95.72,7.31,1.33Z"/>
      <path class="cls-2" d="M47.15,106c-.55.18-1.81-.1-2.8.15-6.98,1.82-5.99,3.07-14.13,1.17-2.95-.69.49-1.92,2.06-1.93,2.4-.02,4.09,1,7.09.44,4.07-.76,7.89-4.46,12.1-5.18l-.99,4.01c-.42.19-.76.48-1.33.67l-.34-.66c-1.23-.23-1.05.19-.99,1.33-.2.06-.46-.06-.66,0Z"/>
      <path class="cls-2" d="M147.44,119.33c1.39,0,2.5-.56,1.84,1.51-1.1,3.46-12.2,14.96-15.63,16.31-1.28.5-5.18,1.88-4.14-1.15,2.39-.42,4.93-3.31,7.31-4.67.19-.11.92.21,1.23-.1.33-.32,0-1.09.1-1.24,1.48-2.04,2.57-1.6,3.61-2.71.44-.47,5.44-7.34,5.69-7.96Z"/>
      <path class="cls-2" d="M126.18,128.67c-.02,1.1-.03,2.23,0,3.33-1.37.95-3.05,6.07-3.48,6.51-.34.35-4.55,1.47-5.48,2.16l-.35-2.67c2.36-.51,3.02-.02,3.98-2.67,2.12.37,2.59-5.79,2.63-7.13.03-1-.63-1.46-.63-1.54-.01-.89,0-1.78,0-2.67s-.02-1.78,0-2.67c6.21-.75,3.41,3.56,3.32,7.34Z"/>
      <path class="cls-2" d="M103.6,121.33c.98.26,2.63.26,3.32,1.33.13.2-.22,1.04.03,1.49.7,1.24,2.16,1.34,1.29,4.51-.7-1.4-2.35-1.75-2.65-2-1.93-1.56-1.08-1.86-3.98-2.67.38-2.01-3.49-2.59-5.11-2.64-1-.03-1.45.64-1.53.64-.44,0-.89,0-1.33,0,.24-3.28-6.03.57-5.31-2.66,5.12-.29,10.34.69,15.27,2Z"/>
      <path class="cls-2" d="M144.78,59.33c.44-2.79,1.79-5.41,1.39-8.38-.2-1.49-1.32-.84-1.39-.95-.48-.74-1.99-3.49-2.66-4.67-3.36-5.94,1.79-2.59,3.98-.33,3.83,3.97,4.26,12.01-1.32,14.33Z"/>
      <path class="cls-2" d="M144.78,59.33c-.45,2.9,1.45,6.88-3.33,3.65-.03-.16,1.19-2.8,1.33-2.98.21-.27.22-.5.66-.67.34-.13,1.01.13,1.33,0Z"/>
      <path class="cls-2" d="M145.77,64.67c.43.22.43.44,0,.67v-.67Z"/>
      <path class="cls-1" d="M112.9,65.33c.16,1.24-3.65,4.24-2.65,5.33.93,1.02,3.76-3.77,5.31-3.33-.86,2.39-3.78,5.66-6.3,6-2.67-.73,1.73-7.9,3.64-8Z"/>
      <path class="cls-1" d="M126.18,48.67c1.62-2.96,2.6-6.27,3.98-9.33,0,.09.73.61.67,1.58-.08,1.24-2.52,7.83-4.66,7.75Z"/>
      <path class="cls-1" d="M124.19,57.33c-.47,2.04-2.65,4.27-4.65,4.67,1.34-3.59,2.67-2.96,4.65-4.67Z"/>
      <path class="cls-1" d="M128.18,30.67c1.49-.63,2.41,2.73,2.48,3.79.03.51-.49.82-.49.87-1.21-1.24-1.35-3.2-1.99-4.67Z"/>
      <path class="cls-1" d="M121.53,55.33c.69,2.42-1.22,1.87-1.33,2-.39.45-.1,2.32-1.99,2,.86-1.01,1.71-1.67,1.99-2,.21-.25.65-1.17,1.33-2Z"/>
      <path class="cls-1" d="M117.55,64.67c-.21.23-.04.9-1.33,2-.13-1.44-.31-2.34,1.33-2Z"/>
      <path class="cls-1" d="M125.52,50c.15,1.4.28,2.34-1.33,2,.3-.43,1.13-1.66,1.33-2Z"/>
      <path class="cls-1" d="M119.54,62.67c-.55,2.44-.9.9-1.33,1.33-.16-1.42-.08-1.49,1.33-1.33Z"/>
      <path class="cls-1" d="M117.55,60c.23,1.27-.07,1.55-1.33,1.33.82-.98,1.19-1.18,1.33-1.33Z"/>
      <path class="cls-1" d="M133.49,105.33c5.57,1.6,11.66-.22,17.27,1.34.41,1.11-.47,1.52-.66,1.99-.63-1.28-.93-1.27-2.26-1.38-3.98-.33-8.59.57-12.54-.13-1.11-.2-2.13-.37-1.8-1.83Z"/>
      <path class="cls-1" d="M148.76,110.67c-.43.47-.58,1.25-1.33,1.65-.5.26-1.01.21-1.33.35-.07-1.72,1.1-2.18,2.66-2Z"/>
      <path class="cls-1" d="M94.97,141.33c.27,2.63-1.02.69-1.33.67.18-.68.79-.56,1.33-.67Z"/>
      <path class="cls-1" d="M38.52,48.67l4.99,3.99.32-2.66c.07.09,1.1.06,1.61.69,1.11,1.37,1.99,2.8,1.71,4.64-3.03,0-6.18-2.68-7.99-4.99-.48-.61-.46-1.44-.64-1.67Z"/>
      <path class="cls-1" d="M40.51,45.33c-.08-.09-1.04.05-1.63-.67-2.35-2.9-2.12-8.92,1.63-10.66-.9,4.27-2.32,7.03,0,11.33Z"/>
      <path class="cls-1" d="M148.1,76c-.17,1.4-.88,3.48-1.69,4.64-1.21,1.73-2.08,1.38-2.96,2.03l3.45-6.55,1.2-.12Z"/>
      <path class="cls-1" d="M142.12,84c-1.81,1.91-1.13,2.17-4.65,3.33-.2-1.81,3.02-2.89,4.65-3.33Z"/>
      <path class="cls-1" d="M69.73,103.33c-3.92-1.5-1.72-1.35-2.82-2.5-.31-.32-1.34-.1-1.58-.37-3.22-3.73-5.57-10.01-4.34-14.91,2.33-9.25,9.63-11.45,18.4-10.25,2.96.4,5.26,4.09,7.17,3.89,1.76-.18,6.4-4.17,10.69-4.56,10.28-.94,16.85,7.59,14.83,17.55-1.23,6.1-10.32,12-14.91,15.7-3.6,1.04-10.09,6.95-13.45,5.77-.24-.08-3.15-1.63-3.26-1.78-.32-.39,0-1.01-.1-1.21-2.1-.34-3.63-1.48-4.65-3.33.14,0,.47-.86,1.27-.39.23.14,3.12,2.37,3.24,2.54.32.47.05,1,.14,1.18.71.11,3.09.53,2.65-.99-1.5-1.53-3.01-2.15-4.64-3.68,3.16-.65,2.8,2.28,5.82,2.52,1.41.11,2.78-.25,4.14-.52-.36.7-2.31,4.12-.34,3.33,9.37-5.81,26.68-14.04,21.25-27.98-2.61-6.7-10.94-8.22-17.12-5.87-2.94,1.12-4.42,4.27-8.44,3.2-.12.11.55,2.59.66,2.66,2.72,1.83,8.35-4.57,11.63-4.71,5.45-.23,10.49,3.42,10.99,9.05.74,8.27-4.52,11.55-10.67,14.99-.11.15,0,.8-.35,1.3-1.3,1.88-5.34,3.57-7.62,4.03.19-.37-.12-1.03.66-1.65,1.12-.89,5.72-2.8,7.31-3.69,2.93-3.96,7.54-6.62,8.99-11.98,1.83-6.77-5.22-11.74-11.68-9.72-2.55.79-5.53,6.07-8.64,4.05-.61-.39-.5-1.58-.62-1.68-.18-.15-1.08-.15-1.65-.65-2.27-1.95-3.28-4.4-6.65-4.71-6.21-.58-9.17,4.64-8.26,10.32.09.58,1.92,5.32,2.14,5.53.32.31,1.23.22,1.73.6s1.95,2.98,3.4,1.58c1.17-1.12-2.29-5.38-2.62-7.03-.82-4.19,1.91-3.38,3.98-1.33.43.43,4.78,8.31,4.98,8.99,1.82,5.95-1.48,5.3-6.34,5.37-1.75-1.47-4.94-1.98-6.4-4.23-3.96-6.11-3.21-10.71-1.26-17.14,1.18-3.88-3.11-.26-4.16,2.51-2.02,5.34.53,12.81,3.85,17.19.78,1.04,1.52,1.37,2.66,3,2.63,1.01,2.89.71,4.65,3.33-.85-.4-4.08-1.85-4.45-2.23s-.12-.99-.2-1.11Z"/>
      <path class="cls-2" d="M69.73,103.33c-1.14-1.64-1.87-1.97-2.66-3-3.31-4.38-5.87-11.85-3.85-17.19,1.05-2.77,5.34-6.38,4.16-2.51-1.95,6.43-2.7,11.03,1.26,17.14,1.46,2.25,4.65,2.75,6.4,4.23.31.26,2.16,2.91,3.32,4,1.63,1.53,3.15,2.15,4.64,3.68.44,1.52-1.94,1.11-2.65.99-.09-.18.18-.71-.14-1.18-.12-.17-3-2.4-3.24-2.54-.81-.47-1.13.38-1.27.39-.33,0-.77.09-.99,0-.27-.12-.22-.49-.34-.66-1.76-2.63-2.02-2.33-4.65-3.33Z"/>
      <path class="cls-1" d="M93.64,122c-2.85,0-6.98-.4-9.6.03-1.58.26-9.09,4.51-10.32,3.3-2.52-2.5,8.23-7.1,10.27-7.35,5.23-.64,12.71,0,17.68,1.65,1.07.36,2.3.03,1.92,1.7-4.93-1.31-10.15-2.28-15.27-2-.72,3.23,5.55-.62,5.31,2.66Z"/>
      <path class="cls-1" d="M33.87,57.33c1.18,1.89,14.01,12.37,13.28,13.33-.1.13-2.72.92-3.29.37l-11.32-9.69c.61-.11,1.35.08,1.99,0-.41-1.32-.49-2.63-.66-4ZM35.53,61.33v.67c.43-.22.43-.44,0-.67Z"/>
      <path class="cls-1" d="M49.81,124c.86.6,2.59,2.48,3.31,2,.81-4.49,4.93-4.36,8.69-3.67,1.11.2,2.32.07,1.95,1.67-2.22-.19-9.7-1.87-9.13,2.23.12.88,2.55,4.59.15,5.1-1.54.33-4.98-5.64-4.97-7.33Z"/>
      <path class="cls-1" d="M54.46,120.67c-.17-2.02,2.42-2.34,3.85-2.5,2.64-.3,8.34.83,9.32,3.63s-.43,2.25-2.54,2.21c2.09-3.53-5.54-4.64-7.56-4.46-.82.07-1.9.94-3.07,1.13Z"/>
      <path class="cls-1" d="M101.61,124c-1.95-.54-4.89-.26-6.64-2,.08,0,.53-.66,1.53-.64,1.62.05,5.49.63,5.11,2.64Z"/>
      <path class="cls-1" d="M100.95,49.33c0,.08.64.44.55,1.45-.06.64-1.08,5.61-1.26,5.85-.15.2-.9.02-1.28.04.19-2.29.92-5.29,1.99-7.33Z"/>
      <path class="cls-1" d="M51.14,120.67s-.11.61-.97.08-1.77-1.89-2.36-2.75c1.74.44,3.1.09,3.32,2.67Z"/>
      <path class="cls-1" d="M101.61,46c.06.62,2.03,2.32-.66,2-.04-.72-.15-1.69.66-2Z"/>
      <path class="cls-1" d="M49.15,105.33c-.27.09-.64.47-1.33.67-.07-1.13-.24-1.56.99-1.33l.34.66Z"/>
      <path class="cls-1" d="M138.14,130c-.1.14.23.91-.1,1.24-.31.3-1.05,0-1.23.1-.25-1.19.17-1.51,1.33-1.33Z"/>
      <path class="cls-1" d="M122.86,126.67c0,.08.66.54.63,1.54-.04,1.34-.5,7.5-2.63,7.13.99-2.72.49-6.12,1.99-8.67Z"/>
      <path class="cls-1" d="M13.95,91.33c-1.72.07-2.17-1.11-1.99-2.67,1.21,1.29,1.08.62,1.99,2.67Z"/>
      <path class="cls-2" d="M84.34,83.33c-.11-.08-.79-2.55-.66-2.66,4.02,1.07,5.5-2.08,8.44-3.2,6.18-2.35,14.51-.83,17.12,5.87,5.43,13.94-11.89,22.17-21.25,27.98-1.97.79-.02-2.63.34-3.33,2.28-.46,6.32-2.15,7.62-4.03.35-.5.24-1.16.35-1.3,6.15-3.44,11.41-6.72,10.67-14.99-.5-5.63-5.55-9.29-10.99-9.05-3.28.14-8.91,6.55-11.63,4.71Z"/>
      <path class="cls-2" d="M35.53,61.33c.43.22.43.44,0,.67v-.67Z"/>
      <path class="cls-1" d="M81.69,102.67c1.29.14,3.66-.41,4.68.3,3.55,2.45-4.4,7.25-4.68-.3Z"/>
    </g>
  </g>
</svg>