<?xml version="1.0" encoding="UTF-8"?>
<svg id="Layer_2" data-name="Layer 2" xmlns="http://www.w3.org/2000/svg" viewBox="0 0 142 144">
  <defs>
    <style>
      .cls-1 {
        fill: #8d8a86;
      }

      .cls-2 {
        fill: #413e39;
      }
    </style>
  </defs>
  <g id="Layer_1-2" data-name="Layer 1">
    <g>
      <path class="cls-2" d="M18.58,124c-2.47-4.62-3.61-9.12-6.08-13.56-1.81-3.25-5.17-7.94-6.52-11.45-3.18-8.28-5.18-28.63-3.32-37.19.12-.55,1.35-.45,1.69-1.72,1.08-3.95.41-6.18,2.45-10.9C19.62,19.54,49.78,4.7,80.63,2.68c12.11-.79,41.4,4.95,50.11,13.64,15.31,15.27,9.62,37.04,1.78,54.49-1.34,2.97-3.52,5.15-3.79,8.53-1.26,1.24-1.71,1.89-2.65,3.33-1.68.2-2.94,1.81-4,2.98-5.23,5.8-3.96,11.93-7.7,18.93-1.8,3.38-5.49,6.61-6.74,9.23-.88,1.86-.46,4.37-1.15,5.51-.24.41-5.68,5.8-6.61,6.69-7.36,6.97-18.22,12.89-28.55,12.65l.46-2.55c4.2-.61,8.98-1.67,12.84-3.43,1.09-.49,4.9-2.53,4.95-4.03.29-.16,1.41-.96,1.99-1.33.75,1.66,1.93.13,2.67-.32,1.62-.98,6.85-4.91,7.58-6.35.64-1.27.19-2.73.66-4.03,1.58-4.42,8.61-9.82,10.81-15.81,4.74-12.93,3.2-33.8-7.41-43.54-1.02-.93-2.37-1.09-2.81-1.51-3.55-3.45-4.05-5.82-9.91-7.71-12.94-4.18-26.91-.56-37.43,7.27-1.47,1.1-1.65.62-3.32,2.67-5.01,2.39-8.4,8.11-10.53,13.08-.66,1.54-2.33,5.36-2.59,6.73-2.18,11.89,7.22,23.14,16.89,28.73,4.38,2.53,9.2,3.45,13.19,5.41,4.9,2.4-2.47,2.89-3.09,3.8-.25.36-1.97,6.96-2.29,8.22-.72,2.72.86,3.88-2.95,3.37-1.48-3.88,2.27-8.1,1.99-10.94-.44-4.37-5.97-6.45-9.2-8.15-3.46-1.83-3.75-3.93-9.05-2.91-1.15.22-4.93,5.5-4.97,7.33-.2.24-.47.43-.66.67-5.7,4-6.9.82-3-4.01s12.37-5.17,4.87-13.53c-.76-.85-1.02-1.85-2.53-1.79-.25-.46-.44-.86-.66-1.33,1.15-.44-.35-4.59-.81-5.54-.67-1.4-1.56-.89-1.85-1.13-.25-.2-.44-.5-.66-.67.66-4.02-7.43-5.19-10.31-5.35-3.18-.18-5.8,1.48-8.93,0,.69-4.57,5.09-1.97,7.66-1.97,1.62,0,3.03-.77,4.59-.73,2.42.06,4.39,2.21,6.97,1.03,3.23-1.47,2.81-6.05,3.86-8.8.61-1.58,2.14-4.46,3.03-5.96,1.08-1.82,3.27-2.02,3.12-5.88-.16-4.42-9.32-9.73-11.69-12.99-.66-.91-1.25-1.34-.96-2.69,1.45-.12,2.78.07,3.94,1.03,1.62,1.33,5.19,4.97,6.67,6.63,1.39,1.56,2.36,5.3,5.01,5.69,2.8.41,6.66-3.8,9.22-5.4,1.06-.67,6.17-2.74,6.87-3.44.34-.34.06-1.11.14-1.17.13-.11.53-.52.66-.67.07-.08.88.3,1.38-.4,1.45-2.04.89-9.82.45-12.44-.28-1.7-5.22-11.31-.86-11.17,2.93.09,4.74,6.69,5.35,9.33.33,1.42.98,4.41,1,5.72.03,2.18-1.68,4.75-.02,6.64,2.79,3.18,6.23.44,8.98.29,4.42-.25,8.5,2.06,12.91-1.96.44,5.73,6.83,8.15,11.29,10.67.25.14.44.55.66.67.62,2.71,4.75,5.42,7.19,3.89.44-.28,3.71-8.41,4.05-9.59.92-3.19,2.08-16.46,2.64-17.24,2.29-3.16,3.37,5.18,3.39,6.64.08,10.12-4.08,14.12-7.66,22.29s2.47,8.75,2.97,14.43c.16,1.81-2.06,8.45.91,8.16,5.9-.59,9.76-12.05,11.8-16.7,4.03-9.19,5.77-14.2,5.95-24.85.1-6.02-.65-11.91-4.67-16.71-3.8-4.54-10.42-7.54-15.9-9.36-17.15-5.68-36.24-8.44-54.48-3.98C22.18,18.62-.43,51.96,7.62,92.68c1.42,7.16,5.3,13.54,8.7,19.92,2.7,5.07,3.73,8.52,8.22,12.41,8.78,7.61,22.08,12.07,33.48,12.98,2.52,5.72-9.31,2.48-12.22,1.66-9.48-2.68-15.98-9.01-23.91-12.32-.19-.08-.47.07-.66,0,.05-1.32-.65-2.05-1.99-2-.23-.44-.42-.88-.66-1.33Z"/>
      <path class="cls-1" d="M21.9,127.33c7.92,3.3,14.43,9.64,23.91,12.32,2.91.82,14.74,4.06,12.22-1.66-11.4-.91-24.7-5.37-33.48-12.98-4.49-3.89-5.51-7.34-8.22-12.41-3.4-6.38-7.29-12.76-8.7-19.92C-.43,51.96,22.18,18.62,61.68,8.97c18.24-4.45,37.33-1.7,54.48,3.98,5.48,1.82,12.1,4.82,15.9,9.36,4.01,4.79,4.77,10.69,4.67,16.71-.18,10.65-1.92,15.66-5.95,24.85-2.04,4.65-5.9,16.12-11.8,16.7-2.96.3-.75-6.35-.91-8.16-.5-5.68-6.56-6.23-2.97-14.43s7.74-12.18,7.66-22.29c-.01-1.46-1.1-9.8-3.39-6.64-.57.79-1.72,14.05-2.64,17.24-.34,1.17-3.61,9.31-4.05,9.59-2.45,1.53-6.58-1.18-7.19-3.89.26.14,1.18-.3,1.82.16.86.62,1.73,3.35,4.67,1.69.57-.32,4.33-10.87,4.61-12.35.6-3.13.03-16.88,3.81-16.87.83,0,3.66,2.69,3.98,3.38,1.35,2.98-.76,15.92-1.83,19.47-1.21,4.01-4.07,7.78-5.91,11.39-2.69,5.25.47,5.16,1.92,9,.89,2.35.67,10.23,3.75,9.38,1.98-.54,6.21-12.33,8.21-14.43,2.02-9.53,6.58-22.02,4-31.66-.12-.46-3.26-7.46-3.53-7.79-.77-.97-2.08-.99-2.91-1.74-10.89-9.77-38.86-13.96-53.48-12.99C29.36,11.64-2.97,52.09,10.97,97.31c2.02,6.57,6.78,11.58,9.46,17.17.93,1.95.41,4.49,1.42,5.9.33.46,7.91,6.73,8.73,7.22,17.9,10.78,40.69,11.25,59,1.06-.05,1.49-3.87,3.53-4.95,4.03-3.86,1.76-8.64,2.82-12.84,3.43l-.46,2.55c10.32.24,21.19-5.68,28.55-12.65.94-.89,6.37-6.28,6.61-6.69.68-1.15.26-3.65,1.15-5.51,1.24-2.62,4.94-5.85,6.74-9.23,3.74-7.01,2.47-13.13,7.7-18.93,1.06-1.18,2.32-2.78,4-2.98-1.29,1.98-4.26,5.59-4.94,7.37-1.23,3.26-1.57,8.53-2.89,11.77-1.72,4.23-8.61,10.89-9.74,14.22-.55,1.62-.06,3.37-.68,4.65-.32.68-9.72,9.29-11,10.28-20.2,15.44-49.42,15.59-70.23,1.32-1.71-1.17-4.38-2.78-4.7-4.94Z"/>
      <path class="cls-1" d="M18.58,124c-4.83-1.42-4.58-7.23-6.52-11.11-.81-1.63-2.37-2.96-3.04-4.28C-3.31,84.26-2.88,55.23,14.58,33.68,30.25,14.35,46.36,4.9,71.41,1.41c20.61-2.87,67.85,3.9,69.95,30.9,1.16,14.95-1.99,36.61-12.63,47.02.27-3.38,2.45-5.55,3.79-8.53,7.84-17.45,13.53-39.21-1.78-54.49C122.03,7.63,92.74,1.88,80.63,2.68,49.78,4.7,19.62,19.54,6.81,49.18c-2.04,4.72-1.37,6.95-2.45,10.9-.35,1.27-1.58,1.18-1.69,1.72-1.86,8.56.14,28.91,3.32,37.19,1.35,3.51,4.71,8.2,6.52,11.45,2.47,4.43,3.61,8.94,6.08,13.56Z"/>
      <path class="cls-1" d="M21.23,127.33c-.35-.13-.9.04-1.35-.31-.7-.55-.44-1.3-.64-1.69,1.34-.05,2.04.68,1.99,2Z"/>
      <path class="cls-1" d="M59.72,74l-7.64-4.65c-1.56-3.97.67-5.38,4.51-4.56,1.93.42,3.2,2.66,5.09,3.58,6.64,3.24,6.89-1.81,11.28-2.77,2.23-.49,3.5.5,4.88.29,5.43-.84,3.07-5.24,4.08-8.59,1.2-3.99,6.34-3.24,6.99.39.93,5.14-4.54,7.67,1.38,12.61,2.07,1.73,3.67,2.39,5.55,5.08.97,1.39.74,5.09,4.54,4.51,1.75-.27,6.44-7.2,9.16-3.62,2.45,3.22-2.65,6.81-5.12,8.3-2.66,1.6-4.21-.32-4.82,4.49-.84,6.55.06,6.92-3.49,13.16-1.2,2.12-4.13,3.29-3.11,6.64.57,1.88,4.61,1.79,3.12,6.03-.36,1.01-1.75,1.09-2.22,1.78-.78,1.16.52,3.16-1.66,2.65.49-2.08-1.71-6.96-3.66-7.34-3.77-.75-3.81,1.17-6.06,2.58-1.49.93-4.01.77-4.24,3.12-.18,1.91,2.21,2.58-2.3,2.98-2.47.22-6.86-.68-8.68.61-1.71,1.21-2.37,13.43-7.61,8.41-4.41-4.21,4.82-11.68-.95-17.05-1.05-.98-10.79-6.12-11.93-6-.79.08-6.2,5.1-6.99,6.02.04-1.83,3.82-7.11,4.97-7.33,5.3-1.02,5.59,1.08,9.05,2.91,3.23,1.7,8.76,3.78,9.2,8.15.29,2.85-3.47,7.06-1.99,10.94,3.81.52,2.23-.64,2.95-3.37.33-1.25,2.04-7.85,2.29-8.22.62-.91,8-1.4,3.09-3.8-4-1.96-8.82-2.88-13.19-5.41-9.67-5.59-19.08-16.83-16.89-28.73.25-1.37,1.93-5.2,2.59-6.73,2.14-4.97,5.52-10.7,10.53-13.08-9.34,11.46-16.31,25.15-5.65,38.67,3.94,4.99,10.6,9.12,16.46,11.46,1.34.53,9.2,3.13,9.75,2.53.11-.12.11-2.04-.15-2.52-.86-1.58-8.96-5.2-10.79-6.81-1.17-1.03-1.8-2.74-2.63-3.36-1.99-1.5-7.04-.69-7.6-2.39-1.48-4.5,3.3-4.28,4.41-6.74.9-1.97.9-5.43,1.52-7.8s1.76-2.65,1.96-5.69c3.7-1.11.72,3.98,2.97,3.32,2.46-.72,4.41-3.75,4.35-6.32-.04-1.75-1.83-.76-3.36-1.32-3.31-1.2-5.55-4.23-9.27-4.35.39,2.44,3.91,3.26,4.96,5.37.39.78.25,1.26.34,1.96ZM83.61,56.66c-1.56,1.58,1.59,8.73,3.19,3.53.96-3.11-2.14-4.59-3.19-3.53ZM85.59,70c1.39-3.96-3.81-6.62-5.65-3.35-1.66,2.94,3.43,2.39,5.65,3.35ZM93.56,90c2.59-14.24-15.39-26.76-25.51-14.63-.66.79-3.75,5.46-1.35,5.32,3.89-.24,10.69-5.94,13.12-5.27,2.07.57,1.93,3.48,2.82,4.55.75.91,3.13,1.23,4.25,2.4,1.8,1.87,2.74,7.08,6.67,7.62ZM107.49,78c-3.17-1.04-4.46,3.3-6.43,3.86-3.99,1.14-6.79-1.9-4.84,5.47l10.41-6.2.87-3.13ZM82.28,87.33c-.69-2.54-.22-6.02-3.63-6.04-4.84-.04-3.11,3.86-3.74,4.64-.38.47-4.63.11-4.61,2.4.02,1.99,4.74,5.61,6.33,2.33,1.69-3.47-1.06-4.73,5.65-3.33ZM79.63,102c1.81,1.93,8.15-8.23,8.49-9.85s-1.65-8.15-2.86-8.8c-1.27-.69-.93,1.02-.98,1.65-.25,3.23,1.14,7.13.38,9.74-.66,2.28-6.05,3.99-5.03,7.27ZM73.65,100.66c.8-3.5-5.42-5.14-6.3-6.67-.47-.82-.77-7.94-3.31-7.33-5.48,6.62,3.03,13.7,9.61,13.99ZM60.38,90c-.87-.84-12.94,4.76-3.46,5.84,4.82.55,3.29-2.02,3.46-5.84ZM79.62,95.34c-2.45-.39-2.9,1.06-2.65,3.33,2.45.39,2.9-1.06,2.65-3.33ZM78.96,108c2.3,2.28,14.26-8.82,12.28-12-.72-1.16-1.2-.69-2.02-.01-1.49,1.22-3.88,5.72-5.25,6.72-1.23.9-3.42.67-4.37,1.61-.72.71-.93,3.4-.64,3.69ZM94.88,98.67l-11.3,10.97c-2.35,1.77-5.34-.25-5.28,3.69,3.44,1.39,4.84-2.08,6.43-2.53s3.7.43,5.24-.74,1.33-4.8,2.11-6.55,3.28-2.47,2.81-4.84ZM71,103.34c-.36,6.14,9.21,4.1,6.03.27-1.59-1.92-4.03-.38-6.03-.27Z"/>
      <path class="cls-1" d="M64.36,44.67c1.22-5.65.6-10.76-.7-16.3-.63-2.67-2.56-4.04-1.95-7.34.54-2.88,4.38-3.14,5.99-1.21,1.09,1.31,4.78,10.23,5.12,12.01.56,2.94-.8,7.88-.44,9.06,1.05,3.44,6.25.53,8.25.42,2.44-.14,7.51,1.88,9.45-.12.61-.63,2.5-9.92,2.74-11.58.38-2.7-1-12.15,2.98-11.58.96.14,2.56.83,3.11,1.61.89,1.26.94,13.83.58,16.02-.43,2.65-5.23,7.49-1.92,10,1.66,1.26,7.66,2.63,7.26,5.7-4.46-2.52-10.85-4.94-11.29-10.67-4.41,4.03-8.49,1.72-12.91,1.96-2.75.15-6.19,2.89-8.98-.29-1.65-1.89.06-4.46.02-6.64-.02-1.31-.66-4.3-1-5.72-.61-2.64-2.43-9.24-5.35-9.33-4.36-.14.58,9.47.86,11.17.44,2.62.99,10.4-.45,12.44-.5.7-1.31.32-1.38.4ZM96.21,34c-1.93-2.04-4.48,4.85-3.31,6,1.96,1.92,4.16-5.1,3.31-6Z"/>
      <path class="cls-1" d="M63.7,45.33c-.08.07.21.83-.14,1.17-.7.7-5.8,2.78-6.87,3.44-2.56,1.61-6.41,5.81-9.22,5.4-2.65-.38-3.62-4.13-5.01-5.69-1.48-1.66-5.05-5.3-6.67-6.63-1.17-.96-2.49-1.15-3.94-1.03-.29,1.35.3,1.78.96,2.69,2.37,3.26,11.52,8.57,11.69,12.99.14,3.86-2.04,4.06-3.12,5.88-.89,1.5-2.42,4.38-3.03,5.96-1.06,2.75-.64,7.32-3.86,8.8-2.58,1.18-4.55-.97-6.97-1.03-1.57-.04-2.97.73-4.59.73-2.57,0-6.97-2.6-7.66,1.97,3.13,1.48,5.75-.18,8.93,0,2.88.16,10.97,1.33,10.31,5.35-6.93-5.08-11.37-3.44-19.46-3.31-5.55-10.16,13.57-4.72,18.78-5.7,2.11-.96,3.96-9.29,5.3-11.86.32-.62,1.57-.82,2.36-2.45,4.59-9.4-12.24-13.67-12.96-22.01,1.24.1,2.53-.75,3.69-.71,2.15.06,10.47,7.66,12.24,9.71,1.2,1.38,1.5,4.13,3.67,4.35,3.14.32,3.38-2.69,4.99-3.65,1.33-.8,5.68-2.92,7.16-3.48,1.11-.42,2.28-.6,3.42-.89Z"/>
      <path class="cls-1" d="M55.74,55.33c10.52-7.84,24.49-11.45,37.43-7.27,5.86,1.89,6.36,4.26,9.91,7.71.43.42,1.79.58,2.81,1.51,10.61,9.74,12.15,30.61,7.41,43.54-2.19,5.99-9.23,11.39-10.81,15.81-.47,1.3-.01,2.76-.66,4.03-.73,1.44-5.96,5.37-7.58,6.35-.74.45-1.92,1.98-2.67.32,1.01-.65,8.61-6.86,8.94-7.35.83-1.23.86-4.63,1.81-6.19,1.42-2.33,5.17-5.68,6.77-8.53,7.62-13.56,6.96-31.77-1.59-44.79-.37-.57-9.01-7.75-10.26-8.52-9.54-5.85-24.12-3.71-34.03.55-2.15.93-5.16,4.38-7.48,2.82Z"/>
      <path class="cls-1" d="M39.15,113.33c-.21.26-2.5,3.57-2.55,3.8-.27,1.22,1.53,4.72-2.93,4.09s-1.44-8.8.29-11.44c2.07-3.16,8.03-5.79,8.41-8.26.41-2.68-2.47-3.82-3.52-5.56-.44-.72-.2-1.68-.35-1.95,1.51-.07,1.77.94,2.53,1.79,7.5,8.36-.81,8.51-4.87,13.53s-2.7,8.02,3,4.01Z"/>
      <path class="cls-1" d="M37.82,92.67c-1.02-2.17-2.51-3.99-2.65-6.67.28.23,1.18-.28,1.85,1.13.45.95,1.95,5.11.81,5.54Z"/>
      <path class="cls-2" d="M59.72,74c-.1-.7.04-1.18-.34-1.96-1.05-2.11-4.57-2.93-4.96-5.37,3.72.13,5.96,3.15,9.27,4.35,1.53.56,3.32-.43,3.36,1.32.05,2.58-1.89,5.6-4.35,6.32-2.25.66.73-4.43-2.97-3.32.03-.41.05-.94,0-1.33Z"/>
      <path class="cls-2" d="M94.88,98.67c.47,2.37-2.03,3.07-2.81,4.84s-.56,5.38-2.11,6.55-3.58.26-5.24.74-2.99,3.92-6.43,2.53c-.06-3.94,2.93-1.92,5.28-3.69l11.3-10.97Z"/>
      <path class="cls-2" d="M79.63,102c-1.02-3.28,4.37-4.98,5.03-7.27.75-2.61-.63-6.52-.38-9.74.05-.63-.29-2.34.98-1.65s3.18,7.26,2.86,8.8c-.34,1.62-6.67,11.78-8.49,9.85Z"/>
      <path class="cls-2" d="M107.49,78l-.87,3.13-10.41,6.2c-1.95-7.36.85-4.32,4.84-5.47,1.97-.57,3.27-4.91,6.43-3.86Z"/>
      <path class="cls-2" d="M60.38,90c-.17,3.81,1.36,6.39-3.46,5.84-9.48-1.08,2.59-6.68,3.46-5.84Z"/>
      <path class="cls-2" d="M71,103.34c2-.11,4.45-1.64,6.03.27,3.17,3.83-6.4,5.87-6.03-.27Z"/>
      <path class="cls-2" d="M85.59,70c-2.22-.96-7.31-.41-5.65-3.35,1.84-3.27,7.04-.61,5.65,3.35Z"/>
      <path class="cls-2" d="M83.61,56.66c1.05-1.06,4.15.42,3.19,3.53-1.6,5.2-4.75-1.95-3.19-3.53Z"/>
      <path class="cls-2" d="M96.21,34c.85.9-1.35,7.92-3.31,6-1.17-1.15,1.38-8.04,3.31-6Z"/>
    </g>
  </g>
</svg>