<?xml version="1.0" encoding="UTF-8"?>
<svg id="Layer_2" data-name="Layer 2" xmlns="http://www.w3.org/2000/svg" viewBox="0 0 170.67 100.67">
  <defs>
    <style>
      .cls-1 {
        fill: #3a280f;
      }

      .cls-2 {
        fill: #91897c;
      }
    </style>
  </defs>
  <g id="Layer_1-2" data-name="Layer 1">
    <g>
      <path class="cls-2" d="M27.33,39.74c.26-.79-.05-1.6.61-3.02,1.06-2.25,4.69-5.27,6.92-6.38,2.34-1.17,8.2-2.15,9.85-3.46s2.9-5.07,4.18-6.78c7.52-10.05,14.65-13.51,26.59-16.96,32.68-9.44,53.89,11.81,78.57,28.25,5.16,3.44,4.77,3.72,8.8,7.48,1.92,1.79,6.39,2.49,7.8,5.5v4.64c-2.08,2.21-2.21,5.39-3.44,8.21-.44.99-.37,2.06-1.89,1.73-.28-1.76.86-3.55-2.31-2.68-.27.07-1.88,4.43-3.02,4.67.22-3.44,3.57-5.09,4.51-8.44.54-1.94,1.05-7.61-.03-9.26-.29-.44-7.13-6.07-8.14-6.81-4.21-3.08-9.62-5.57-14.59-8.03-.96-.47-1.98-.81-2.42-1.9.78.24,5.12,1.5,5.33,1.32-.34-2.75-3.7-3.24-5.3-4.33-14.31-9.83-26.19-18.78-44.45-20.75-3.16-.34-16.57-.24-18.73,1.42s.69,1.56.48,3.13c-1.8.33-3.66.31-5.45.88-1.38.44-7.27,3.13-5.22,5.08.16.15,1.62-.19,2.27.04,5.49,1.92,3.46.53,8.23-.54,1.42-.32,2.93,0,4.36-.31,2.6-.58,3.94-2.44,7.34-1.71s7.04,6.82,3.87,9.53c-2.92,2.5-5.95.7-9.04.91-3.52.24-8.14,3.66-11.65.99-1.92-1.46-.98-6.15-4.7-5.6.45-.62.8-1.17.67-1.98-4.35-1.4-7.84-.61-7.33,4.63-1.51-.25-.88-4.98-4.65-1.64-1.19,1.06-1.01,2.68-1.72,3.6-1.04,1.35-4.81,3.7-4.26,6.27.25,1.14,13.16,3.71,13.3,7.66-2.78-1.22-6.23-3.78-9.83-4.47-.72-.14-1.43-.23-2.17-.16-.1.07,1.17,1.87,1.33,1.98-1.51,1.53-3.67-.05-5.57.03-1.06.05-5.3,1.24-6.25,1.75-2.32,1.24-1.84,7.24-7.51,5.5.22-.14,3.01-2.77,3.63-3.35.45-.43,3.69-3.98,3.69-4.26.02-3.46-8.66,2.23-9.9,4.07-.92,1.36-.22,3.23-2.75,3.55ZM89.26,19.13c.51-.44.73-3.47.28-4.39-1.8-3.68-7.09-.66-10.16.2-1.68.47-7.38.35-7.4,3.27-.03,3.75,7.86,1.19,9.71,1.01,1.46-.14,7.15.28,7.58-.09ZM48,27.82c-1.12-1.06-3.89.72-3.33,2.64,1.73.9,4.56-1.47,3.33-2.64Z"/>
      <path class="cls-2" d="M38.67,41.72c.12-.12.1-1.01.7-1.6,3.89-3.81,8.42-5.71,14.03-4.07,1.79.53.85,2.14,2.64,2.74-.73,4.21-2.5,3.08-4.86,4.41-3.84,2.17-6.24,4.92-11.17,3.15-.36,1.84,1.13,2.62,2,3.97-.06-.08-1.27.08-1.93-.37-1.19-.81-5-5.81-4.74-.96-1.79-1.05-3.91-1.6-6-1.33-.58,4.18.41,2.66,2.35,3.94,1.38.91,4.37,3.46,5.46,3.87s2.59.65,2.19-1.19c.04.06.89-.3,1.34.46.33.57,1.6,4.98,1.84,5.99.4,1.73-.79,5.35,1.49,4.81-.24-2.62.37-5.7-.04-8.24-.25-1.55-1.31-2.71-1.81-4.19-.27-.8-.05-2.69-.15-2.81,6.4,10.01,2.77,21.72,7.43,29.37.28.47,5.04,5.15,5.39,5.29,1.61.67,9.81.86,9.83,2.09.05,2.49-6.36,1.82-8.24,1.58-2.76-.35-7.86-2.22-9.36-4.61-.43-.68-.27-1.85-.75-2.56s-1.66-.87-2-1.37c-.28-.41.47-3.79.22-5.46-.22-1.46-2.14-7.85-3.36-8.23-3.6-1.13-10.93,1.77-9.82-4.84,3.76-.55,6.12,2.83,10,1.99.29-7.99-1.83-4.54-6.34-4.64-1.02-.02-7.16-.76-7.66-.99-2.51-1.17-.27-3.61-.73-5.18-.56-1.89-6.39-3.15-5.96.52.16,1.36,3.38,3.94,4.17,5.85,2.06,5.02,1.21,11.9,5.19,15.7-3.71-.87-5.9,2.15-9.51,1.17-1.69-.46-6.8-4.68-8.29-5.03-1.02-.24-2.09.72-3.55.3-.73-.21-7-4.06-7.36-4.66-2.57-4.2,3.3-6.45,5.96-8.76,4.2-3.65,8.84-7.19,12.75-10.82-1.41,5.75,6.3.34,4.66-1.32-.36-.36-3.12.79-4,.66,1.07-.98,1.89-1.63,3.02-2.63,1.04-.92,1.15-2.83,2.98-2.67-.21,1.13-1.4,3.63.34,3.32,2.36-.42,1.7-2.1,2.56-3.11.3-.35,1.02-.13,1.1-.21-1.01,3.56,3.16,4.11,5.59,3.23,1.16-.42.78-1.8,1.29-2.38.32-.36,1.05-.12,1.12-.19-.24.27-.09,2.52.63,3.02.9.62,2.49.29,3.54.14,2.16-.31,6.67-2.73,8.69-3.96.94-.57,1.52-.94,1.13-2.17-.86-2.73-9.67,1.76-11.47,2.53-.77.33-2.44.35-2.52.45ZM33.82,54.48c-1.16-1.07-3.66-.83-5.16-.83-.67,4.39,2.77,3.26,6,3.3.32-.29-.48-2.14-.84-2.47ZM21.17,58.48c-3.31-1.2-3.22,1.9-3.92,2.4-.49.35-2.41-1.25-3.92-.31-.73.45-2.49,4.5-1.99,5,1-.25,4.77-.59,5.33,0,.13.13-1.37,1.34.28,3.35,1.38,1.69,3.74,1.6,4.25,2.12.32.33-.06,1.39.54,1.86,2.19,1.71,4.77,0,1.73-1.85-.4-.25-1.31.08-1.5-.6-1.07-3.77,2.86-5.63-4.63-4.9-1.41-3.33,4.8-2.12,5.33-2.65.72-.73-.46-4.06-1.49-4.43ZM10,62.91c-1.18.08-3.65-.41-4.38.62-3.07,4.31,6.31,6.53,4.38-.62Z"/>
      <path class="cls-2" d="M164,62.25c-9.87,26.27-38.68,43.52-66.84,36.23-1.13-.29-2.15-.22-1.83-1.79,3.92.78,7.46.54,11.33,1.32.31-1.88-.39-1.11-1.54-1.41-2.49-.66-5.45-.29-7.64-1.69-1.12-.71-.75-1.49-.82-1.53,15.69,3.51,28.62,2.62,42.21-6.08,7.55-4.84,15.26-11.23,18.46-19.75l2,1.66c1.81-1.21,1.36-6.78,4.66-6.96Z"/>
      <path class="cls-2" d="M73.33,47.68c3.49,8.02,5.39,11.85,7.26,20.94,1.67,8.11.74,8.07,6.19,15.07,1.39,1.78,4.73,3.56,4.55,6.38-.17-.15-1.1-.03-1.66-.64-1.04-1.15-1.55-5.92-4.35-4.32-.51,4.21,6.93,8.64,9.34,11.59-1.48-.39-4.06-1.86-5.36-2.94-3.27-2.71-4.81-6.17-7.32-9.33-.53-.67-1.88-.8-2.03-1.44-.35-1.48.87-3.24.59-5-.41-2.54-3.06-6.25-3.92-8.75-2.51-7.25-3.62-14-6.63-21.56,1.07.78,2.26.78,3.33,0Z"/>
      <path class="cls-2" d="M53.88,45.85c3.26-.24,14.14,2.13,11.13,7.14-.29.49-9.92,3.74-10.83,3.82-3.71.32-9.38-3.62-8.09-7.36.54-1.58,6.1-3.47,7.79-3.59ZM62.67,52.31c.19-.2.04-2.12-.31-2.67-1.34-2.06-14.04-1.82-14.4.41-.41,2.54,4.02,4,5.89,4.1.5.03,8.52-1.51,8.83-1.84Z"/>
      <path class="cls-2" d="M69.84,66.73c-.66.62-10.84,2.2-12.14,2.12-4.29-.25-7.2-5.88-2.27-7.49,2.91-.95,11.55-1.64,13.89.56,1.05.99,1.64,3.75.52,4.81ZM67.17,62.41c-1.32-1.28-4.8-.83-6.54-.52-2.42.44-6.44,1.44-5.3,4.33l12.67-.66c.03-.94-.15-2.49-.83-3.15Z"/>
      <path class="cls-1" d="M71.33,79.47c-.92.23-2.46.58-3.33.66-1.73.17-5.96.21-7.62-.05-4.89-.74-2.8-5.55,1.35-5.91.83-.07,8.6,1.36,8.97,1.62,1,.71.61,2.6.64,3.67Z"/>
      <path class="cls-1" d="M52,32.45c-.17-.11-1.43-1.91-1.33-1.98.73-.08,1.44.02,2.17.16,3.6.69,7.05,3.25,9.83,4.47.19.08.48-.08.67,0,.53,1.97,2.68,4.91,4.33,6,.66.43,1.49.5,1.67.63,1.03,1.46,2.3,4.55,4,4.64.14.3-.14,1.01,0,1.32-1.07.78-2.26.78-3.33,0-.96-2.42-1.5-2.35-3.33-3.97.16-1.41.08-1.48-1.33-1.32-.11-.17-.46-.38-.67-.66-3.66-5.03-5.24-5.88-10.67-8.61-.64-.32-1.76-.5-2-.66Z"/>
      <path class="cls-2" d="M68,80.14c-3.6,2.35-15.76,2.85-12.34-3.98.29-.59,4.69-3.7,5.49-3.86,2.6-.52,11.87,1.07,11.97,4.74.06,2.21-.47,2.12-1.79,2.44-.03-1.07.36-2.96-.64-3.67-.37-.26-8.14-1.69-8.97-1.62-4.15.36-6.25,5.17-1.35,5.91,1.66.25,5.89.21,7.62.05Z"/>
      <path class="cls-1" d="M32.67,39.74c-1.18.72-.35-.27-2,1.32-.08.08-.81-.14-1.1.21-.86,1.01-.2,2.69-2.56,3.11-1.74.31-.55-2.19-.34-3.32.02-.11.49-.79.67-1.32,2.53-.31,1.83-2.19,2.75-3.55,1.25-1.84,9.93-7.53,9.9-4.07,0,.28-3.24,3.84-3.69,4.26-.62.58-3.4,3.22-3.63,3.35Z"/>
      <path class="cls-1" d="M94.67,96.69c-2.41-2.95-9.85-7.38-9.34-11.59,2.8-1.6,3.31,3.17,4.35,4.32.55.62,1.49.5,1.66.64,2.39,2.1,3.13,1.99,5.33,3.31.07.04-.3.82.82,1.53,2.18,1.4,5.14,1.03,7.64,1.69,1.15.3,1.85-.47,1.54,1.41-3.87-.78-7.41-.54-11.33-1.32-.22-.04-.47.05-.67,0Z"/>
      <path class="cls-1" d="M160,60.93c1.14-.24,2.75-4.6,3.02-4.67,3.17-.87,2.03.93,2.31,2.68.03.22-.04.45,0,.66l-.67,1.32c-.91.53-.48.82-.67,1.32-3.3.18-2.85,5.75-4.66,6.96l-2-1.66c.13-.34-.12-.98,0-1.32,2.14.43,1.6-2.05,2-3.31.18-.55-.3-1.52.67-1.99Z"/>
      <path class="cls-2" d="M37.88,70.32c.16.13,1.29,3.26,1.45,3.85-3.08.5-6.58-1.49-7.33-4.63.22-.19,5.64.6,5.88.78Z"/>
      <path class="cls-1" d="M20.67,46.36c.88.13,3.64-1.02,4-.66,1.64,1.66-6.07,7.07-4.66,1.32.23-.22.44-.46.67-.66Z"/>
      <path class="cls-2" d="M54,33.11c5.42,2.73,7.01,3.58,10.67,8.61-2.95-.39-4.27-3.58-5.97-5s-4.54-1.53-4.7-3.61Z"/>
      <path class="cls-2" d="M165.33,59.61c.01.07,1.13.84.67,1.32-.16.17-1.08-.14-1.33,0l.67-1.32Z"/>
      <path class="cls-2" d="M65.33,42.39c1.42-.16,1.49-.08,1.33,1.32-.68-.6-.17.51-1.33-1.32Z"/>
      <path class="cls-1" d="M76.67,7.29c.21-1.57-2.56-1.53-.48-3.13s15.57-1.76,18.73-1.42c18.26,1.97,30.15,10.92,44.45,20.75,1.59,1.09,4.96,1.58,5.3,4.33-.21.18-4.55-1.09-5.33-1.32-.21-.06-.47.07-.67,0,.05-1.83-3.61-3.25-5.33-3.97-.2-.3-.13-.57-.67-.66-.23-1.56-2.2-1.04-2.67-1.32-.06-.04.13-.86-.49-1.32-9.13-6.77-27.75-13.85-38.85-13.91-1.33,0-2.67-.03-4,0-1.07.02-2.77-.4-3.33.66-1.03-.07-2.3-.08-3.33,0-3.38.25-1.41.68-2,1.32-.1.11-.94-.07-1.33,0Z"/>
      <path class="cls-1" d="M38.67,41.72c.09-.1,1.75-.12,2.52-.45,1.8-.76,10.61-5.25,11.47-2.53.39,1.24-.19,1.6-1.13,2.17-2.03,1.22-6.53,3.64-8.69,3.96-1.06.15-2.65.49-3.54-.14-.71-.5-.87-2.75-.63-3.02Z"/>
      <path class="cls-1" d="M42,50.33c.1.12-.12,2.01.15,2.81.49,1.47,1.56,2.64,1.81,4.19.41,2.54-.2,5.62.04,8.24-2.28.54-1.09-3.07-1.49-4.81-.23-1.01-1.5-5.42-1.84-5.99-.45-.76-1.3-.4-1.34-.46-1.37-2.2-1.4-3.77-4-5.3-.26-4.86,3.55.14,4.74.96.66.45,1.87.29,1.93.37Z"/>
      <path class="cls-1" d="M33.82,54.48c.36.33,1.16,2.18.84,2.47-3.22-.04-6.67,1.08-6-3.3,1.5,0,4-.23,5.16.83Z"/>
      <path class="cls-1" d="M89.26,19.13c-.43.37-6.12-.05-7.58.09-1.85.18-9.74,2.74-9.71-1.01.03-2.92,5.72-2.8,7.4-3.27,3.08-.86,8.36-3.87,10.16-.2.45.92.23,3.95-.28,4.39Z"/>
      <path class="cls-1" d="M60,19.21c-.5-5.24,2.98-6.03,7.33-4.63.14.81-.22,1.36-.67,1.98-1.07,1.46-4.97,2.93-6.67,2.65Z"/>
      <path class="cls-1" d="M48,27.82c1.24,1.17-1.6,3.55-3.33,2.64-.57-1.92,2.21-3.7,3.33-2.64Z"/>
      <path class="cls-1" d="M62.67,52.31c-.31.33-8.32,1.87-8.83,1.84-1.87-.1-6.3-1.56-5.89-4.1.36-2.23,13.07-2.47,14.4-.41.36.55.5,2.47.31,2.67Z"/>
      <path class="cls-1" d="M67.17,62.41c.68.66.86,2.21.83,3.15l-12.67.66c-1.14-2.89,2.89-3.89,5.3-4.33,1.73-.31,5.22-.76,6.54.52Z"/>
      <path class="cls-2" d="M69.33,41.72c2.43,1.76,2.56,1.58,4,4.64-1.7-.08-2.97-3.18-4-4.64-.18-.13-1.01-.2-1.67-.63-1.65-1.08-3.8-4.03-4.33-6,2.86,1.3,4.31,4.23,6,6.62Z"/>
      <path class="cls-2" d="M159.33,62.92c-.4,1.26.14,3.74-2,3.31.46-1.27.4-2.7,2-3.31Z"/>
      <path class="cls-2" d="M113.59,71.93c2.42,2.04,6.77,6.33,3.07,9.19-4.86,3.75-17.77-3.34-21.58-7.02-5.86-5.67,10.74-5.61,13.76-5.06,2.44.44,3.23,1.62,4.75,2.89ZM110.67,71.53c-1.25-.71-11.6.53-14,0-.72,2.88,2.61,2.49,4.45,3.53,2.9,1.64,5.68,4.03,9.83,4.46,1.38.14,2.96-.17,4.38-.04.82-4.15-1.54-5.01-4.44-6.88-.37-.24-.18-1.04-.23-1.07Z"/>
      <path class="cls-2" d="M92.54,26.66c6.95-.57,13.27,1.47,12.84,9.45-.22,4.21-1.71,5.68-5.79,6.19-3.42.43-11.62-.58-15.11-1.39s-5.78-7.88-3.87-10.19c.4-.49,10.7-3.96,11.94-4.07ZM82.74,31.86c-.39,2.2-.11,4.98,1.64,6.52.92.81,8.27,2.42,10.01,2.64,6.82.83,10.4-1.45,8.8-8.74-.82-3.74-10.33-3.6-13.48-3.09-2.24.36-4.25,2.85-6.96,2.68Z"/>
      <path class="cls-2" d="M117.91,58.19c-1.04,1.62-18.41,1.64-21.56,2.06-11.49-5.9,8.43-12.87,13.24-12.54,3.77.26,10.67,6.83,8.32,10.48ZM113.64,52.02c-.84-.63-.78-1.39-2.4-1.92-5.75-1.87-9.56,3.01-15.07,3.71-1.02,1.35-1.19,3.34.5,4.14,2.86,1.36,14.21-1.38,18.24-.42,2.62-2.11.73-4.01-1.26-5.51Z"/>
      <path class="cls-2" d="M150.55,51.1c.56.91.12,3.24-.84,3.92-4.85,1.88-15.4,10.81-18.72,2.62-3.78-9.33,5.24-6.17,11.29-6.69,1.61-.14,3.01-1.36,4.68-1.26.5.03,3.5,1.25,3.6,1.41ZM148,52.33c-2.93-.79-5.13,1.03-7.65,1.34-2.1.26-4.62-.3-6.7-.02s-.3,3.86.77,4.61c2.64,1.87,12.13-2.99,13.58-5.93Z"/>
      <path class="cls-1" d="M136,75.5c.04-.14,1.46-2.31,1.56-2.42.39-.46,5.59-4.88,5.95-5.03,1.78-.72,4.28-.65,6.18-.5,1,.08,1.91-.53,1.66,1s-8.36,7.39-9.35,9.92c-2.79.65-6.15,1.33-5.99-2.31.01-.23-.05-.5,0-.66Z"/>
      <path class="cls-2" d="M90.67,5.3c11.1.06,29.72,7.14,38.85,13.91.61.46.42,1.28.49,1.32.47.29,2.43-.23,2.67,1.32-4.09-.67-1.97-.91-2.67-1.32-1.41-.84-3.44-.52-4.18-3.13-3-.63-13.15-6.57-15.41-4.87-.82.61.31,2.22-2.24,2.57-1.02.14-5.85-.85-6.13-1.24-.73-1.01,1.7-4.44-.02-5.6-.86-.58-7.42-1.45-9.02-1.66-1.24-.17-2.7.84-2.33-1.3Z"/>
      <path class="cls-2" d="M115.16,91.89c-1.07.89-12.94.16-14.93-.39-2.41-.66-4.98-2.21-4.85-5,.65-2.17,4.7-.37,6.3-.34s3.21-.75,4.51-.59c.76.1,7.93,2.46,8.47,2.86,1.21.88,1.82,2.37.5,3.46ZM110.67,90.07c0-.7-2.06-1.99-2.33-1.99h-9.67c-.57.97.95,1.99,1.67,1.99h10.33Z"/>
      <path class="cls-2" d="M127.43,32.54c1.07-1.7,7.88-.47,9.83.32,2.53,1.03,8.38,6.28,6.46,8.91-1.01,1.38-11.23.22-12.9-.53-2.09-.94-4.52-6.91-3.39-8.7ZM130.14,38.94c1.75,1.27,7.09-.52,9.44.75,2.5-1.48.07-3.84-1.78-4.73-1.66-.8-8.6-2.29-9.1-.14.34.86.95,3.77,1.44,4.12Z"/>
      <path class="cls-2" d="M136,75.5c.88-5.81,8.02-10.31,13.67-9.99,8.98.51-4.94,11.81-6.53,14.17-2.5,1.5-7.55,1.95-8.32-1.34-.29-1.24-.78-2.53,1.17-2.18-.16,3.64,3.2,2.96,5.99,2.31.99-2.53,9.1-8.41,9.35-9.92s-.66-.92-1.66-1c-1.9-.16-4.4-.22-6.18.5-.36.15-5.56,4.57-5.95,5.03-.09.11-1.51,2.28-1.56,2.42Z"/>
      <path class="cls-2" d="M121.8,32.66c1.21,1.09,4.31,7.16,1.77,7.78-4.35,1.05-6.2-6.09-6.23-9.31.44-.47,3.82.95,4.46,1.53Z"/>
      <path class="cls-2" d="M124.57,23.07c-1.44,2.51-10.67,1.73-9.12-3.4,1.35-4.47,11.1-.07,9.12,3.4ZM122.66,22.51c1.03-2.88-4.64-4.49-5.32-2.31-.91,2.91,3.82,2.4,5.32,2.31Z"/>
      <path class="cls-2" d="M86.67,5.3c.41,2.85-2.3.74-3.33.66.56-1.06,2.26-.64,3.33-.66Z"/>
      <path class="cls-2" d="M80,5.96c.31,1.77-.42,1.35-2,1.32.59-.64-1.38-1.08,2-1.32Z"/>
      <path class="cls-2" d="M133.33,22.52c1.72.73,5.38,2.14,5.33,3.97-2.16-.75-4.36-2.53-5.33-3.97Z"/>
      <path class="cls-1" d="M110.67,71.53s-.14.83.23,1.07c2.9,1.87,5.26,2.73,4.44,6.88-1.42-.13-3.01.18-4.38.04-4.15-.43-6.93-2.82-9.83-4.46-1.84-1.05-5.17-.65-4.45-3.53,2.4.53,12.75-.71,14,0Z"/>
      <path class="cls-1" d="M82.74,31.86c2.71.17,4.73-2.32,6.96-2.68,3.15-.5,12.66-.64,13.48,3.09,1.6,7.29-1.98,9.57-8.8,8.74-1.74-.21-9.09-1.83-10.01-2.64-1.75-1.54-2.03-4.32-1.64-6.52Z"/>
      <path class="cls-1" d="M113.64,52.02c1.99,1.5,3.89,3.4,1.26,5.51-4.03-.96-15.38,1.78-18.24.42-1.69-.8-1.52-2.79-.5-4.14,5.52-.7,9.32-5.57,15.07-3.71,1.63.53,1.56,1.29,2.4,1.92Z"/>
      <path class="cls-1" d="M148,52.33c-1.45,2.93-10.94,7.79-13.58,5.93-1.06-.75-2.89-4.32-.77-4.61s4.61.28,6.7.02c2.52-.31,4.71-2.13,7.65-1.34Z"/>
      <path class="cls-1" d="M110.67,90.07h-10.33c-.71,0-2.23-1.02-1.67-1.99h9.67c.27,0,2.33,1.29,2.33,1.99Z"/>
      <path class="cls-1" d="M130.14,38.94c-.48-.35-1.09-3.26-1.44-4.12.51-2.15,7.44-.66,9.1.14,1.85.89,4.28,3.25,1.78,4.73-2.36-1.27-7.69.52-9.44-.75Z"/>
      <path class="cls-1" d="M122.66,22.51c-1.5.09-6.24.61-5.32-2.31.68-2.18,6.35-.57,5.32,2.31Z"/>
    </g>
  </g>
</svg>