<?xml version="1.0" encoding="UTF-8"?>
<svg id="Layer_2" data-name="Layer 2" xmlns="http://www.w3.org/2000/svg" viewBox="0 0 155.33 157.38">
  <defs>
    <style>
      .cls-1 {
        fill: #959081;
      }

      .cls-2 {
        fill: #352e1d;
      }
    </style>
  </defs>
  <g id="Layer_1-2" data-name="Layer 1">
    <g>
      <path class="cls-1" d="M78.67,15.27c1.07-3.3,6.43-8.68,9.33-10.96,5.38-4.23,11.56-4.17,17.1-.08,4.62,3.42,5.76,7.15,5.57,12.69-.35,9.76-5.08,26.2-7.64,36.2-.44,1.71-2.49,4.51-1.4,6,.57.78,13.49,3,15.47,3.19,6.08.58,16.09-.25,21.74,2.25,2.04.91,4.26,4.25,7.12,4.86l9.39,8.91v1.99l-4.9,6.4c-5.75,4.69-12.12,6.03-19.1,7.54-.4-1.92.96-1.21,2.11-1.51,4.21-1.11,10.32-2.99,13.84-5.5,1.54-1.09,7.57-7.5,4.37-8.91l-4.96,6.34c-.75,1.1-1.81.73-2.69.96,1.84-2.97,5.58-4.21,5.31-8.22-.44-6.69-6.69-5.6-11.57-7.67-1.61.47-.76,3.25-1.41,4.61-1.94,4.09-12.37,2.9-16,3.32-13.55,1.57-32.3,6.25-45.35,5.3-1.04-.08-1.96-.61-2.99-.66-.89,3.97,3.82,4.18,4.66,7.3-1.71-1.22-6.66-4.35-5.33-.66-.29-.19-1.31.01-1.69-.61-.66-1.1-.06-2.51-.3-3.56-.17-.76-1.83-.79-2.35-1.8-.68-1.31.35-4.02-2.35-2.35-1.32.81-.91,3.3-1.51,4.17-.22.33-1.09.11-1.13.17-5.3,7.56-12.13,14.23-16.71,21.55-.57.92-1.27,2.62-2.62,2.35.97-1.6,2.15-5.12,3.07-6.57,3.77-5.93,10.7-10.98,14.94-16.84.45-.62,1.29-.43,1.33-.49,1.1-1.79-.03-4.31,0-5.31.02-.67,1.1-2.2.67-3.32.09.06.65-.12,1.15.17s.32,1.78,1.71,1.73c6.78-.25,8.64-8.89,9.15-14.18l-3.34,2.98c4.4-12.35,11.34-24.37,17.25-36.26.84-1.69,2.23-6.53,3.07-7.56,1.2-1.45,4.56-.63,4.88,1.09.46,2.51-8.46,16.78-10.14,20.22-3.76,7.69-7.17,16.01-10.04,23.86-.46,1.25-3.75,7.25-3.01,7.95,5.21-1.94,15.17.68,19.57-.75,1.96-.64.56-4.09,1.42-5.89s5.63-2,6.27-.25c.71,1.94-2.48,3.26-1.26,6.23,6.39.87,12.32-.75,18.34-1.32,4.8-.46,10.14-.26,14.72-1.27,1.29-1.02,1.58-4.71-.16-5.28-1.9-.63-11.35-.84-12.24,1.9,0-.43-1.35-2.69-.67-3.99-3.75-.45-3.52,1.33-2.66,4.32.54,1.89,1.13.79,2.66,1-.12.27.11.92,0,1.32-3.62.54-4.46-3.78-5.92-5.04s-3.74-.12-3.41-2.25c1.27-.16,2.71.12,4,0v-1.99c-3.14-.44-12.45-.48-14.04-2.95-1.78-2.76.77-5.11,1.47-7.91,1.23-4.93,1.78-10.12,2.86-15.07,1.69-7.74,4.58-14.41,4.31-22.81-.21-6.76-9.38-14.05-15.94-10.67l5.16,1.49c7.87,4.23,8.19,15.11,5.5,22.73,0-.1-.67-.74-.69-1.61-.15-6.51,1.63-16.32-5.39-19.9-3.68-1.88-8.73,2.66-9.25,6.23,10.67-.77.12,10.4-.67.67-1.22-1.38-6.69,8.4-6.69,8.98,0,1.7,5.54,2.07,3.06,5.66-1.54,2.24-4.42-1.8-6.41-.41-.62,2.85-10.16,16.82-8.63,18.3,7.13-1.53,7.3,7.36.32,6-1.66-.32-1.38-1.82-2.11-2.03-2.96-.86-2.74,2.73-4.52,4.04-1.21.89-3.61.18-2.04,2.63.59.92,2.73.87,3.04,3,.72,4.85-7.31,5.02-8.41.98-.88-3.26,2.86-3.06,3.05-3.34,1.63-2.35-2.9-2.66-3.82-3.16-5.63-3.07-14.7-8.54-21.22-8.8-1.32-.05-3.96.12-4.64,1.34-.82,1.46.69,4.17-2.55,3.81s-1.78-4.26-4.24-5c-4.56,0-9.69.14-14.2.53l1.33-2.65c-1.53-.82-6.37,1.25-6.68,2.46-1.11,4.32,7.39,13.91,12.02,14.13-1.6-2.23-4.38-3.42-6.04-5.62-.75-.99-.43-1.97-.63-2.34l11.77,9.19c.69.86,3.32.59,3.54.79.27.26-.11,1.95.03,2.62.72.37,1.63.22,2.66,1.02.61.48.52,1.47.68,1.64.12.13,1.84-.36,1.33,1.33-2.29-.52-1-1.12-1.33-1.33-1.67-1.02-2.83-.21-3.33-2.66-1.76-.91-7.27-4.4-6.67-1.33-.3-.16-1.35.13-1.95-.35-5.44-4.42-10.57-7.95-14.05-14.25v-1.99l2.3-3.36c17.02-5.8,37.78-1.93,54.21,4.57l1.69.03,1.43-1.28c4.19-7.36,8.17-15.55,12.52-22.74,1.48-2.44,4.38-6.99,6.52-8.42-.19.58.21,1.85-.37,2.59l-19.26,31.98c-1.95,1.65-3.53-.77-5.34-1.41-3.17-1.11-7.87-2.94-11.03-2.3,3.63,1.55,12.81,7.48,16.16,6.85,5.15-.97,8.5-11.48,10.91-15.73,4.41-7.8,10.88-21.13,16.57-27.31.83-.9,4.97-3.47,5.01-4.29.1-1.86-2.62.08-2.98.34-3.52,2.53-6.17,6.94-9.67,9.29ZM70.34,47.14c-1.11.25-2.51,2.82-.67,3.31,3.01.81,2.87-3.8.67-3.31ZM61.33,61.06c1.02-2.97-3.8-3.61-4.66-1.64-1.13,2.57,3.5,2.38,4.66,1.64ZM102.66,77.01c-7.97-.63-15.78.72-23.66,1.32-1.87.14-2.56-1.45-4.97.37-2.15,1.62-1.71,2.73.95,3,1.73.18,7.88-.49,10.01-.72,4.96-.53,10.2-1.43,15.17-2.17,1.07-.16,2.99-.13,2.5-1.8Z"/>
      <path class="cls-1" d="M126,125.47c.04.06.77-.27,1.37.43.68.79,3.79,7.72,4.17,8.99,2.33,7.87,1.79,19.71-7.54,22.45-1.08-.1-2.29.14-3.33,0-6.95-.95-12.85-4.57-17.33-9.29,4.15,1,7.27,5,11.45,6.19.71.2,5.83,1.42,5.22-.54-.27-.88-6.49-2.37-7.7-2.96-4.05-2-6.36-4.7-8.97-8,3.4,1.53,6.07,4.59,9.4,6.24,1.08.54,9.7,3.79,10.24,3.74,3.91-.38,3.6-8.76,3.74-11.58.03-.51.62-.94.62-1.05,2.36,4.79-.77,9.32-1.33,13.94,4.11-1.12,5.5-8.67,5.35-12.24-.23-5.49-4.47-10.95-5.36-16.3Z"/>
      <path class="cls-1" d="M16.67,63.73c1.51-.25,2.04.48,3.02,1.3,3.39,2.82,5.99,5.15,9.47,7.82,1.39,1.07,9.23,6.51,9.38,7.22.45,2.25-9.28,11.82-11.21,14.52-1.64,2.31-3.45,5.08-4.67,7.64-2.78-.07-2.66,2.03-3.33,4.64,3.03.06,2.69-3.31,3.33-4.64.37,0,.71.87,1.68.07l13.15-16.52c.55-.43,1.38-.02,1.83-.15-.13,1.96-2.5,2.51-2,4.64,7.08-1.82,5.63,7.3.48,5.89-2.69-.74-.78-5.04-3.46-3.87-.41.18-5.43,6.49-5.54,7.08-.6,3.23.41,1.65,1.78,2.56,4.59,3.03-3.76,8.37-4.54,2.69-.68-1.73-5.82,3.66-5.95,4.02-1.49,4.2,1.56,2.21,3.24,3.19s.22,4.54,3.32,3.67c-.51.7-2.62,3.69-2.83,4.15-.47,1.03-.62,2.03-.5,3.15,4.05.79,5.97-2.8,9.33-3.98.13,4.34-9.49,10.07-12.05,6.19-2.33-3.53,3-5,2.71-8.18-3.39.78-5.46.73-4.66-3.33-4.35-.54-2.77.39-4.07,2.92-1.56,3.04-4.56,5.3-3.93,9.03,1.54.39,2.48-1.14,3.72-1.33,2.46-.38,4.51,2.02,4.32,4.32-.15,1.84-1.38,1.27-2.04,1.66,1.25-6.58-5.31-5.97-3.33,0,.73.04,1.68-.21,2,.66-.43.16-.86,1.12-2,.66-.09-.42.11-1,0-1.33-.88-.04-1.78.02-2.66,0,.05,3.66,3.15,7.19,6.93,6.62,5.88-3.13,11.57-6.64,17.29-10.08.84-.5,2.29-.42,2.44-.53-4.09,2.32-12.26,7.46-15.95,10.34-.93.72-2.22,1.58-2.04,2.94,1.25.26,1.99-.19,3.03-.62,6.5-2.69,13.31-10,20.15-12.78,1.95-3.37-3.95-.57-5.18.13.08-.06.07-1.18.67-1.64,1.16-.88,3.57-.72,2.66-2.67-.48-1.02-2.33-.8-2.99-1.7-.4-.54-.21-1.72-.4-1.89-.49-.47-3.06.38-3.94.6l4.85-5.81c.36-.33,1.06-.08,1.15-.16-.79,3.57,2.62,1.25,3.92,2.08.79.5.06,4.91,2.75,4.56l-2,3.32,3.86-.14c-.22-1.56,5.17-4.21,4.13-5.17-.64-.59-3.79,2.71-5.33,1.99,1.23-3.28,8.32-3.27,7.33-6.85-.09-.31-4.19-3.33-.67-5.44,3.79-2.28,3.97,2.61,5.08,2.97,1.59.51,3.72-2.18,5.78-1.86,3.01.47,11.27,11.06,13.14,9.2-.47-8.85,9.23-4.59,6.05.21-1.35,2.04-7.65-.39-3.41,4.13,1.83,1.96,2.3,1.75,4.03,4.29,4.25,3.27,6.14,3.95,9.33,8.63,2.67,1.53,5.08,3.46,7.68,5.33.8.58,1.99.47,1.65,1.97-4.97-2.61-5.91-2.29-9.33-7.3-4.93-2.83-6.04-3.81-9.33-8.63-1.27-.97-3.73-2.33-4.99-3.3-3.38-2.62-11.07-11.29-14.31-12.34-2.98-.97-8.92,2.77-7.36,4.36.85.87,3.43-1.72,4.44-1.85.49-.06.83.53.89.53-3.16,3.26-7.8,4.86-11.54,7.43s-7.14,6.02-10.81,8.48c-3.47,2.33-16.87,11.24-19.83,12.12-8.01,2.38-15.18-2.89-15.69-10.93,2.38-4.86,4.21-10.45,6.84-15.15,4.66-8.29,11.57-18.15,17.28-25.61,1.29-1.68,7.59-7.63,7.72-9.18.22-2.7-2.06-2.17-3.53-3.09-4.88-3.05-11.78-8.5-16.25-12.73-.33-.31-.1-1.05-.19-1.13ZM40.66,94.26c1.52-1.52-2.75-4.19-3.33-1.65-.37,1.63,2.89,2.08,3.33,1.65ZM53.34,110.86c.43.43,3.7-.02,3.33-1.65-.58-2.55-4.85.13-3.33,1.65ZM39.34,119.49c.43.43,3.7-.02,3.33-1.65-.58-2.55-4.85.13-3.33,1.65ZM14,139.41l-4.37-6.6-2.29-1.36c-1.03,4.1,2.29,8.26,6.66,7.96Z"/>
      <path class="cls-2" d="M62.67,113.52c-.06,0-.39-.59-.89-.53-1.01.13-3.59,2.72-4.44,1.85-1.56-1.58,4.39-5.32,7.36-4.36,3.24,1.05,10.93,9.72,14.31,12.34,1.25.97,3.72,2.33,4.99,3.3,3.29,4.82,4.4,5.8,9.33,8.63,3.43,5.02,4.36,4.69,9.33,7.3.39.2.44.38.67.66,2.61,3.29,4.92,6,8.97,8,1.21.6,7.43,2.09,7.7,2.96.61,1.96-4.51.74-5.22.54-4.18-1.19-7.3-5.19-11.45-6.19-.21-.23-.47-.43-.67-.66-.94-1.11-1.55-2.66-3.33-2.66-.15-.24-.48-.43-.67-.66-.14-.19-.04-.92-.68-1.61-.78-.83-2.78-2.12-3.98-2.37-.24-.31-.36-.43-.67-.66.16-1.41.08-1.49-1.33-1.33-.27-.31-.56-.54-.67-.66-.78-.91-.8-1.24-2-1.99-.2-.12-.36-.5-.67-.66-.32-.93-1.03-1.32-2-1.33-.23-.22-.44-.45-.67-.66.37-1.88-1.69-1.68-2-1.99s-.11-2.36-2-1.99c-.22-.24-.46-.45-.67-.66-.72-.77-1.39-1.35-2-1.99-.23-.24-.45-.44-.67-.66-2.31-2.38-3.95-3.47-6-5.31-.4-.36-.77-.84-1.33-1.33-1.6-1.4-4.21-5.42-6.47-5.84-.5-.09-.81.53-.86.53-.39-.05-.93-.04-1.33,0Z"/>
      <path class="cls-2" d="M22.67,64.39c.51,2.45,1.66,1.63,3.33,2.66.33.2-.96.81,1.33,1.33.22.05.47-.06.67,0-.07,1.45.95,1.75,1.9,2.42,3.55,2.5,7.09,4.77,10.53,7.46,2.23,1.75,2.84-.3,1.56,4.73-.22.15-.4.47-.67.66-.37.27-1.87-.81-1.33,1.99-.2.06-.46-.06-.67,0-.45.13-1.29-.28-1.83.15l-13.15,16.52c-.96.8-1.3-.06-1.68-.07-.64,1.33-.3,4.7-3.33,4.64.67-2.61.55-4.72,3.33-4.64,1.22-2.56,3.02-5.33,4.67-7.64,1.92-2.7,11.66-12.27,11.21-14.52-.14-.71-7.98-6.15-9.38-7.22-3.49-2.67-6.08-5.01-9.47-7.82-.99-.82-1.51-1.55-3.02-1.3-.21-.19-.6-.63-.67-.66-.6-3.07,4.91.41,6.67,1.33Z"/>
      <path class="cls-1" d="M71.33,118.83c-3.65.15-4.28-4.28-7.33-5.31.05,0,.36-.62.86-.53,2.26.41,4.87,4.44,6.47,5.84Z"/>
      <path class="cls-1" d="M98.67,144.06c-2.98-.35-3.45-2.38-4.67-3.98,1.2.26,3.2,1.55,3.98,2.37.65.69.54,1.42.68,1.61Z"/>
      <path class="cls-1" d="M78.67,125.47c-2.82.7-1.49-1.34-2.47-2-1.2-.8-3.43-.64-3.53-3.31,2.05,1.84,3.69,2.93,6,5.31Z"/>
      <path class="cls-1" d="M102.67,147.38c-2.83.35-2.5-1.35-3.33-2.66,1.78,0,2.39,1.54,3.33,2.66Z"/>
      <path class="cls-1" d="M84,130.78c.31.31,2.37.11,2,1.99-.85-.82-.99-.87-2-1.99-.35-.39-1.25-1.18-2-1.99,1.89-.37,1.69,1.68,2,1.99Z"/>
      <path class="cls-1" d="M81.33,128.12c-2.12.23-2.23.12-2-1.99.61.64,1.28,1.22,2,1.99Z"/>
      <path class="cls-1" d="M91.33,137.42c-2.1.25-2.25.1-2-1.99,1.2.76,1.22,1.09,2,1.99Z"/>
      <path class="cls-1" d="M88.67,134.76c-.3-.16-1.46.29-1.9-.1-.32-.29,0-1.14-.1-1.23.97.01,1.68.4,2,1.33Z"/>
      <path class="cls-1" d="M92,138.08c1.42-.16,1.49-.08,1.33,1.33-1.44-1.11-.57-.46-1.33-1.33Z"/>
      <path class="cls-1" d="M123.33,128.12c-1.42.31-1.45-.76-2-1.63-3.5-5.51-6.17-11.68-9.41-17.08-2.28-3.79-5.16-7.39-7.79-10.97-1.86-6.35,5.52-4.12,5.86-5.84.09-.44-5.24-6.78.34-7.02,5.19-.23,2.69,3.37,3.3,4.71,1.19,2.64,6.73.72,9.04.66-3.78-8.54,6.03-9.99,6-.66,4.92-1.41,9.8-3.04,14.66-4.65.34,1.56-.78,1.41-1.75,1.87-4.47,2.14-9.32,3.53-14.25,4.11l2.67,2.65c-2.09.4-4.56,1.56-7.08,1.91-1.95.27-12.54,0-12.92,1.75,4.95,7.51,10.04,14.97,14.35,22.87.35.64,1.61,2.31.31,2.68-5.02-6.07-8.56-13.76-13.45-20.13-.84-1.09-1.68-3.33-3.21-3.11-.35,1.24.14,1.73.51,2.61,2.3,5.57,9.63,14.24,12.83,20.29,1.02,1.93,1.34,2.98,2,4.98ZM123.34,85.64c-.12.98-.1,2.97,1,3.31,3.03.92,3.4-4.41-1-3.31Z"/>
      <path class="cls-2" d="M123.33,128.12c-.65-2-.98-3.06-2-4.98-3.2-6.05-10.52-14.71-12.83-20.29-.36-.88-.86-1.37-.51-2.61,1.53-.22,2.37,2.02,3.21,3.11,4.89,6.37,8.43,14.06,13.45,20.13.38.46.74,1.26,1.33,1.99.89,5.35,5.13,10.81,5.36,16.3.15,3.57-1.24,11.13-5.35,12.24.56-4.62,3.69-9.15,1.33-13.94,0-.44.03-.89,0-1.33-.09-1.24-1.22-6.07-2.67-5.31-.49-1.66-.89-3.96-1.33-5.31Z"/>
      <path class="cls-2" d="M144,85.64c.88-.22,1.95.14,2.69-.96l4.96-6.34c3.2,1.41-2.83,7.82-4.37,8.91-3.53,2.51-9.64,4.39-13.84,5.5-1.16.31-2.51-.41-2.11,1.51-.4.09-.92-.08-1.33,0l-2.67-2.65c4.93-.58,9.78-1.97,14.25-4.11.98-.47,2.09-.31,1.75-1.87.19-.06.45.05.67,0Z"/>
      <path class="cls-2" d="M62,79.66c-.03,1,1.1,3.52,0,5.31-.04.06-.88-.13-1.33.49-4.24,5.86-11.16,10.92-14.94,16.84-.92,1.45-2.1,4.97-3.07,6.57-1.35,2.21-1.53,2.28-3.33,3.98-.09.08-.79-.16-1.15.16l-4.85,5.81c-.22.05-.48-.07-.67,0-3.36,1.18-5.28,4.77-9.33,3.98-.11-1.12.03-2.12.5-3.15.21-.47,2.31-3.46,2.83-4.15,2.01-2.73,4.77-4.4,6.67-6.64,4.29-.24,4.76-3.97,6.92-6.39,6.38-7.15,11.58-10.8,17.08-18.84,1.08-1.58,2.71-3.69,4.67-3.98Z"/>
      <path class="cls-2" d="M103.33,27.88c2.69-7.62,2.36-18.5-5.5-22.73l-5.16-1.49c6.55-3.37,15.72,3.91,15.94,10.67.26,8.4-2.62,15.06-4.31,22.81-1.08,4.95-1.63,10.14-2.86,15.07-.7,2.8-3.26,5.15-1.47,7.91,1.59,2.46,10.9,2.5,14.04,2.95v1.99c-1.3.12-2.74-.16-4.01,0-.64.08-1.34-.04-2,0-1.22-1.03-3.1-.73-4.67-.66-.66.03-1.34-.05-2,0-.31-.8-1.29-.72-2-.66-.44.03-.89,0-1.33,0-1.91-1.48-2.4-1.54-2.67-3.98-.02-.21,0-.45,0-.66,1.78.38,1.32-.89,1.64-1.98,1.74-5.79,3.16-10.47,3.69-16.61.04-.43,0-.89,0-1.33,2.39.42,1.08-3.44,1.37-4.95s1.2-1.94,1.3-4.35c.03-.65.03-1.34,0-1.99Z"/>
      <path class="cls-2" d="M78.67,15.27c3.5-2.35,6.15-6.76,9.67-9.29.36-.26,3.08-2.2,2.98-.34-.04.82-4.18,3.39-5.01,4.29-5.68,6.18-12.16,19.51-16.57,27.31-2.41,4.26-5.76,14.77-10.91,15.73-3.35.63-12.53-5.3-16.16-6.85,3.15-.64,7.85,1.18,11.03,2.3,1.81.63,3.39,3.06,5.34,1.41l19.26-31.98c.58-.74.18-2.02.37-2.59Z"/>
      <path class="cls-2" d="M76.67,89.62c1.46,1.03,3.36,3.12,4,4.65,2.11,5.02,8.2,12.23,12,16.93.71.88,4.51,2.3,2.02,4-3.34,2.29-7.49-4.03-8.94-6.08-3.8-5.39-7.46-11.47-11.75-16.84-.2-.25-.47-.43-.67-.66-.28-.33.77-1.76-1.33-1.33-.2-.45.24-.73-.67-1.33-1.32-3.68,3.62-.55,5.33.66Z"/>
      <path class="cls-2" d="M71.33,67.05l3.34-2.98c-.51,5.29-2.37,13.93-9.15,14.18-1.39.05-1.19-1.43-1.71-1.73s-1.06-.11-1.15-.17c-2.33-1.6-3.56-2.6-6-3.98-1.11-3.48-6.81-3.64-8.67-6.63,4-1.18,5.14,1.78,7.38,2.93,1.48.76,5.06,1.85,6.62,2.37.2.07.46-.06.67,0,2.96,5.54,6.4,2.94,8-1.99.21-.65.44-1.35.67-1.99Z"/>
      <path class="cls-2" d="M102.66,77.01c.49,1.67-1.43,1.64-2.5,1.8-4.97.74-10.21,1.65-15.17,2.17-2.13.23-8.28.9-10.01.72-2.66-.27-3.11-1.38-.95-3,2.41-1.81,3.1-.22,4.97-.37,7.88-.6,15.7-1.95,23.66-1.32Z"/>
      <path class="cls-2" d="M7.33,51.78c.2.37-.12,1.34.63,2.34,1.65,2.21,4.44,3.39,6.04,5.62-4.62-.21-13.12-9.81-12.02-14.13.31-1.21,5.15-3.28,6.68-2.46l-1.33,2.65c-.22.02-.46-.04-.67,0-1.77.36-2.69,1.9-2.41,3.68.22,1.42,1.96,1.28,2.41,1.63.28.22.46.27.67.66Z"/>
      <path class="cls-2" d="M119.33,71.03c-1.53-.21-2.11.89-2.66-1-.86-2.99-1.09-4.77,2.66-4.32-.68,1.3.67,3.56.67,3.99,0,.79-.51.99-.67,1.33Z"/>
      <path class="cls-2" d="M61.33,61.06c-1.16.73-5.79.93-4.66-1.64.86-1.97,5.67-1.32,4.66,1.64Z"/>
      <path class="cls-2" d="M70.34,47.14c2.2-.49,2.34,4.12-.67,3.31-1.84-.49-.44-3.06.67-3.31Z"/>
      <path class="cls-2" d="M37.33,126.13c1.23-.7,7.13-3.49,5.18-.13-6.83,2.78-13.64,10.08-20.15,12.78-1.05.43-1.78.89-3.03.62-.18-1.36,1.12-2.22,2.04-2.94,3.69-2.88,11.86-8.02,15.95-10.34Z"/>
      <path class="cls-2" d="M14,139.41c-4.37.3-7.69-3.86-6.66-7.96l2.29,1.36,4.37,6.6Z"/>
      <path class="cls-2" d="M16.67,130.12c-.48.29-.78.46-1.33.66-.32-.87-1.27-.63-2-.66-1.97-5.97,4.58-6.58,3.33,0Z"/>
      <path class="cls-2" d="M46.67,119.49c1.54.72,4.69-2.58,5.33-1.99,1.03.95-4.35,3.6-4.13,5.17l-3.86.14,2-3.32h.67Z"/>
      <path class="cls-2" d="M40.66,94.26c-.43.43-3.7-.02-3.33-1.65.58-2.55,4.85.13,3.33,1.65Z"/>
      <path class="cls-2" d="M39.34,119.49c-1.52-1.52,2.75-4.19,3.33-1.65.37,1.63-2.89,2.08-3.33,1.65Z"/>
      <path class="cls-2" d="M53.34,110.86c-1.52-1.52,2.75-4.19,3.33-1.65.37,1.63-2.89,2.08-3.33,1.65Z"/>
      <path class="cls-1" d="M35.33,65.06c-2.44,5.48,4.88,5.42,1.33,0,2.87.53,3.7,4.44,1.31,5.64-1.21.61-4.18-.17-2.34,2.35.23.32,6.35,3.95,6.74,3.98,1.73.13,7.2-4.13,8.17,1.14s-4.34,2.47-6.08,2.92c-.59.15-1.74,1.38-2.48,1.9,1.27-5.02.67-2.98-1.56-4.73-3.44-2.69-6.99-4.96-10.53-7.46-.95-.67-1.98-.97-1.9-2.42,2.07.64,3.27,1.9,5.33,1.99.19-2.47-1.08-4.75,2-5.31ZM45.36,77.03c-1.75,2.54,3.23,4.87,3.97,2.29s-3.31-3.26-3.97-2.29Z"/>
      <path class="cls-1" d="M41.33,83.65c-.01,1-.34,1.7-1.33,1.99-.54-2.8.97-1.72,1.33-1.99Z"/>
      <path class="cls-2" d="M123.34,85.64c4.4-1.1,4.04,4.23,1,3.31-1.11-.34-1.12-2.33-1-3.31Z"/>
      <path class="cls-1" d="M124.67,133.43c1.45-.76,2.58,4.07,2.67,5.31-1.77.5-2.16-3.58-2.67-5.31Z"/>
      <path class="cls-1" d="M74,92.28c4.29,5.37,7.95,11.45,11.75,16.84,1.44,2.05,5.59,8.37,8.94,6.08,2.48-1.7-1.31-3.12-2.02-4-3.8-4.7-9.88-11.91-12-16.93,3.02,1.83,5.73,5.04,7.96,7.83,1.4,1.74,7.79,10.53,7.93,11.93.54,5.22-7.3,2.15-9.82-.25-3.43-3.26-9.57-13.67-11.77-18.16-.53-1.09-1.08-2.07-.97-3.34Z"/>
      <path class="cls-1" d="M71.18,99.74c.59.57,1.05,4.4.73,5.37-1.36,4.01-7.96-.61-7.16-3.74.56-2.19,5-3.03,6.43-1.63ZM70.66,104.22c.9-2.44-3.33-4.69-3.99-2.31s2.36,2.55,3.99,2.31Z"/>
      <path class="cls-1" d="M94.49,86.39c3.53-.51,5.6,6.25.46,6.54s-4.6-5.95-.46-6.54ZM96,90.94c1.08-1.07-1.59-3.72-2.66-2.65-1.39,1.4,1.27,4.03,2.66,2.65Z"/>
      <path class="cls-1" d="M103.81,132.89c4.83-1.42,6.5,6.19.55,5.19-3.02-.51-3.17-4.42-.55-5.19Z"/>
      <path class="cls-1" d="M92.09,126.22c5.67-3.24,7.63,6.15,2.26,5.25-2.19-.37-2.64-3.35-2.26-5.25Z"/>
      <path class="cls-1" d="M112.46,116.37c3.63,4.4-3.49,7.15-5.46,3.13s3-6.12,5.46-3.13ZM111.33,119.49c1.52-1.52-2.75-4.19-3.33-1.65-.37,1.63,2.89,2.08,3.33,1.65Z"/>
      <path class="cls-1" d="M116.58,145.96c-.94,1.47-6.83.54-4.92-3.23,1.8-3.57,6.72.41,4.92,3.23Z"/>
      <path class="cls-1" d="M117.09,129.51c2.43-.38,6.47,6.02,2.43,7.15-4.43,1.24-5.63-6.64-2.43-7.15ZM117.68,131.45c-2.05.43-.47,4.35,1.31,3.98,2.05-.43.47-4.35-1.31-3.98Z"/>
      <path class="cls-1" d="M103.33,104.89c-3.74,5.79,5.49,6.71,1.33,0,3.71.67,3.83,6.3-1,6.04-3.66-.19-4.03-5.36-.33-6.04Z"/>
      <path class="cls-2" d="M104.67,104.89c4.15,6.71-5.08,5.79-1.33,0,.33-.06,1-.06,1.33,0Z"/>
      <path class="cls-1" d="M72,90.28c2.1-.43,1.05,1,1.33,1.33-1.97.37-1.08-.75-1.33-1.33Z"/>
      <path class="cls-1" d="M62,71.03c-1.56-.52-5.14-1.61-6.62-2.37-2.24-1.15-3.38-4.11-7.38-2.93,1.86,2.99,7.56,3.16,8.67,6.63-5.64-3.19-17.05-10.28-22.25-12.05-3.68-1.25-8.02-2.79-7.09,2.76-5.39-.12-3.13-3.28-4.17-5.16-.6-1.1-11.37-6.63-6.73-8.04,3.12-.95,4.89,2.05,7.23,3.25,9.12,4.7,20.66,6.55,29.26,11.36,2.91,1.63,6.28,4.57,9.08,6.56Z"/>
      <path class="cls-1" d="M57.33,83.65c-5.5,8.04-10.7,11.69-17.08,18.84-2.16,2.42-2.63,6.15-6.92,6.39,6.55-7.73,13.48-16.82,21.32-23.58.81-.7,1.67-1.27,2.68-1.64Z"/>
      <path class="cls-1" d="M100.67,40.5c-.52,6.14-1.95,10.82-3.69,16.61-.33,1.09.14,2.36-1.64,1.98.05-2.19,2.06-7.83,1.96-8.25-.29-1.22-1.8-.91-2.62-1.05.05-1.1-.02-2.22,0-3.32-.98-.1-2.99-.1-3.32,1-.8,2.61,2.09,2.1,3.33,2.32-.01.29.09,1.26,0,1.33-.46.34-2.97.05-3.68-.65-2.9-2.84.83-8.37,4.19-5.17.84.8.26,3.44,2.48,2.49,2.1-.89-.18-7.26,3.01-7.3Z"/>
      <path class="cls-1" d="M103.33,29.87c-.1,2.41-1.01,2.8-1.3,4.35s1.02,5.36-1.37,4.95c.01-.62.15-2.44-.03-2.62-.82-.81-6.74.96-5.33-4.9.36-1.5,6.61-.85,8.03-1.77Z"/>
      <path class="cls-1" d="M88.57,61.17c.34.54.2,2.72.06,3.51-1.15,6.22-9.12,2.43-6-2.66,1.14-1.86,5.14-2.13,5.94-.86Z"/>
      <path class="cls-1" d="M50.67,57.08c-.66.92-7.76,1.41-7.97-1.6-.25-3.8,3.79-4.02,6.24-2.33.82.57,2.05,3.47,1.72,3.92Z"/>
      <path class="cls-1" d="M31.42,53.02c-2.48-3.96,5.26-6.5,6.48-2.8,1.69,5.12-5.93,3.67-6.48,2.8Z"/>
      <path class="cls-1" d="M74.73,39.1c-1.94-2.22,2.88-6.6,4.95-3.27,2.14,3.44-3.74,4.65-4.95,3.27Z"/>
      <path class="cls-1" d="M70.67,69.04c-1.6,4.93-5.04,7.53-8,1.99,1.51.43,2.59,1.66,4.18,1.24,1.92-.51,1.77-3.4,3.82-3.23Z"/>
      <path class="cls-2" d="M36.67,65.06c3.55,5.42-3.77,5.48-1.33,0,.33-.06,1.01-.06,1.33,0Z"/>
      <path class="cls-1" d="M6.67,45.81c-.75,1.84-.75,3.48,0,5.31-.46-.36-2.2-.21-2.41-1.63-.27-1.78.64-3.32,2.41-3.68Z"/>
      <path class="cls-1" d="M95.33,59.75c.27,2.44.76,2.5,2.67,3.98-.08,0-.54.86-1.49.59-2.07-.6-4.09-5.06-1.18-4.57Z"/>
      <path class="cls-1" d="M108,65.06c-.06,0,.1.53-.99.64-1.75.18-4.27.62-3.67-1.31,1.57-.07,3.44-.36,4.67.66Z"/>
      <path class="cls-1" d="M101.33,64.39c-.58.05-2.33,2.04-2-.66.71-.05,1.69-.14,2,.66Z"/>
      <path class="cls-2" d="M45.36,77.03c.67-.97,4.68-.18,3.97,2.29s-5.72.25-3.97-2.29Z"/>
      <path class="cls-2" d="M70.66,104.22c-1.63.23-4.68.14-3.99-2.31s4.89-.13,3.99,2.31Z"/>
      <path class="cls-2" d="M96,90.94c-1.39,1.38-4.05-1.25-2.66-2.65,1.07-1.07,3.74,1.57,2.66,2.65Z"/>
      <path class="cls-2" d="M111.33,119.49c-.43.43-3.7-.02-3.33-1.65.58-2.55,4.85.13,3.33,1.65Z"/>
      <path class="cls-2" d="M117.68,131.45c1.79-.38,3.37,3.54,1.31,3.98-1.79.38-3.37-3.54-1.31-3.98Z"/>
      <path class="cls-2" d="M94.67,49.79c-1.24-.21-4.13.29-3.33-2.32.34-1.11,2.34-1.11,3.32-1-.02,1.1.05,2.22,0,3.32Z"/>
    </g>
  </g>
</svg>
